<?xml version="1.0" encoding="utf-8" standalone="no"?>
<!DOCTYPE svg PUBLIC "-//W3C//DTD SVG 1.1//EN"
  "http://www.w3.org/Graphics/SVG/1.1/DTD/svg11.dtd">
<svg xmlns:xlink="http://www.w3.org/1999/xlink" width="1288.906563pt" height="352.362188pt" viewBox="0 0 1288.906563 352.362188" xmlns="http://www.w3.org/2000/svg" version="1.1">
 <metadata>
  <rdf:RDF xmlns:dc="http://purl.org/dc/elements/1.1/" xmlns:cc="http://creativecommons.org/ns#" xmlns:rdf="http://www.w3.org/1999/02/22-rdf-syntax-ns#">
   <cc:Work>
    <dc:type rdf:resource="http://purl.org/dc/dcmitype/StillImage"/>
    <dc:date>2026-01-17T01:21:33.816481</dc:date>
    <dc:format>image/svg+xml</dc:format>
    <dc:creator>
     <cc:Agent>
      <dc:title>Matplotlib v3.10.3, https://matplotlib.org/</dc:title>
     </cc:Agent>
    </dc:creator>
   </cc:Work>
  </rdf:RDF>
 </metadata>
 <defs>
  <style type="text/css">*{stroke-linejoin: round; stroke-linecap: butt}</style>
 </defs>
 <g id="figure_1">
  <g id="patch_1">
   <path d="M 0 352.362188 
L 1288.906563 352.362188 
L 1288.906563 0 
L 0 0 
z
" style="fill: #ffffff"/>
  </g>
  <g id="axes_1">
   <g id="patch_2">
    <path d="M 51.111563 313.838125 
L 418.830116 313.838125 
L 418.830116 22.318125 
L 51.111563 22.318125 
z
" style="fill: #ffffff"/>
   </g>
   <g id="PathCollection_1">
    <defs>
     <path id="m0f68265d20" d="M 0 3.535534 
C 0.937635 3.535534 1.836992 3.163008 2.5 2.5 
C 3.163008 1.836992 3.535534 0.937635 3.535534 0 
C 3.535534 -0.937635 3.163008 -1.836992 2.5 -2.5 
C 1.836992 -3.163008 0.937635 -3.535534 0 -3.535534 
C -0.937635 -3.535534 -1.836992 -3.163008 -2.5 -2.5 
C -3.163008 -1.836992 -3.535534 -0.937635 -3.535534 0 
C -3.535534 0.937635 -3.163008 1.836992 -2.5 2.5 
C -1.836992 3.163008 -0.937635 3.535534 0 3.535534 
z
" style="stroke: #1f77b4; stroke-opacity: 0.6"/>
    </defs>
    <g clip-path="url(#pe144644929)">
     <use xlink:href="#m0f68265d20" x="329.377705" y="206.301901" style="fill: #1f77b4; fill-opacity: 0.6; stroke: #1f77b4; stroke-opacity: 0.6"/>
     <use xlink:href="#m0f68265d20" x="253.917546" y="75.321761" style="fill: #1f77b4; fill-opacity: 0.6; stroke: #1f77b4; stroke-opacity: 0.6"/>
     <use xlink:href="#m0f68265d20" x="292.89985" y="134.950852" style="fill: #1f77b4; fill-opacity: 0.6; stroke: #1f77b4; stroke-opacity: 0.6"/>
     <use xlink:href="#m0f68265d20" x="267.964242" y="207.321202" style="fill: #1f77b4; fill-opacity: 0.6; stroke: #1f77b4; stroke-opacity: 0.6"/>
     <use xlink:href="#m0f68265d20" x="367.561489" y="35.569034" style="fill: #1f77b4; fill-opacity: 0.6; stroke: #1f77b4; stroke-opacity: 0.6"/>
     <use xlink:href="#m0f68265d20" x="317.726569" y="173.174628" style="fill: #1f77b4; fill-opacity: 0.6; stroke: #1f77b4; stroke-opacity: 0.6"/>
     <use xlink:href="#m0f68265d20" x="108.47798" y="138.008754" style="fill: #1f77b4; fill-opacity: 0.6; stroke: #1f77b4; stroke-opacity: 0.6"/>
     <use xlink:href="#m0f68265d20" x="297.654675" y="196.108894" style="fill: #1f77b4; fill-opacity: 0.6; stroke: #1f77b4; stroke-opacity: 0.6"/>
     <use xlink:href="#m0f68265d20" x="402.115636" y="152.278964" style="fill: #1f77b4; fill-opacity: 0.6; stroke: #1f77b4; stroke-opacity: 0.6"/>
     <use xlink:href="#m0f68265d20" x="165.209211" y="174.193929" style="fill: #1f77b4; fill-opacity: 0.6; stroke: #1f77b4; stroke-opacity: 0.6"/>
     <use xlink:href="#m0f68265d20" x="174.573675" y="173.174628" style="fill: #1f77b4; fill-opacity: 0.6; stroke: #1f77b4; stroke-opacity: 0.6"/>
     <use xlink:href="#m0f68265d20" x="194.572976" y="66.657705" style="fill: #1f77b4; fill-opacity: 0.6; stroke: #1f77b4; stroke-opacity: 0.6"/>
     <use xlink:href="#m0f68265d20" x="261.249413" y="164.510573" style="fill: #1f77b4; fill-opacity: 0.6; stroke: #1f77b4; stroke-opacity: 0.6"/>
     <use xlink:href="#m0f68265d20" x="371.590387" y="230.255468" style="fill: #1f77b4; fill-opacity: 0.6; stroke: #1f77b4; stroke-opacity: 0.6"/>
     <use xlink:href="#m0f68265d20" x="160.3092" y="169.607076" style="fill: #1f77b4; fill-opacity: 0.6; stroke: #1f77b4; stroke-opacity: 0.6"/>
     <use xlink:href="#m0f68265d20" x="264.624976" y="154.827216" style="fill: #1f77b4; fill-opacity: 0.6; stroke: #1f77b4; stroke-opacity: 0.6"/>
     <use xlink:href="#m0f68265d20" x="93.632763" y="120.680642" style="fill: #1f77b4; fill-opacity: 0.6; stroke: #1f77b4; stroke-opacity: 0.6"/>
     <use xlink:href="#m0f68265d20" x="179.909242" y="145.65351" style="fill: #1f77b4; fill-opacity: 0.6; stroke: #1f77b4; stroke-opacity: 0.6"/>
     <use xlink:href="#m0f68265d20" x="339.722171" y="104.371831" style="fill: #1f77b4; fill-opacity: 0.6; stroke: #1f77b4; stroke-opacity: 0.6"/>
     <use xlink:href="#m0f68265d20" x="204.990035" y="136.989454" style="fill: #1f77b4; fill-opacity: 0.6; stroke: #1f77b4; stroke-opacity: 0.6"/>
     <use xlink:href="#m0f68265d20" x="314.968045" y="300.587216" style="fill: #1f77b4; fill-opacity: 0.6; stroke: #1f77b4; stroke-opacity: 0.6"/>
     <use xlink:href="#m0f68265d20" x="101.617965" y="157.885118" style="fill: #1f77b4; fill-opacity: 0.6; stroke: #1f77b4; stroke-opacity: 0.6"/>
     <use xlink:href="#m0f68265d20" x="342.408103" y="79.398964" style="fill: #1f77b4; fill-opacity: 0.6; stroke: #1f77b4; stroke-opacity: 0.6"/>
     <use xlink:href="#m0f68265d20" x="351.954049" y="252.170433" style="fill: #1f77b4; fill-opacity: 0.6; stroke: #1f77b4; stroke-opacity: 0.6"/>
     <use xlink:href="#m0f68265d20" x="97.37129" y="192.031691" style="fill: #1f77b4; fill-opacity: 0.6; stroke: #1f77b4; stroke-opacity: 0.6"/>
     <use xlink:href="#m0f68265d20" x="241.86715" y="124.248195" style="fill: #1f77b4; fill-opacity: 0.6; stroke: #1f77b4; stroke-opacity: 0.6"/>
     <use xlink:href="#m0f68265d20" x="327.12733" y="117.11309" style="fill: #1f77b4; fill-opacity: 0.6; stroke: #1f77b4; stroke-opacity: 0.6"/>
     <use xlink:href="#m0f68265d20" x="67.826042" y="161.45267" style="fill: #1f77b4; fill-opacity: 0.6; stroke: #1f77b4; stroke-opacity: 0.6"/>
     <use xlink:href="#m0f68265d20" x="263.790159" y="213.946656" style="fill: #1f77b4; fill-opacity: 0.6; stroke: #1f77b4; stroke-opacity: 0.6"/>
     <use xlink:href="#m0f68265d20" x="256.349403" y="112.016587" style="fill: #1f77b4; fill-opacity: 0.6; stroke: #1f77b4; stroke-opacity: 0.6"/>
     <use xlink:href="#m0f68265d20" x="279.361303" y="178.271132" style="fill: #1f77b4; fill-opacity: 0.6; stroke: #1f77b4; stroke-opacity: 0.6"/>
     <use xlink:href="#m0f68265d20" x="177.985534" y="117.62274" style="fill: #1f77b4; fill-opacity: 0.6; stroke: #1f77b4; stroke-opacity: 0.6"/>
     <use xlink:href="#m0f68265d20" x="178.167016" y="228.726517" style="fill: #1f77b4; fill-opacity: 0.6; stroke: #1f77b4; stroke-opacity: 0.6"/>
     <use xlink:href="#m0f68265d20" x="392.025245" y="112.016587" style="fill: #1f77b4; fill-opacity: 0.6; stroke: #1f77b4; stroke-opacity: 0.6"/>
     <use xlink:href="#m0f68265d20" x="361.463699" y="97.746377" style="fill: #1f77b4; fill-opacity: 0.6; stroke: #1f77b4; stroke-opacity: 0.6"/>
     <use xlink:href="#m0f68265d20" x="359.866658" y="89.082321" style="fill: #1f77b4; fill-opacity: 0.6; stroke: #1f77b4; stroke-opacity: 0.6"/>
     <use xlink:href="#m0f68265d20" x="102.815746" y="176.742181" style="fill: #1f77b4; fill-opacity: 0.6; stroke: #1f77b4; stroke-opacity: 0.6"/>
     <use xlink:href="#m0f68265d20" x="394.420805" y="208.850153" style="fill: #1f77b4; fill-opacity: 0.6; stroke: #1f77b4; stroke-opacity: 0.6"/>
    </g>
   </g>
   <g id="matplotlib.axis_1">
    <g id="xtick_1">
     <g id="line2d_1">
      <path d="M 119.947634 313.838125 
L 119.947634 22.318125 
" clip-path="url(#pe144644929)" style="fill: none; stroke: #b0b0b0; stroke-opacity: 0.3; stroke-width: 0.8; stroke-linecap: square"/>
     </g>
     <g id="line2d_2">
      <defs>
       <path id="mc5bc809aa8" d="M 0 0 
L 0 3.5 
" style="stroke: #000000; stroke-width: 0.8"/>
      </defs>
      <g>
       <use xlink:href="#mc5bc809aa8" x="119.947634" y="313.838125" style="stroke: #000000; stroke-width: 0.8"/>
      </g>
     </g>
     <g id="text_1">
      <!-- 2000 -->
      <g transform="translate(107.222634 328.436563) scale(0.1 -0.1)">
       <defs>
        <path id="DejaVuSans-32" d="M 1228 531 
L 3431 531 
L 3431 0 
L 469 0 
L 469 531 
Q 828 903 1448 1529 
Q 2069 2156 2228 2338 
Q 2531 2678 2651 2914 
Q 2772 3150 2772 3378 
Q 2772 3750 2511 3984 
Q 2250 4219 1831 4219 
Q 1534 4219 1204 4116 
Q 875 4013 500 3803 
L 500 4441 
Q 881 4594 1212 4672 
Q 1544 4750 1819 4750 
Q 2544 4750 2975 4387 
Q 3406 4025 3406 3419 
Q 3406 3131 3298 2873 
Q 3191 2616 2906 2266 
Q 2828 2175 2409 1742 
Q 1991 1309 1228 531 
z
" transform="scale(0.015625)"/>
        <path id="DejaVuSans-30" d="M 2034 4250 
Q 1547 4250 1301 3770 
Q 1056 3291 1056 2328 
Q 1056 1369 1301 889 
Q 1547 409 2034 409 
Q 2525 409 2770 889 
Q 3016 1369 3016 2328 
Q 3016 3291 2770 3770 
Q 2525 4250 2034 4250 
z
M 2034 4750 
Q 2819 4750 3233 4129 
Q 3647 3509 3647 2328 
Q 3647 1150 3233 529 
Q 2819 -91 2034 -91 
Q 1250 -91 836 529 
Q 422 1150 422 2328 
Q 422 3509 836 4129 
Q 1250 4750 2034 4750 
z
" transform="scale(0.015625)"/>
       </defs>
       <use xlink:href="#DejaVuSans-32"/>
       <use xlink:href="#DejaVuSans-30" transform="translate(63.623047 0)"/>
       <use xlink:href="#DejaVuSans-30" transform="translate(127.246094 0)"/>
       <use xlink:href="#DejaVuSans-30" transform="translate(190.869141 0)"/>
      </g>
     </g>
    </g>
    <g id="xtick_2">
     <g id="line2d_3">
      <path d="M 192.540379 313.838125 
L 192.540379 22.318125 
" clip-path="url(#pe144644929)" style="fill: none; stroke: #b0b0b0; stroke-opacity: 0.3; stroke-width: 0.8; stroke-linecap: square"/>
     </g>
     <g id="line2d_4">
      <g>
       <use xlink:href="#mc5bc809aa8" x="192.540379" y="313.838125" style="stroke: #000000; stroke-width: 0.8"/>
      </g>
     </g>
     <g id="text_2">
      <!-- 4000 -->
      <g transform="translate(179.815379 328.436563) scale(0.1 -0.1)">
       <defs>
        <path id="DejaVuSans-34" d="M 2419 4116 
L 825 1625 
L 2419 1625 
L 2419 4116 
z
M 2253 4666 
L 3047 4666 
L 3047 1625 
L 3713 1625 
L 3713 1100 
L 3047 1100 
L 3047 0 
L 2419 0 
L 2419 1100 
L 313 1100 
L 313 1709 
L 2253 4666 
z
" transform="scale(0.015625)"/>
       </defs>
       <use xlink:href="#DejaVuSans-34"/>
       <use xlink:href="#DejaVuSans-30" transform="translate(63.623047 0)"/>
       <use xlink:href="#DejaVuSans-30" transform="translate(127.246094 0)"/>
       <use xlink:href="#DejaVuSans-30" transform="translate(190.869141 0)"/>
      </g>
     </g>
    </g>
    <g id="xtick_3">
     <g id="line2d_5">
      <path d="M 265.133125 313.838125 
L 265.133125 22.318125 
" clip-path="url(#pe144644929)" style="fill: none; stroke: #b0b0b0; stroke-opacity: 0.3; stroke-width: 0.8; stroke-linecap: square"/>
     </g>
     <g id="line2d_6">
      <g>
       <use xlink:href="#mc5bc809aa8" x="265.133125" y="313.838125" style="stroke: #000000; stroke-width: 0.8"/>
      </g>
     </g>
     <g id="text_3">
      <!-- 6000 -->
      <g transform="translate(252.408125 328.436563) scale(0.1 -0.1)">
       <defs>
        <path id="DejaVuSans-36" d="M 2113 2584 
Q 1688 2584 1439 2293 
Q 1191 2003 1191 1497 
Q 1191 994 1439 701 
Q 1688 409 2113 409 
Q 2538 409 2786 701 
Q 3034 994 3034 1497 
Q 3034 2003 2786 2293 
Q 2538 2584 2113 2584 
z
M 3366 4563 
L 3366 3988 
Q 3128 4100 2886 4159 
Q 2644 4219 2406 4219 
Q 1781 4219 1451 3797 
Q 1122 3375 1075 2522 
Q 1259 2794 1537 2939 
Q 1816 3084 2150 3084 
Q 2853 3084 3261 2657 
Q 3669 2231 3669 1497 
Q 3669 778 3244 343 
Q 2819 -91 2113 -91 
Q 1303 -91 875 529 
Q 447 1150 447 2328 
Q 447 3434 972 4092 
Q 1497 4750 2381 4750 
Q 2619 4750 2861 4703 
Q 3103 4656 3366 4563 
z
" transform="scale(0.015625)"/>
       </defs>
       <use xlink:href="#DejaVuSans-36"/>
       <use xlink:href="#DejaVuSans-30" transform="translate(63.623047 0)"/>
       <use xlink:href="#DejaVuSans-30" transform="translate(127.246094 0)"/>
       <use xlink:href="#DejaVuSans-30" transform="translate(190.869141 0)"/>
      </g>
     </g>
    </g>
    <g id="xtick_4">
     <g id="line2d_7">
      <path d="M 337.725871 313.838125 
L 337.725871 22.318125 
" clip-path="url(#pe144644929)" style="fill: none; stroke: #b0b0b0; stroke-opacity: 0.3; stroke-width: 0.8; stroke-linecap: square"/>
     </g>
     <g id="line2d_8">
      <g>
       <use xlink:href="#mc5bc809aa8" x="337.725871" y="313.838125" style="stroke: #000000; stroke-width: 0.8"/>
      </g>
     </g>
     <g id="text_4">
      <!-- 8000 -->
      <g transform="translate(325.000871 328.436563) scale(0.1 -0.1)">
       <defs>
        <path id="DejaVuSans-38" d="M 2034 2216 
Q 1584 2216 1326 1975 
Q 1069 1734 1069 1313 
Q 1069 891 1326 650 
Q 1584 409 2034 409 
Q 2484 409 2743 651 
Q 3003 894 3003 1313 
Q 3003 1734 2745 1975 
Q 2488 2216 2034 2216 
z
M 1403 2484 
Q 997 2584 770 2862 
Q 544 3141 544 3541 
Q 544 4100 942 4425 
Q 1341 4750 2034 4750 
Q 2731 4750 3128 4425 
Q 3525 4100 3525 3541 
Q 3525 3141 3298 2862 
Q 3072 2584 2669 2484 
Q 3125 2378 3379 2068 
Q 3634 1759 3634 1313 
Q 3634 634 3220 271 
Q 2806 -91 2034 -91 
Q 1263 -91 848 271 
Q 434 634 434 1313 
Q 434 1759 690 2068 
Q 947 2378 1403 2484 
z
M 1172 3481 
Q 1172 3119 1398 2916 
Q 1625 2713 2034 2713 
Q 2441 2713 2670 2916 
Q 2900 3119 2900 3481 
Q 2900 3844 2670 4047 
Q 2441 4250 2034 4250 
Q 1625 4250 1398 4047 
Q 1172 3844 1172 3481 
z
" transform="scale(0.015625)"/>
       </defs>
       <use xlink:href="#DejaVuSans-38"/>
       <use xlink:href="#DejaVuSans-30" transform="translate(63.623047 0)"/>
       <use xlink:href="#DejaVuSans-30" transform="translate(127.246094 0)"/>
       <use xlink:href="#DejaVuSans-30" transform="translate(190.869141 0)"/>
      </g>
     </g>
    </g>
    <g id="xtick_5">
     <g id="line2d_9">
      <path d="M 410.318617 313.838125 
L 410.318617 22.318125 
" clip-path="url(#pe144644929)" style="fill: none; stroke: #b0b0b0; stroke-opacity: 0.3; stroke-width: 0.8; stroke-linecap: square"/>
     </g>
     <g id="line2d_10">
      <g>
       <use xlink:href="#mc5bc809aa8" x="410.318617" y="313.838125" style="stroke: #000000; stroke-width: 0.8"/>
      </g>
     </g>
     <g id="text_5">
      <!-- 10000 -->
      <g transform="translate(394.412367 328.436563) scale(0.1 -0.1)">
       <defs>
        <path id="DejaVuSans-31" d="M 794 531 
L 1825 531 
L 1825 4091 
L 703 3866 
L 703 4441 
L 1819 4666 
L 2450 4666 
L 2450 531 
L 3481 531 
L 3481 0 
L 794 0 
L 794 531 
z
" transform="scale(0.015625)"/>
       </defs>
       <use xlink:href="#DejaVuSans-31"/>
       <use xlink:href="#DejaVuSans-30" transform="translate(63.623047 0)"/>
       <use xlink:href="#DejaVuSans-30" transform="translate(127.246094 0)"/>
       <use xlink:href="#DejaVuSans-30" transform="translate(190.869141 0)"/>
       <use xlink:href="#DejaVuSans-30" transform="translate(254.492188 0)"/>
      </g>
     </g>
    </g>
    <g id="text_6">
     <!-- CDS Length (bp) -->
     <g transform="translate(189.661152 342.874531) scale(0.11 -0.11)">
      <defs>
       <path id="DejaVuSans-43" d="M 4122 4306 
L 4122 3641 
Q 3803 3938 3442 4084 
Q 3081 4231 2675 4231 
Q 1875 4231 1450 3742 
Q 1025 3253 1025 2328 
Q 1025 1406 1450 917 
Q 1875 428 2675 428 
Q 3081 428 3442 575 
Q 3803 722 4122 1019 
L 4122 359 
Q 3791 134 3420 21 
Q 3050 -91 2638 -91 
Q 1578 -91 968 557 
Q 359 1206 359 2328 
Q 359 3453 968 4101 
Q 1578 4750 2638 4750 
Q 3056 4750 3426 4639 
Q 3797 4528 4122 4306 
z
" transform="scale(0.015625)"/>
       <path id="DejaVuSans-44" d="M 1259 4147 
L 1259 519 
L 2022 519 
Q 2988 519 3436 956 
Q 3884 1394 3884 2338 
Q 3884 3275 3436 3711 
Q 2988 4147 2022 4147 
L 1259 4147 
z
M 628 4666 
L 1925 4666 
Q 3281 4666 3915 4102 
Q 4550 3538 4550 2338 
Q 4550 1131 3912 565 
Q 3275 0 1925 0 
L 628 0 
L 628 4666 
z
" transform="scale(0.015625)"/>
       <path id="DejaVuSans-53" d="M 3425 4513 
L 3425 3897 
Q 3066 4069 2747 4153 
Q 2428 4238 2131 4238 
Q 1616 4238 1336 4038 
Q 1056 3838 1056 3469 
Q 1056 3159 1242 3001 
Q 1428 2844 1947 2747 
L 2328 2669 
Q 3034 2534 3370 2195 
Q 3706 1856 3706 1288 
Q 3706 609 3251 259 
Q 2797 -91 1919 -91 
Q 1588 -91 1214 -16 
Q 841 59 441 206 
L 441 856 
Q 825 641 1194 531 
Q 1563 422 1919 422 
Q 2459 422 2753 634 
Q 3047 847 3047 1241 
Q 3047 1584 2836 1778 
Q 2625 1972 2144 2069 
L 1759 2144 
Q 1053 2284 737 2584 
Q 422 2884 422 3419 
Q 422 4038 858 4394 
Q 1294 4750 2059 4750 
Q 2388 4750 2728 4690 
Q 3069 4631 3425 4513 
z
" transform="scale(0.015625)"/>
       <path id="DejaVuSans-20" transform="scale(0.015625)"/>
       <path id="DejaVuSans-4c" d="M 628 4666 
L 1259 4666 
L 1259 531 
L 3531 531 
L 3531 0 
L 628 0 
L 628 4666 
z
" transform="scale(0.015625)"/>
       <path id="DejaVuSans-65" d="M 3597 1894 
L 3597 1613 
L 953 1613 
Q 991 1019 1311 708 
Q 1631 397 2203 397 
Q 2534 397 2845 478 
Q 3156 559 3463 722 
L 3463 178 
Q 3153 47 2828 -22 
Q 2503 -91 2169 -91 
Q 1331 -91 842 396 
Q 353 884 353 1716 
Q 353 2575 817 3079 
Q 1281 3584 2069 3584 
Q 2775 3584 3186 3129 
Q 3597 2675 3597 1894 
z
M 3022 2063 
Q 3016 2534 2758 2815 
Q 2500 3097 2075 3097 
Q 1594 3097 1305 2825 
Q 1016 2553 972 2059 
L 3022 2063 
z
" transform="scale(0.015625)"/>
       <path id="DejaVuSans-6e" d="M 3513 2113 
L 3513 0 
L 2938 0 
L 2938 2094 
Q 2938 2591 2744 2837 
Q 2550 3084 2163 3084 
Q 1697 3084 1428 2787 
Q 1159 2491 1159 1978 
L 1159 0 
L 581 0 
L 581 3500 
L 1159 3500 
L 1159 2956 
Q 1366 3272 1645 3428 
Q 1925 3584 2291 3584 
Q 2894 3584 3203 3211 
Q 3513 2838 3513 2113 
z
" transform="scale(0.015625)"/>
       <path id="DejaVuSans-67" d="M 2906 1791 
Q 2906 2416 2648 2759 
Q 2391 3103 1925 3103 
Q 1463 3103 1205 2759 
Q 947 2416 947 1791 
Q 947 1169 1205 825 
Q 1463 481 1925 481 
Q 2391 481 2648 825 
Q 2906 1169 2906 1791 
z
M 3481 434 
Q 3481 -459 3084 -895 
Q 2688 -1331 1869 -1331 
Q 1566 -1331 1297 -1286 
Q 1028 -1241 775 -1147 
L 775 -588 
Q 1028 -725 1275 -790 
Q 1522 -856 1778 -856 
Q 2344 -856 2625 -561 
Q 2906 -266 2906 331 
L 2906 616 
Q 2728 306 2450 153 
Q 2172 0 1784 0 
Q 1141 0 747 490 
Q 353 981 353 1791 
Q 353 2603 747 3093 
Q 1141 3584 1784 3584 
Q 2172 3584 2450 3431 
Q 2728 3278 2906 2969 
L 2906 3500 
L 3481 3500 
L 3481 434 
z
" transform="scale(0.015625)"/>
       <path id="DejaVuSans-74" d="M 1172 4494 
L 1172 3500 
L 2356 3500 
L 2356 3053 
L 1172 3053 
L 1172 1153 
Q 1172 725 1289 603 
Q 1406 481 1766 481 
L 2356 481 
L 2356 0 
L 1766 0 
Q 1100 0 847 248 
Q 594 497 594 1153 
L 594 3053 
L 172 3053 
L 172 3500 
L 594 3500 
L 594 4494 
L 1172 4494 
z
" transform="scale(0.015625)"/>
       <path id="DejaVuSans-68" d="M 3513 2113 
L 3513 0 
L 2938 0 
L 2938 2094 
Q 2938 2591 2744 2837 
Q 2550 3084 2163 3084 
Q 1697 3084 1428 2787 
Q 1159 2491 1159 1978 
L 1159 0 
L 581 0 
L 581 4863 
L 1159 4863 
L 1159 2956 
Q 1366 3272 1645 3428 
Q 1925 3584 2291 3584 
Q 2894 3584 3203 3211 
Q 3513 2838 3513 2113 
z
" transform="scale(0.015625)"/>
       <path id="DejaVuSans-28" d="M 1984 4856 
Q 1566 4138 1362 3434 
Q 1159 2731 1159 2009 
Q 1159 1288 1364 580 
Q 1569 -128 1984 -844 
L 1484 -844 
Q 1016 -109 783 600 
Q 550 1309 550 2009 
Q 550 2706 781 3412 
Q 1013 4119 1484 4856 
L 1984 4856 
z
" transform="scale(0.015625)"/>
       <path id="DejaVuSans-62" d="M 3116 1747 
Q 3116 2381 2855 2742 
Q 2594 3103 2138 3103 
Q 1681 3103 1420 2742 
Q 1159 2381 1159 1747 
Q 1159 1113 1420 752 
Q 1681 391 2138 391 
Q 2594 391 2855 752 
Q 3116 1113 3116 1747 
z
M 1159 2969 
Q 1341 3281 1617 3432 
Q 1894 3584 2278 3584 
Q 2916 3584 3314 3078 
Q 3713 2572 3713 1747 
Q 3713 922 3314 415 
Q 2916 -91 2278 -91 
Q 1894 -91 1617 61 
Q 1341 213 1159 525 
L 1159 0 
L 581 0 
L 581 4863 
L 1159 4863 
L 1159 2969 
z
" transform="scale(0.015625)"/>
       <path id="DejaVuSans-70" d="M 1159 525 
L 1159 -1331 
L 581 -1331 
L 581 3500 
L 1159 3500 
L 1159 2969 
Q 1341 3281 1617 3432 
Q 1894 3584 2278 3584 
Q 2916 3584 3314 3078 
Q 3713 2572 3713 1747 
Q 3713 922 3314 415 
Q 2916 -91 2278 -91 
Q 1894 -91 1617 61 
Q 1341 213 1159 525 
z
M 3116 1747 
Q 3116 2381 2855 2742 
Q 2594 3103 2138 3103 
Q 1681 3103 1420 2742 
Q 1159 2381 1159 1747 
Q 1159 1113 1420 752 
Q 1681 391 2138 391 
Q 2594 391 2855 752 
Q 3116 1113 3116 1747 
z
" transform="scale(0.015625)"/>
       <path id="DejaVuSans-29" d="M 513 4856 
L 1013 4856 
Q 1481 4119 1714 3412 
Q 1947 2706 1947 2009 
Q 1947 1309 1714 600 
Q 1481 -109 1013 -844 
L 513 -844 
Q 928 -128 1133 580 
Q 1338 1288 1338 2009 
Q 1338 2731 1133 3434 
Q 928 4138 513 4856 
z
" transform="scale(0.015625)"/>
      </defs>
      <use xlink:href="#DejaVuSans-43"/>
      <use xlink:href="#DejaVuSans-44" transform="translate(69.824219 0)"/>
      <use xlink:href="#DejaVuSans-53" transform="translate(146.826172 0)"/>
      <use xlink:href="#DejaVuSans-20" transform="translate(210.302734 0)"/>
      <use xlink:href="#DejaVuSans-4c" transform="translate(242.089844 0)"/>
      <use xlink:href="#DejaVuSans-65" transform="translate(296.052734 0)"/>
      <use xlink:href="#DejaVuSans-6e" transform="translate(357.576172 0)"/>
      <use xlink:href="#DejaVuSans-67" transform="translate(420.955078 0)"/>
      <use xlink:href="#DejaVuSans-74" transform="translate(484.431641 0)"/>
      <use xlink:href="#DejaVuSans-68" transform="translate(523.640625 0)"/>
      <use xlink:href="#DejaVuSans-20" transform="translate(587.019531 0)"/>
      <use xlink:href="#DejaVuSans-28" transform="translate(618.806641 0)"/>
      <use xlink:href="#DejaVuSans-62" transform="translate(657.820312 0)"/>
      <use xlink:href="#DejaVuSans-70" transform="translate(721.296875 0)"/>
      <use xlink:href="#DejaVuSans-29" transform="translate(784.773438 0)"/>
     </g>
    </g>
   </g>
   <g id="matplotlib.axis_2">
    <g id="ytick_1">
     <g id="line2d_11">
      <path d="M 51.111563 276.123999 
L 418.830116 276.123999 
" clip-path="url(#pe144644929)" style="fill: none; stroke: #b0b0b0; stroke-opacity: 0.3; stroke-width: 0.8; stroke-linecap: square"/>
     </g>
     <g id="line2d_12">
      <defs>
       <path id="m35e26086ce" d="M 0 0 
L -3.5 0 
" style="stroke: #000000; stroke-width: 0.8"/>
      </defs>
      <g>
       <use xlink:href="#m35e26086ce" x="51.111563" y="276.123999" style="stroke: #000000; stroke-width: 0.8"/>
      </g>
     </g>
     <g id="text_7">
      <!-- 0.38 -->
      <g transform="translate(21.845938 279.923218) scale(0.1 -0.1)">
       <defs>
        <path id="DejaVuSans-2e" d="M 684 794 
L 1344 794 
L 1344 0 
L 684 0 
L 684 794 
z
" transform="scale(0.015625)"/>
        <path id="DejaVuSans-33" d="M 2597 2516 
Q 3050 2419 3304 2112 
Q 3559 1806 3559 1356 
Q 3559 666 3084 287 
Q 2609 -91 1734 -91 
Q 1441 -91 1130 -33 
Q 819 25 488 141 
L 488 750 
Q 750 597 1062 519 
Q 1375 441 1716 441 
Q 2309 441 2620 675 
Q 2931 909 2931 1356 
Q 2931 1769 2642 2001 
Q 2353 2234 1838 2234 
L 1294 2234 
L 1294 2753 
L 1863 2753 
Q 2328 2753 2575 2939 
Q 2822 3125 2822 3475 
Q 2822 3834 2567 4026 
Q 2313 4219 1838 4219 
Q 1578 4219 1281 4162 
Q 984 4106 628 3988 
L 628 4550 
Q 988 4650 1302 4700 
Q 1616 4750 1894 4750 
Q 2613 4750 3031 4423 
Q 3450 4097 3450 3541 
Q 3450 3153 3228 2886 
Q 3006 2619 2597 2516 
z
" transform="scale(0.015625)"/>
       </defs>
       <use xlink:href="#DejaVuSans-30"/>
       <use xlink:href="#DejaVuSans-2e" transform="translate(63.623047 0)"/>
       <use xlink:href="#DejaVuSans-33" transform="translate(95.410156 0)"/>
       <use xlink:href="#DejaVuSans-38" transform="translate(159.033203 0)"/>
      </g>
     </g>
    </g>
    <g id="ytick_2">
     <g id="line2d_13">
      <path d="M 51.111563 235.351971 
L 418.830116 235.351971 
" clip-path="url(#pe144644929)" style="fill: none; stroke: #b0b0b0; stroke-opacity: 0.3; stroke-width: 0.8; stroke-linecap: square"/>
     </g>
     <g id="line2d_14">
      <g>
       <use xlink:href="#m35e26086ce" x="51.111563" y="235.351971" style="stroke: #000000; stroke-width: 0.8"/>
      </g>
     </g>
     <g id="text_8">
      <!-- 0.39 -->
      <g transform="translate(21.845938 239.15119) scale(0.1 -0.1)">
       <defs>
        <path id="DejaVuSans-39" d="M 703 97 
L 703 672 
Q 941 559 1184 500 
Q 1428 441 1663 441 
Q 2288 441 2617 861 
Q 2947 1281 2994 2138 
Q 2813 1869 2534 1725 
Q 2256 1581 1919 1581 
Q 1219 1581 811 2004 
Q 403 2428 403 3163 
Q 403 3881 828 4315 
Q 1253 4750 1959 4750 
Q 2769 4750 3195 4129 
Q 3622 3509 3622 2328 
Q 3622 1225 3098 567 
Q 2575 -91 1691 -91 
Q 1453 -91 1209 -44 
Q 966 3 703 97 
z
M 1959 2075 
Q 2384 2075 2632 2365 
Q 2881 2656 2881 3163 
Q 2881 3666 2632 3958 
Q 2384 4250 1959 4250 
Q 1534 4250 1286 3958 
Q 1038 3666 1038 3163 
Q 1038 2656 1286 2365 
Q 1534 2075 1959 2075 
z
" transform="scale(0.015625)"/>
       </defs>
       <use xlink:href="#DejaVuSans-30"/>
       <use xlink:href="#DejaVuSans-2e" transform="translate(63.623047 0)"/>
       <use xlink:href="#DejaVuSans-33" transform="translate(95.410156 0)"/>
       <use xlink:href="#DejaVuSans-39" transform="translate(159.033203 0)"/>
      </g>
     </g>
    </g>
    <g id="ytick_3">
     <g id="line2d_15">
      <path d="M 51.111563 194.579943 
L 418.830116 194.579943 
" clip-path="url(#pe144644929)" style="fill: none; stroke: #b0b0b0; stroke-opacity: 0.3; stroke-width: 0.8; stroke-linecap: square"/>
     </g>
     <g id="line2d_16">
      <g>
       <use xlink:href="#m35e26086ce" x="51.111563" y="194.579943" style="stroke: #000000; stroke-width: 0.8"/>
      </g>
     </g>
     <g id="text_9">
      <!-- 0.40 -->
      <g transform="translate(21.845938 198.379162) scale(0.1 -0.1)">
       <use xlink:href="#DejaVuSans-30"/>
       <use xlink:href="#DejaVuSans-2e" transform="translate(63.623047 0)"/>
       <use xlink:href="#DejaVuSans-34" transform="translate(95.410156 0)"/>
       <use xlink:href="#DejaVuSans-30" transform="translate(159.033203 0)"/>
      </g>
     </g>
    </g>
    <g id="ytick_4">
     <g id="line2d_17">
      <path d="M 51.111563 153.807915 
L 418.830116 153.807915 
" clip-path="url(#pe144644929)" style="fill: none; stroke: #b0b0b0; stroke-opacity: 0.3; stroke-width: 0.8; stroke-linecap: square"/>
     </g>
     <g id="line2d_18">
      <g>
       <use xlink:href="#m35e26086ce" x="51.111563" y="153.807915" style="stroke: #000000; stroke-width: 0.8"/>
      </g>
     </g>
     <g id="text_10">
      <!-- 0.41 -->
      <g transform="translate(21.845938 157.607134) scale(0.1 -0.1)">
       <use xlink:href="#DejaVuSans-30"/>
       <use xlink:href="#DejaVuSans-2e" transform="translate(63.623047 0)"/>
       <use xlink:href="#DejaVuSans-34" transform="translate(95.410156 0)"/>
       <use xlink:href="#DejaVuSans-31" transform="translate(159.033203 0)"/>
      </g>
     </g>
    </g>
    <g id="ytick_5">
     <g id="line2d_19">
      <path d="M 51.111563 113.035887 
L 418.830116 113.035887 
" clip-path="url(#pe144644929)" style="fill: none; stroke: #b0b0b0; stroke-opacity: 0.3; stroke-width: 0.8; stroke-linecap: square"/>
     </g>
     <g id="line2d_20">
      <g>
       <use xlink:href="#m35e26086ce" x="51.111563" y="113.035887" style="stroke: #000000; stroke-width: 0.8"/>
      </g>
     </g>
     <g id="text_11">
      <!-- 0.42 -->
      <g transform="translate(21.845938 116.835106) scale(0.1 -0.1)">
       <use xlink:href="#DejaVuSans-30"/>
       <use xlink:href="#DejaVuSans-2e" transform="translate(63.623047 0)"/>
       <use xlink:href="#DejaVuSans-34" transform="translate(95.410156 0)"/>
       <use xlink:href="#DejaVuSans-32" transform="translate(159.033203 0)"/>
      </g>
     </g>
    </g>
    <g id="ytick_6">
     <g id="line2d_21">
      <path d="M 51.111563 72.263859 
L 418.830116 72.263859 
" clip-path="url(#pe144644929)" style="fill: none; stroke: #b0b0b0; stroke-opacity: 0.3; stroke-width: 0.8; stroke-linecap: square"/>
     </g>
     <g id="line2d_22">
      <g>
       <use xlink:href="#m35e26086ce" x="51.111563" y="72.263859" style="stroke: #000000; stroke-width: 0.8"/>
      </g>
     </g>
     <g id="text_12">
      <!-- 0.43 -->
      <g transform="translate(21.845938 76.063078) scale(0.1 -0.1)">
       <use xlink:href="#DejaVuSans-30"/>
       <use xlink:href="#DejaVuSans-2e" transform="translate(63.623047 0)"/>
       <use xlink:href="#DejaVuSans-34" transform="translate(95.410156 0)"/>
       <use xlink:href="#DejaVuSans-33" transform="translate(159.033203 0)"/>
      </g>
     </g>
    </g>
    <g id="ytick_7">
     <g id="line2d_23">
      <path d="M 51.111563 31.491831 
L 418.830116 31.491831 
" clip-path="url(#pe144644929)" style="fill: none; stroke: #b0b0b0; stroke-opacity: 0.3; stroke-width: 0.8; stroke-linecap: square"/>
     </g>
     <g id="line2d_24">
      <g>
       <use xlink:href="#m35e26086ce" x="51.111563" y="31.491831" style="stroke: #000000; stroke-width: 0.8"/>
      </g>
     </g>
     <g id="text_13">
      <!-- 0.44 -->
      <g transform="translate(21.845938 35.29105) scale(0.1 -0.1)">
       <use xlink:href="#DejaVuSans-30"/>
       <use xlink:href="#DejaVuSans-2e" transform="translate(63.623047 0)"/>
       <use xlink:href="#DejaVuSans-34" transform="translate(95.410156 0)"/>
       <use xlink:href="#DejaVuSans-34" transform="translate(159.033203 0)"/>
      </g>
     </g>
    </g>
    <g id="text_14">
     <!-- Target-Lock Score -->
     <g transform="translate(15.558281 216.774609) rotate(-90) scale(0.11 -0.11)">
      <defs>
       <path id="DejaVuSans-54" d="M -19 4666 
L 3928 4666 
L 3928 4134 
L 2272 4134 
L 2272 0 
L 1638 0 
L 1638 4134 
L -19 4134 
L -19 4666 
z
" transform="scale(0.015625)"/>
       <path id="DejaVuSans-61" d="M 2194 1759 
Q 1497 1759 1228 1600 
Q 959 1441 959 1056 
Q 959 750 1161 570 
Q 1363 391 1709 391 
Q 2188 391 2477 730 
Q 2766 1069 2766 1631 
L 2766 1759 
L 2194 1759 
z
M 3341 1997 
L 3341 0 
L 2766 0 
L 2766 531 
Q 2569 213 2275 61 
Q 1981 -91 1556 -91 
Q 1019 -91 701 211 
Q 384 513 384 1019 
Q 384 1609 779 1909 
Q 1175 2209 1959 2209 
L 2766 2209 
L 2766 2266 
Q 2766 2663 2505 2880 
Q 2244 3097 1772 3097 
Q 1472 3097 1187 3025 
Q 903 2953 641 2809 
L 641 3341 
Q 956 3463 1253 3523 
Q 1550 3584 1831 3584 
Q 2591 3584 2966 3190 
Q 3341 2797 3341 1997 
z
" transform="scale(0.015625)"/>
       <path id="DejaVuSans-72" d="M 2631 2963 
Q 2534 3019 2420 3045 
Q 2306 3072 2169 3072 
Q 1681 3072 1420 2755 
Q 1159 2438 1159 1844 
L 1159 0 
L 581 0 
L 581 3500 
L 1159 3500 
L 1159 2956 
Q 1341 3275 1631 3429 
Q 1922 3584 2338 3584 
Q 2397 3584 2469 3576 
Q 2541 3569 2628 3553 
L 2631 2963 
z
" transform="scale(0.015625)"/>
       <path id="DejaVuSans-2d" d="M 313 2009 
L 1997 2009 
L 1997 1497 
L 313 1497 
L 313 2009 
z
" transform="scale(0.015625)"/>
       <path id="DejaVuSans-6f" d="M 1959 3097 
Q 1497 3097 1228 2736 
Q 959 2375 959 1747 
Q 959 1119 1226 758 
Q 1494 397 1959 397 
Q 2419 397 2687 759 
Q 2956 1122 2956 1747 
Q 2956 2369 2687 2733 
Q 2419 3097 1959 3097 
z
M 1959 3584 
Q 2709 3584 3137 3096 
Q 3566 2609 3566 1747 
Q 3566 888 3137 398 
Q 2709 -91 1959 -91 
Q 1206 -91 779 398 
Q 353 888 353 1747 
Q 353 2609 779 3096 
Q 1206 3584 1959 3584 
z
" transform="scale(0.015625)"/>
       <path id="DejaVuSans-63" d="M 3122 3366 
L 3122 2828 
Q 2878 2963 2633 3030 
Q 2388 3097 2138 3097 
Q 1578 3097 1268 2742 
Q 959 2388 959 1747 
Q 959 1106 1268 751 
Q 1578 397 2138 397 
Q 2388 397 2633 464 
Q 2878 531 3122 666 
L 3122 134 
Q 2881 22 2623 -34 
Q 2366 -91 2075 -91 
Q 1284 -91 818 406 
Q 353 903 353 1747 
Q 353 2603 823 3093 
Q 1294 3584 2113 3584 
Q 2378 3584 2631 3529 
Q 2884 3475 3122 3366 
z
" transform="scale(0.015625)"/>
       <path id="DejaVuSans-6b" d="M 581 4863 
L 1159 4863 
L 1159 1991 
L 2875 3500 
L 3609 3500 
L 1753 1863 
L 3688 0 
L 2938 0 
L 1159 1709 
L 1159 0 
L 581 0 
L 581 4863 
z
" transform="scale(0.015625)"/>
      </defs>
      <use xlink:href="#DejaVuSans-54"/>
      <use xlink:href="#DejaVuSans-61" transform="translate(44.583984 0)"/>
      <use xlink:href="#DejaVuSans-72" transform="translate(105.863281 0)"/>
      <use xlink:href="#DejaVuSans-67" transform="translate(145.226562 0)"/>
      <use xlink:href="#DejaVuSans-65" transform="translate(208.703125 0)"/>
      <use xlink:href="#DejaVuSans-74" transform="translate(270.226562 0)"/>
      <use xlink:href="#DejaVuSans-2d" transform="translate(309.435547 0)"/>
      <use xlink:href="#DejaVuSans-4c" transform="translate(345.519531 0)"/>
      <use xlink:href="#DejaVuSans-6f" transform="translate(399.482422 0)"/>
      <use xlink:href="#DejaVuSans-63" transform="translate(460.664062 0)"/>
      <use xlink:href="#DejaVuSans-6b" transform="translate(515.644531 0)"/>
      <use xlink:href="#DejaVuSans-20" transform="translate(573.554688 0)"/>
      <use xlink:href="#DejaVuSans-53" transform="translate(605.341797 0)"/>
      <use xlink:href="#DejaVuSans-63" transform="translate(668.818359 0)"/>
      <use xlink:href="#DejaVuSans-6f" transform="translate(723.798828 0)"/>
      <use xlink:href="#DejaVuSans-72" transform="translate(784.980469 0)"/>
      <use xlink:href="#DejaVuSans-65" transform="translate(823.84375 0)"/>
     </g>
    </g>
   </g>
   <g id="line2d_25">
    <path d="M 67.826042 158.353928 
L 71.202705 158.28833 
L 74.579367 158.222732 
L 77.95603 158.157134 
L 81.332692 158.091536 
L 84.709355 158.025938 
L 88.086018 157.96034 
L 91.46268 157.894742 
L 94.839343 157.829144 
L 98.216005 157.763546 
L 101.592668 157.697948 
L 104.96933 157.63235 
L 108.345993 157.566752 
L 111.722656 157.501154 
L 115.099318 157.435556 
L 118.475981 157.369958 
L 121.852643 157.30436 
L 125.229306 157.238762 
L 128.605968 157.173164 
L 131.982631 157.107566 
L 135.359294 157.041968 
L 138.735956 156.97637 
L 142.112619 156.910772 
L 145.489281 156.845174 
L 148.865944 156.779576 
L 152.242606 156.713978 
L 155.619269 156.64838 
L 158.995932 156.582782 
L 162.372594 156.517184 
L 165.749257 156.451586 
L 169.125919 156.385988 
L 172.502582 156.32039 
L 175.879244 156.254792 
L 179.255907 156.189194 
L 182.632569 156.123596 
L 186.009232 156.057998 
L 189.385895 155.9924 
L 192.762557 155.926802 
L 196.13922 155.861204 
L 199.515882 155.795606 
L 202.892545 155.730008 
L 206.269207 155.66441 
L 209.64587 155.598812 
L 213.022533 155.533214 
L 216.399195 155.467616 
L 219.775858 155.402018 
L 223.15252 155.33642 
L 226.529183 155.270822 
L 229.905845 155.205224 
L 233.282508 155.139626 
L 236.659171 155.074028 
L 240.035833 155.00843 
L 243.412496 154.942832 
L 246.789158 154.877234 
L 250.165821 154.811636 
L 253.542483 154.746038 
L 256.919146 154.68044 
L 260.295809 154.614842 
L 263.672471 154.549244 
L 267.049134 154.483646 
L 270.425796 154.418048 
L 273.802459 154.35245 
L 277.179121 154.286852 
L 280.555784 154.221254 
L 283.932446 154.155656 
L 287.309109 154.090058 
L 290.685772 154.02446 
L 294.062434 153.958862 
L 297.439097 153.893264 
L 300.815759 153.827666 
L 304.192422 153.762068 
L 307.569084 153.69647 
L 310.945747 153.630872 
L 314.32241 153.565274 
L 317.699072 153.499676 
L 321.075735 153.434078 
L 324.452397 153.36848 
L 327.82906 153.302882 
L 331.205722 153.237284 
L 334.582385 153.171686 
L 337.959048 153.106088 
L 341.33571 153.04049 
L 344.712373 152.974892 
L 348.089035 152.909294 
L 351.465698 152.843696 
L 354.84236 152.778098 
L 358.219023 152.7125 
L 361.595686 152.646902 
L 364.972348 152.581303 
L 368.349011 152.515705 
L 371.725673 152.450107 
L 375.102336 152.384509 
L 378.478998 152.318911 
L 381.855661 152.253313 
L 385.232323 152.187715 
L 388.608986 152.122117 
L 391.985649 152.056519 
L 395.362311 151.990921 
L 398.738974 151.925323 
L 402.115636 151.859725 
" clip-path="url(#pe144644929)" style="fill: none; stroke-dasharray: 7.4,3.2; stroke-dashoffset: 0; stroke: #ff0000; stroke-opacity: 0.8; stroke-width: 2"/>
   </g>
   <g id="patch_3">
    <path d="M 51.111563 313.838125 
L 51.111563 22.318125 
" style="fill: none; stroke: #000000; stroke-width: 0.8; stroke-linejoin: miter; stroke-linecap: square"/>
   </g>
   <g id="patch_4">
    <path d="M 418.830116 313.838125 
L 418.830116 22.318125 
" style="fill: none; stroke: #000000; stroke-width: 0.8; stroke-linejoin: miter; stroke-linecap: square"/>
   </g>
   <g id="patch_5">
    <path d="M 51.111563 313.838125 
L 418.830116 313.838125 
" style="fill: none; stroke: #000000; stroke-width: 0.8; stroke-linejoin: miter; stroke-linecap: square"/>
   </g>
   <g id="patch_6">
    <path d="M 51.111563 22.318125 
L 418.830116 22.318125 
" style="fill: none; stroke: #000000; stroke-width: 0.8; stroke-linejoin: miter; stroke-linecap: square"/>
   </g>
   <g id="text_15">
    <g id="patch_7">
     <path d="M 69.49749 60.770062 
L 119.20999 60.770062 
Q 122.20999 60.770062 122.20999 57.770062 
L 122.20999 36.894125 
Q 122.20999 33.894125 119.20999 33.894125 
L 69.49749 33.894125 
Q 66.49749 33.894125 66.49749 36.894125 
L 66.49749 57.770062 
Q 66.49749 60.770062 69.49749 60.770062 
z
" style="fill: #f5deb3; opacity: 0.5; stroke: #000000; stroke-linejoin: miter"/>
    </g>
    <!-- Ï = 0.062 -->
    <g transform="translate(69.49749 44.492562) scale(0.1 -0.1)">
     <defs>
      <path id="DejaVuSans-3c1" d="M 863 2875 
Q 1053 3194 1525 3475 
Q 1709 3584 2278 3584 
Q 2916 3584 3314 3078 
Q 3713 2572 3713 1747 
Q 3713 922 3314 415 
Q 2916 -91 2278 -91 
Q 1894 -91 1617 61 
Q 1341 213 1159 525 
L 1159 -1331 
L 581 -1331 
L 581 1716 
Q 581 2438 863 2875 
z
M 3116 1747 
Q 3116 2381 2855 2742 
Q 2594 3103 2138 3103 
Q 1681 3103 1420 2742 
Q 1159 2381 1159 1747 
Q 1159 1113 1420 752 
Q 1681 391 2138 391 
Q 2594 391 2855 752 
Q 3116 1113 3116 1747 
z
" transform="scale(0.015625)"/>
      <path id="DejaVuSans-3d" d="M 678 2906 
L 4684 2906 
L 4684 2381 
L 678 2381 
L 678 2906 
z
M 678 1631 
L 4684 1631 
L 4684 1100 
L 678 1100 
L 678 1631 
z
" transform="scale(0.015625)"/>
     </defs>
     <use xlink:href="#DejaVuSans-3c1"/>
     <use xlink:href="#DejaVuSans-20" transform="translate(63.476562 0)"/>
     <use xlink:href="#DejaVuSans-3d" transform="translate(95.263672 0)"/>
     <use xlink:href="#DejaVuSans-20" transform="translate(179.052734 0)"/>
     <use xlink:href="#DejaVuSans-30" transform="translate(210.839844 0)"/>
     <use xlink:href="#DejaVuSans-2e" transform="translate(274.462891 0)"/>
     <use xlink:href="#DejaVuSans-30" transform="translate(306.25 0)"/>
     <use xlink:href="#DejaVuSans-36" transform="translate(369.873047 0)"/>
     <use xlink:href="#DejaVuSans-32" transform="translate(433.496094 0)"/>
    </g>
    <!-- p = 0.710 -->
    <g transform="translate(69.49749 55.690375) scale(0.1 -0.1)">
     <defs>
      <path id="DejaVuSans-37" d="M 525 4666 
L 3525 4666 
L 3525 4397 
L 1831 0 
L 1172 0 
L 2766 4134 
L 525 4134 
L 525 4666 
z
" transform="scale(0.015625)"/>
     </defs>
     <use xlink:href="#DejaVuSans-70"/>
     <use xlink:href="#DejaVuSans-20" transform="translate(63.476562 0)"/>
     <use xlink:href="#DejaVuSans-3d" transform="translate(95.263672 0)"/>
     <use xlink:href="#DejaVuSans-20" transform="translate(179.052734 0)"/>
     <use xlink:href="#DejaVuSans-30" transform="translate(210.839844 0)"/>
     <use xlink:href="#DejaVuSans-2e" transform="translate(274.462891 0)"/>
     <use xlink:href="#DejaVuSans-37" transform="translate(306.25 0)"/>
     <use xlink:href="#DejaVuSans-31" transform="translate(369.873047 0)"/>
     <use xlink:href="#DejaVuSans-30" transform="translate(433.496094 0)"/>
    </g>
   </g>
   <g id="text_16">
    <!-- Score vs Gene Length -->
    <g transform="translate(169.238964 16.318125) scale(0.12 -0.12)">
     <defs>
      <path id="DejaVuSans-76" d="M 191 3500 
L 800 3500 
L 1894 563 
L 2988 3500 
L 3597 3500 
L 2284 0 
L 1503 0 
L 191 3500 
z
" transform="scale(0.015625)"/>
      <path id="DejaVuSans-73" d="M 2834 3397 
L 2834 2853 
Q 2591 2978 2328 3040 
Q 2066 3103 1784 3103 
Q 1356 3103 1142 2972 
Q 928 2841 928 2578 
Q 928 2378 1081 2264 
Q 1234 2150 1697 2047 
L 1894 2003 
Q 2506 1872 2764 1633 
Q 3022 1394 3022 966 
Q 3022 478 2636 193 
Q 2250 -91 1575 -91 
Q 1294 -91 989 -36 
Q 684 19 347 128 
L 347 722 
Q 666 556 975 473 
Q 1284 391 1588 391 
Q 1994 391 2212 530 
Q 2431 669 2431 922 
Q 2431 1156 2273 1281 
Q 2116 1406 1581 1522 
L 1381 1569 
Q 847 1681 609 1914 
Q 372 2147 372 2553 
Q 372 3047 722 3315 
Q 1072 3584 1716 3584 
Q 2034 3584 2315 3537 
Q 2597 3491 2834 3397 
z
" transform="scale(0.015625)"/>
      <path id="DejaVuSans-47" d="M 3809 666 
L 3809 1919 
L 2778 1919 
L 2778 2438 
L 4434 2438 
L 4434 434 
Q 4069 175 3628 42 
Q 3188 -91 2688 -91 
Q 1594 -91 976 548 
Q 359 1188 359 2328 
Q 359 3472 976 4111 
Q 1594 4750 2688 4750 
Q 3144 4750 3555 4637 
Q 3966 4525 4313 4306 
L 4313 3634 
Q 3963 3931 3569 4081 
Q 3175 4231 2741 4231 
Q 1884 4231 1454 3753 
Q 1025 3275 1025 2328 
Q 1025 1384 1454 906 
Q 1884 428 2741 428 
Q 3075 428 3337 486 
Q 3600 544 3809 666 
z
" transform="scale(0.015625)"/>
     </defs>
     <use xlink:href="#DejaVuSans-53"/>
     <use xlink:href="#DejaVuSans-63" transform="translate(63.476562 0)"/>
     <use xlink:href="#DejaVuSans-6f" transform="translate(118.457031 0)"/>
     <use xlink:href="#DejaVuSans-72" transform="translate(179.638672 0)"/>
     <use xlink:href="#DejaVuSans-65" transform="translate(218.501953 0)"/>
     <use xlink:href="#DejaVuSans-20" transform="translate(280.025391 0)"/>
     <use xlink:href="#DejaVuSans-76" transform="translate(311.8125 0)"/>
     <use xlink:href="#DejaVuSans-73" transform="translate(370.992188 0)"/>
     <use xlink:href="#DejaVuSans-20" transform="translate(423.091797 0)"/>
     <use xlink:href="#DejaVuSans-47" transform="translate(454.878906 0)"/>
     <use xlink:href="#DejaVuSans-65" transform="translate(532.369141 0)"/>
     <use xlink:href="#DejaVuSans-6e" transform="translate(593.892578 0)"/>
     <use xlink:href="#DejaVuSans-65" transform="translate(657.271484 0)"/>
     <use xlink:href="#DejaVuSans-20" transform="translate(718.794922 0)"/>
     <use xlink:href="#DejaVuSans-4c" transform="translate(750.582031 0)"/>
     <use xlink:href="#DejaVuSans-65" transform="translate(804.544922 0)"/>
     <use xlink:href="#DejaVuSans-6e" transform="translate(866.068359 0)"/>
     <use xlink:href="#DejaVuSans-67" transform="translate(929.447266 0)"/>
     <use xlink:href="#DejaVuSans-74" transform="translate(992.923828 0)"/>
     <use xlink:href="#DejaVuSans-68" transform="translate(1032.132812 0)"/>
    </g>
   </g>
  </g>
  <g id="axes_2">
   <g id="patch_8">
    <path d="M 482.549786 313.838125 
L 850.268339 313.838125 
L 850.268339 22.318125 
L 482.549786 22.318125 
z
" style="fill: #ffffff"/>
   </g>
   <g id="PathCollection_2">
    <g clip-path="url(#pf3865dd5dc)">
     <use xlink:href="#m0f68265d20" x="779.839942" y="206.301901" style="fill: #1f77b4; fill-opacity: 0.6; stroke: #1f77b4; stroke-opacity: 0.6"/>
     <use xlink:href="#m0f68265d20" x="710.068549" y="75.321761" style="fill: #1f77b4; fill-opacity: 0.6; stroke: #1f77b4; stroke-opacity: 0.6"/>
     <use xlink:href="#m0f68265d20" x="553.991236" y="134.950852" style="fill: #1f77b4; fill-opacity: 0.6; stroke: #1f77b4; stroke-opacity: 0.6"/>
     <use xlink:href="#m0f68265d20" x="804.391649" y="207.321202" style="fill: #1f77b4; fill-opacity: 0.6; stroke: #1f77b4; stroke-opacity: 0.6"/>
     <use xlink:href="#m0f68265d20" x="506.247497" y="35.569034" style="fill: #1f77b4; fill-opacity: 0.6; stroke: #1f77b4; stroke-opacity: 0.6"/>
     <use xlink:href="#m0f68265d20" x="499.264265" y="173.174628" style="fill: #1f77b4; fill-opacity: 0.6; stroke: #1f77b4; stroke-opacity: 0.6"/>
     <use xlink:href="#m0f68265d20" x="606.261373" y="138.008754" style="fill: #1f77b4; fill-opacity: 0.6; stroke: #1f77b4; stroke-opacity: 0.6"/>
     <use xlink:href="#m0f68265d20" x="651.287641" y="196.108894" style="fill: #1f77b4; fill-opacity: 0.6; stroke: #1f77b4; stroke-opacity: 0.6"/>
     <use xlink:href="#m0f68265d20" x="639.975241" y="152.278964" style="fill: #1f77b4; fill-opacity: 0.6; stroke: #1f77b4; stroke-opacity: 0.6"/>
     <use xlink:href="#m0f68265d20" x="628.163902" y="174.193929" style="fill: #1f77b4; fill-opacity: 0.6; stroke: #1f77b4; stroke-opacity: 0.6"/>
     <use xlink:href="#m0f68265d20" x="569.391952" y="173.174628" style="fill: #1f77b4; fill-opacity: 0.6; stroke: #1f77b4; stroke-opacity: 0.6"/>
     <use xlink:href="#m0f68265d20" x="713.201761" y="66.657705" style="fill: #1f77b4; fill-opacity: 0.6; stroke: #1f77b4; stroke-opacity: 0.6"/>
     <use xlink:href="#m0f68265d20" x="833.55386" y="164.510573" style="fill: #1f77b4; fill-opacity: 0.6; stroke: #1f77b4; stroke-opacity: 0.6"/>
     <use xlink:href="#m0f68265d20" x="634.882317" y="230.255468" style="fill: #1f77b4; fill-opacity: 0.6; stroke: #1f77b4; stroke-opacity: 0.6"/>
     <use xlink:href="#m0f68265d20" x="580.399716" y="169.607076" style="fill: #1f77b4; fill-opacity: 0.6; stroke: #1f77b4; stroke-opacity: 0.6"/>
     <use xlink:href="#m0f68265d20" x="739.899137" y="154.827216" style="fill: #1f77b4; fill-opacity: 0.6; stroke: #1f77b4; stroke-opacity: 0.6"/>
     <use xlink:href="#m0f68265d20" x="511.11461" y="120.680642" style="fill: #1f77b4; fill-opacity: 0.6; stroke: #1f77b4; stroke-opacity: 0.6"/>
     <use xlink:href="#m0f68265d20" x="590.231996" y="145.65351" style="fill: #1f77b4; fill-opacity: 0.6; stroke: #1f77b4; stroke-opacity: 0.6"/>
     <use xlink:href="#m0f68265d20" x="608.894783" y="104.371831" style="fill: #1f77b4; fill-opacity: 0.6; stroke: #1f77b4; stroke-opacity: 0.6"/>
     <use xlink:href="#m0f68265d20" x="564.166858" y="136.989454" style="fill: #1f77b4; fill-opacity: 0.6; stroke: #1f77b4; stroke-opacity: 0.6"/>
     <use xlink:href="#m0f68265d20" x="657.566893" y="300.587216" style="fill: #1f77b4; fill-opacity: 0.6; stroke: #1f77b4; stroke-opacity: 0.6"/>
     <use xlink:href="#m0f68265d20" x="709.80111" y="157.885118" style="fill: #1f77b4; fill-opacity: 0.6; stroke: #1f77b4; stroke-opacity: 0.6"/>
     <use xlink:href="#m0f68265d20" x="568.090584" y="79.398964" style="fill: #1f77b4; fill-opacity: 0.6; stroke: #1f77b4; stroke-opacity: 0.6"/>
     <use xlink:href="#m0f68265d20" x="636.032026" y="252.170433" style="fill: #1f77b4; fill-opacity: 0.6; stroke: #1f77b4; stroke-opacity: 0.6"/>
     <use xlink:href="#m0f68265d20" x="791.191294" y="192.031691" style="fill: #1f77b4; fill-opacity: 0.6; stroke: #1f77b4; stroke-opacity: 0.6"/>
     <use xlink:href="#m0f68265d20" x="713.021729" y="124.248195" style="fill: #1f77b4; fill-opacity: 0.6; stroke: #1f77b4; stroke-opacity: 0.6"/>
     <use xlink:href="#m0f68265d20" x="603.451705" y="117.11309" style="fill: #1f77b4; fill-opacity: 0.6; stroke: #1f77b4; stroke-opacity: 0.6"/>
     <use xlink:href="#m0f68265d20" x="504.502868" y="161.45267" style="fill: #1f77b4; fill-opacity: 0.6; stroke: #1f77b4; stroke-opacity: 0.6"/>
     <use xlink:href="#m0f68265d20" x="638.219553" y="213.946656" style="fill: #1f77b4; fill-opacity: 0.6; stroke: #1f77b4; stroke-opacity: 0.6"/>
     <use xlink:href="#m0f68265d20" x="569.098819" y="112.016587" style="fill: #1f77b4; fill-opacity: 0.6; stroke: #1f77b4; stroke-opacity: 0.6"/>
     <use xlink:href="#m0f68265d20" x="825.590815" y="178.271132" style="fill: #1f77b4; fill-opacity: 0.6; stroke: #1f77b4; stroke-opacity: 0.6"/>
     <use xlink:href="#m0f68265d20" x="803.30825" y="117.62274" style="fill: #1f77b4; fill-opacity: 0.6; stroke: #1f77b4; stroke-opacity: 0.6"/>
     <use xlink:href="#m0f68265d20" x="521.399496" y="228.726517" style="fill: #1f77b4; fill-opacity: 0.6; stroke: #1f77b4; stroke-opacity: 0.6"/>
     <use xlink:href="#m0f68265d20" x="756.23893" y="112.016587" style="fill: #1f77b4; fill-opacity: 0.6; stroke: #1f77b4; stroke-opacity: 0.6"/>
     <use xlink:href="#m0f68265d20" x="696.876506" y="97.746377" style="fill: #1f77b4; fill-opacity: 0.6; stroke: #1f77b4; stroke-opacity: 0.6"/>
     <use xlink:href="#m0f68265d20" x="750.470126" y="89.082321" style="fill: #1f77b4; fill-opacity: 0.6; stroke: #1f77b4; stroke-opacity: 0.6"/>
     <use xlink:href="#m0f68265d20" x="696.888414" y="176.742181" style="fill: #1f77b4; fill-opacity: 0.6; stroke: #1f77b4; stroke-opacity: 0.6"/>
     <use xlink:href="#m0f68265d20" x="513.246019" y="208.850153" style="fill: #1f77b4; fill-opacity: 0.6; stroke: #1f77b4; stroke-opacity: 0.6"/>
    </g>
   </g>
   <g id="matplotlib.axis_3">
    <g id="xtick_6">
     <g id="line2d_26">
      <path d="M 498.989683 313.838125 
L 498.989683 22.318125 
" clip-path="url(#pf3865dd5dc)" style="fill: none; stroke: #b0b0b0; stroke-opacity: 0.3; stroke-width: 0.8; stroke-linecap: square"/>
     </g>
     <g id="line2d_27">
      <g>
       <use xlink:href="#mc5bc809aa8" x="498.989683" y="313.838125" style="stroke: #000000; stroke-width: 0.8"/>
      </g>
     </g>
     <g id="text_17">
      <!-- 0.400 -->
      <g transform="translate(484.675621 328.436563) scale(0.1 -0.1)">
       <use xlink:href="#DejaVuSans-30"/>
       <use xlink:href="#DejaVuSans-2e" transform="translate(63.623047 0)"/>
       <use xlink:href="#DejaVuSans-34" transform="translate(95.410156 0)"/>
       <use xlink:href="#DejaVuSans-30" transform="translate(159.033203 0)"/>
       <use xlink:href="#DejaVuSans-30" transform="translate(222.65625 0)"/>
      </g>
     </g>
    </g>
    <g id="xtick_7">
     <g id="line2d_28">
      <path d="M 543.062989 313.838125 
L 543.062989 22.318125 
" clip-path="url(#pf3865dd5dc)" style="fill: none; stroke: #b0b0b0; stroke-opacity: 0.3; stroke-width: 0.8; stroke-linecap: square"/>
     </g>
     <g id="line2d_29">
      <g>
       <use xlink:href="#mc5bc809aa8" x="543.062989" y="313.838125" style="stroke: #000000; stroke-width: 0.8"/>
      </g>
     </g>
     <g id="text_18">
      <!-- 0.425 -->
      <g transform="translate(528.748926 328.436563) scale(0.1 -0.1)">
       <defs>
        <path id="DejaVuSans-35" d="M 691 4666 
L 3169 4666 
L 3169 4134 
L 1269 4134 
L 1269 2991 
Q 1406 3038 1543 3061 
Q 1681 3084 1819 3084 
Q 2600 3084 3056 2656 
Q 3513 2228 3513 1497 
Q 3513 744 3044 326 
Q 2575 -91 1722 -91 
Q 1428 -91 1123 -41 
Q 819 9 494 109 
L 494 744 
Q 775 591 1075 516 
Q 1375 441 1709 441 
Q 2250 441 2565 725 
Q 2881 1009 2881 1497 
Q 2881 1984 2565 2268 
Q 2250 2553 1709 2553 
Q 1456 2553 1204 2497 
Q 953 2441 691 2322 
L 691 4666 
z
" transform="scale(0.015625)"/>
       </defs>
       <use xlink:href="#DejaVuSans-30"/>
       <use xlink:href="#DejaVuSans-2e" transform="translate(63.623047 0)"/>
       <use xlink:href="#DejaVuSans-34" transform="translate(95.410156 0)"/>
       <use xlink:href="#DejaVuSans-32" transform="translate(159.033203 0)"/>
       <use xlink:href="#DejaVuSans-35" transform="translate(222.65625 0)"/>
      </g>
     </g>
    </g>
    <g id="xtick_8">
     <g id="line2d_30">
      <path d="M 587.136294 313.838125 
L 587.136294 22.318125 
" clip-path="url(#pf3865dd5dc)" style="fill: none; stroke: #b0b0b0; stroke-opacity: 0.3; stroke-width: 0.8; stroke-linecap: square"/>
     </g>
     <g id="line2d_31">
      <g>
       <use xlink:href="#mc5bc809aa8" x="587.136294" y="313.838125" style="stroke: #000000; stroke-width: 0.8"/>
      </g>
     </g>
     <g id="text_19">
      <!-- 0.450 -->
      <g transform="translate(572.822231 328.436563) scale(0.1 -0.1)">
       <use xlink:href="#DejaVuSans-30"/>
       <use xlink:href="#DejaVuSans-2e" transform="translate(63.623047 0)"/>
       <use xlink:href="#DejaVuSans-34" transform="translate(95.410156 0)"/>
       <use xlink:href="#DejaVuSans-35" transform="translate(159.033203 0)"/>
       <use xlink:href="#DejaVuSans-30" transform="translate(222.65625 0)"/>
      </g>
     </g>
    </g>
    <g id="xtick_9">
     <g id="line2d_32">
      <path d="M 631.209599 313.838125 
L 631.209599 22.318125 
" clip-path="url(#pf3865dd5dc)" style="fill: none; stroke: #b0b0b0; stroke-opacity: 0.3; stroke-width: 0.8; stroke-linecap: square"/>
     </g>
     <g id="line2d_33">
      <g>
       <use xlink:href="#mc5bc809aa8" x="631.209599" y="313.838125" style="stroke: #000000; stroke-width: 0.8"/>
      </g>
     </g>
     <g id="text_20">
      <!-- 0.475 -->
      <g transform="translate(616.895537 328.436563) scale(0.1 -0.1)">
       <use xlink:href="#DejaVuSans-30"/>
       <use xlink:href="#DejaVuSans-2e" transform="translate(63.623047 0)"/>
       <use xlink:href="#DejaVuSans-34" transform="translate(95.410156 0)"/>
       <use xlink:href="#DejaVuSans-37" transform="translate(159.033203 0)"/>
       <use xlink:href="#DejaVuSans-35" transform="translate(222.65625 0)"/>
      </g>
     </g>
    </g>
    <g id="xtick_10">
     <g id="line2d_34">
      <path d="M 675.282905 313.838125 
L 675.282905 22.318125 
" clip-path="url(#pf3865dd5dc)" style="fill: none; stroke: #b0b0b0; stroke-opacity: 0.3; stroke-width: 0.8; stroke-linecap: square"/>
     </g>
     <g id="line2d_35">
      <g>
       <use xlink:href="#mc5bc809aa8" x="675.282905" y="313.838125" style="stroke: #000000; stroke-width: 0.8"/>
      </g>
     </g>
     <g id="text_21">
      <!-- 0.500 -->
      <g transform="translate(660.968842 328.436563) scale(0.1 -0.1)">
       <use xlink:href="#DejaVuSans-30"/>
       <use xlink:href="#DejaVuSans-2e" transform="translate(63.623047 0)"/>
       <use xlink:href="#DejaVuSans-35" transform="translate(95.410156 0)"/>
       <use xlink:href="#DejaVuSans-30" transform="translate(159.033203 0)"/>
       <use xlink:href="#DejaVuSans-30" transform="translate(222.65625 0)"/>
      </g>
     </g>
    </g>
    <g id="xtick_11">
     <g id="line2d_36">
      <path d="M 719.35621 313.838125 
L 719.35621 22.318125 
" clip-path="url(#pf3865dd5dc)" style="fill: none; stroke: #b0b0b0; stroke-opacity: 0.3; stroke-width: 0.8; stroke-linecap: square"/>
     </g>
     <g id="line2d_37">
      <g>
       <use xlink:href="#mc5bc809aa8" x="719.35621" y="313.838125" style="stroke: #000000; stroke-width: 0.8"/>
      </g>
     </g>
     <g id="text_22">
      <!-- 0.525 -->
      <g transform="translate(705.042148 328.436563) scale(0.1 -0.1)">
       <use xlink:href="#DejaVuSans-30"/>
       <use xlink:href="#DejaVuSans-2e" transform="translate(63.623047 0)"/>
       <use xlink:href="#DejaVuSans-35" transform="translate(95.410156 0)"/>
       <use xlink:href="#DejaVuSans-32" transform="translate(159.033203 0)"/>
       <use xlink:href="#DejaVuSans-35" transform="translate(222.65625 0)"/>
      </g>
     </g>
    </g>
    <g id="xtick_12">
     <g id="line2d_38">
      <path d="M 763.429515 313.838125 
L 763.429515 22.318125 
" clip-path="url(#pf3865dd5dc)" style="fill: none; stroke: #b0b0b0; stroke-opacity: 0.3; stroke-width: 0.8; stroke-linecap: square"/>
     </g>
     <g id="line2d_39">
      <g>
       <use xlink:href="#mc5bc809aa8" x="763.429515" y="313.838125" style="stroke: #000000; stroke-width: 0.8"/>
      </g>
     </g>
     <g id="text_23">
      <!-- 0.550 -->
      <g transform="translate(749.115453 328.436563) scale(0.1 -0.1)">
       <use xlink:href="#DejaVuSans-30"/>
       <use xlink:href="#DejaVuSans-2e" transform="translate(63.623047 0)"/>
       <use xlink:href="#DejaVuSans-35" transform="translate(95.410156 0)"/>
       <use xlink:href="#DejaVuSans-35" transform="translate(159.033203 0)"/>
       <use xlink:href="#DejaVuSans-30" transform="translate(222.65625 0)"/>
      </g>
     </g>
    </g>
    <g id="xtick_13">
     <g id="line2d_40">
      <path d="M 807.502821 313.838125 
L 807.502821 22.318125 
" clip-path="url(#pf3865dd5dc)" style="fill: none; stroke: #b0b0b0; stroke-opacity: 0.3; stroke-width: 0.8; stroke-linecap: square"/>
     </g>
     <g id="line2d_41">
      <g>
       <use xlink:href="#mc5bc809aa8" x="807.502821" y="313.838125" style="stroke: #000000; stroke-width: 0.8"/>
      </g>
     </g>
     <g id="text_24">
      <!-- 0.575 -->
      <g transform="translate(793.188758 328.436563) scale(0.1 -0.1)">
       <use xlink:href="#DejaVuSans-30"/>
       <use xlink:href="#DejaVuSans-2e" transform="translate(63.623047 0)"/>
       <use xlink:href="#DejaVuSans-35" transform="translate(95.410156 0)"/>
       <use xlink:href="#DejaVuSans-37" transform="translate(159.033203 0)"/>
       <use xlink:href="#DejaVuSans-35" transform="translate(222.65625 0)"/>
      </g>
     </g>
    </g>
    <g id="text_25">
     <!-- GC Content -->
     <g transform="translate(634.685234 342.874531) scale(0.11 -0.11)">
      <use xlink:href="#DejaVuSans-47"/>
      <use xlink:href="#DejaVuSans-43" transform="translate(77.490234 0)"/>
      <use xlink:href="#DejaVuSans-20" transform="translate(147.314453 0)"/>
      <use xlink:href="#DejaVuSans-43" transform="translate(179.101562 0)"/>
      <use xlink:href="#DejaVuSans-6f" transform="translate(248.925781 0)"/>
      <use xlink:href="#DejaVuSans-6e" transform="translate(310.107422 0)"/>
      <use xlink:href="#DejaVuSans-74" transform="translate(373.486328 0)"/>
      <use xlink:href="#DejaVuSans-65" transform="translate(412.695312 0)"/>
      <use xlink:href="#DejaVuSans-6e" transform="translate(474.21875 0)"/>
      <use xlink:href="#DejaVuSans-74" transform="translate(537.597656 0)"/>
     </g>
    </g>
   </g>
   <g id="matplotlib.axis_4">
    <g id="ytick_8">
     <g id="line2d_42">
      <path d="M 482.549786 276.123999 
L 850.268339 276.123999 
" clip-path="url(#pf3865dd5dc)" style="fill: none; stroke: #b0b0b0; stroke-opacity: 0.3; stroke-width: 0.8; stroke-linecap: square"/>
     </g>
     <g id="line2d_43">
      <g>
       <use xlink:href="#m35e26086ce" x="482.549786" y="276.123999" style="stroke: #000000; stroke-width: 0.8"/>
      </g>
     </g>
     <g id="text_26">
      <!-- 0.38 -->
      <g transform="translate(453.284161 279.923218) scale(0.1 -0.1)">
       <use xlink:href="#DejaVuSans-30"/>
       <use xlink:href="#DejaVuSans-2e" transform="translate(63.623047 0)"/>
       <use xlink:href="#DejaVuSans-33" transform="translate(95.410156 0)"/>
       <use xlink:href="#DejaVuSans-38" transform="translate(159.033203 0)"/>
      </g>
     </g>
    </g>
    <g id="ytick_9">
     <g id="line2d_44">
      <path d="M 482.549786 235.351971 
L 850.268339 235.351971 
" clip-path="url(#pf3865dd5dc)" style="fill: none; stroke: #b0b0b0; stroke-opacity: 0.3; stroke-width: 0.8; stroke-linecap: square"/>
     </g>
     <g id="line2d_45">
      <g>
       <use xlink:href="#m35e26086ce" x="482.549786" y="235.351971" style="stroke: #000000; stroke-width: 0.8"/>
      </g>
     </g>
     <g id="text_27">
      <!-- 0.39 -->
      <g transform="translate(453.284161 239.15119) scale(0.1 -0.1)">
       <use xlink:href="#DejaVuSans-30"/>
       <use xlink:href="#DejaVuSans-2e" transform="translate(63.623047 0)"/>
       <use xlink:href="#DejaVuSans-33" transform="translate(95.410156 0)"/>
       <use xlink:href="#DejaVuSans-39" transform="translate(159.033203 0)"/>
      </g>
     </g>
    </g>
    <g id="ytick_10">
     <g id="line2d_46">
      <path d="M 482.549786 194.579943 
L 850.268339 194.579943 
" clip-path="url(#pf3865dd5dc)" style="fill: none; stroke: #b0b0b0; stroke-opacity: 0.3; stroke-width: 0.8; stroke-linecap: square"/>
     </g>
     <g id="line2d_47">
      <g>
       <use xlink:href="#m35e26086ce" x="482.549786" y="194.579943" style="stroke: #000000; stroke-width: 0.8"/>
      </g>
     </g>
     <g id="text_28">
      <!-- 0.40 -->
      <g transform="translate(453.284161 198.379162) scale(0.1 -0.1)">
       <use xlink:href="#DejaVuSans-30"/>
       <use xlink:href="#DejaVuSans-2e" transform="translate(63.623047 0)"/>
       <use xlink:href="#DejaVuSans-34" transform="translate(95.410156 0)"/>
       <use xlink:href="#DejaVuSans-30" transform="translate(159.033203 0)"/>
      </g>
     </g>
    </g>
    <g id="ytick_11">
     <g id="line2d_48">
      <path d="M 482.549786 153.807915 
L 850.268339 153.807915 
" clip-path="url(#pf3865dd5dc)" style="fill: none; stroke: #b0b0b0; stroke-opacity: 0.3; stroke-width: 0.8; stroke-linecap: square"/>
     </g>
     <g id="line2d_49">
      <g>
       <use xlink:href="#m35e26086ce" x="482.549786" y="153.807915" style="stroke: #000000; stroke-width: 0.8"/>
      </g>
     </g>
     <g id="text_29">
      <!-- 0.41 -->
      <g transform="translate(453.284161 157.607134) scale(0.1 -0.1)">
       <use xlink:href="#DejaVuSans-30"/>
       <use xlink:href="#DejaVuSans-2e" transform="translate(63.623047 0)"/>
       <use xlink:href="#DejaVuSans-34" transform="translate(95.410156 0)"/>
       <use xlink:href="#DejaVuSans-31" transform="translate(159.033203 0)"/>
      </g>
     </g>
    </g>
    <g id="ytick_12">
     <g id="line2d_50">
      <path d="M 482.549786 113.035887 
L 850.268339 113.035887 
" clip-path="url(#pf3865dd5dc)" style="fill: none; stroke: #b0b0b0; stroke-opacity: 0.3; stroke-width: 0.8; stroke-linecap: square"/>
     </g>
     <g id="line2d_51">
      <g>
       <use xlink:href="#m35e26086ce" x="482.549786" y="113.035887" style="stroke: #000000; stroke-width: 0.8"/>
      </g>
     </g>
     <g id="text_30">
      <!-- 0.42 -->
      <g transform="translate(453.284161 116.835106) scale(0.1 -0.1)">
       <use xlink:href="#DejaVuSans-30"/>
       <use xlink:href="#DejaVuSans-2e" transform="translate(63.623047 0)"/>
       <use xlink:href="#DejaVuSans-34" transform="translate(95.410156 0)"/>
       <use xlink:href="#DejaVuSans-32" transform="translate(159.033203 0)"/>
      </g>
     </g>
    </g>
    <g id="ytick_13">
     <g id="line2d_52">
      <path d="M 482.549786 72.263859 
L 850.268339 72.263859 
" clip-path="url(#pf3865dd5dc)" style="fill: none; stroke: #b0b0b0; stroke-opacity: 0.3; stroke-width: 0.8; stroke-linecap: square"/>
     </g>
     <g id="line2d_53">
      <g>
       <use xlink:href="#m35e26086ce" x="482.549786" y="72.263859" style="stroke: #000000; stroke-width: 0.8"/>
      </g>
     </g>
     <g id="text_31">
      <!-- 0.43 -->
      <g transform="translate(453.284161 76.063078) scale(0.1 -0.1)">
       <use xlink:href="#DejaVuSans-30"/>
       <use xlink:href="#DejaVuSans-2e" transform="translate(63.623047 0)"/>
       <use xlink:href="#DejaVuSans-34" transform="translate(95.410156 0)"/>
       <use xlink:href="#DejaVuSans-33" transform="translate(159.033203 0)"/>
      </g>
     </g>
    </g>
    <g id="ytick_14">
     <g id="line2d_54">
      <path d="M 482.549786 31.491831 
L 850.268339 31.491831 
" clip-path="url(#pf3865dd5dc)" style="fill: none; stroke: #b0b0b0; stroke-opacity: 0.3; stroke-width: 0.8; stroke-linecap: square"/>
     </g>
     <g id="line2d_55">
      <g>
       <use xlink:href="#m35e26086ce" x="482.549786" y="31.491831" style="stroke: #000000; stroke-width: 0.8"/>
      </g>
     </g>
     <g id="text_32">
      <!-- 0.44 -->
      <g transform="translate(453.284161 35.29105) scale(0.1 -0.1)">
       <use xlink:href="#DejaVuSans-30"/>
       <use xlink:href="#DejaVuSans-2e" transform="translate(63.623047 0)"/>
       <use xlink:href="#DejaVuSans-34" transform="translate(95.410156 0)"/>
       <use xlink:href="#DejaVuSans-34" transform="translate(159.033203 0)"/>
      </g>
     </g>
    </g>
    <g id="text_33">
     <!-- Target-Lock Score -->
     <g transform="translate(446.996504 216.774609) rotate(-90) scale(0.11 -0.11)">
      <use xlink:href="#DejaVuSans-54"/>
      <use xlink:href="#DejaVuSans-61" transform="translate(44.583984 0)"/>
      <use xlink:href="#DejaVuSans-72" transform="translate(105.863281 0)"/>
      <use xlink:href="#DejaVuSans-67" transform="translate(145.226562 0)"/>
      <use xlink:href="#DejaVuSans-65" transform="translate(208.703125 0)"/>
      <use xlink:href="#DejaVuSans-74" transform="translate(270.226562 0)"/>
      <use xlink:href="#DejaVuSans-2d" transform="translate(309.435547 0)"/>
      <use xlink:href="#DejaVuSans-4c" transform="translate(345.519531 0)"/>
      <use xlink:href="#DejaVuSans-6f" transform="translate(399.482422 0)"/>
      <use xlink:href="#DejaVuSans-63" transform="translate(460.664062 0)"/>
      <use xlink:href="#DejaVuSans-6b" transform="translate(515.644531 0)"/>
      <use xlink:href="#DejaVuSans-20" transform="translate(573.554688 0)"/>
      <use xlink:href="#DejaVuSans-53" transform="translate(605.341797 0)"/>
      <use xlink:href="#DejaVuSans-63" transform="translate(668.818359 0)"/>
      <use xlink:href="#DejaVuSans-6f" transform="translate(723.798828 0)"/>
      <use xlink:href="#DejaVuSans-72" transform="translate(784.980469 0)"/>
      <use xlink:href="#DejaVuSans-65" transform="translate(823.84375 0)"/>
     </g>
    </g>
   </g>
   <g id="line2d_56">
    <path d="M 499.264265 150.717871 
L 502.640928 150.808134 
L 506.017591 150.898397 
L 509.394253 150.98866 
L 512.770916 151.078923 
L 516.147578 151.169185 
L 519.524241 151.259448 
L 522.900903 151.349711 
L 526.277566 151.439974 
L 529.654229 151.530237 
L 533.030891 151.6205 
L 536.407554 151.710762 
L 539.784216 151.801025 
L 543.160879 151.891288 
L 546.537541 151.981551 
L 549.914204 152.071814 
L 553.290867 152.162077 
L 556.667529 152.252339 
L 560.044192 152.342602 
L 563.420854 152.432865 
L 566.797517 152.523128 
L 570.174179 152.613391 
L 573.550842 152.703654 
L 576.927504 152.793916 
L 580.304167 152.884179 
L 583.68083 152.974442 
L 587.057492 153.064705 
L 590.434155 153.154968 
L 593.810817 153.245231 
L 597.18748 153.335494 
L 600.564142 153.425756 
L 603.940805 153.516019 
L 607.317468 153.606282 
L 610.69413 153.696545 
L 614.070793 153.786808 
L 617.447455 153.877071 
L 620.824118 153.967333 
L 624.20078 154.057596 
L 627.577443 154.147859 
L 630.954106 154.238122 
L 634.330768 154.328385 
L 637.707431 154.418648 
L 641.084093 154.50891 
L 644.460756 154.599173 
L 647.837418 154.689436 
L 651.214081 154.779699 
L 654.590744 154.869962 
L 657.967406 154.960225 
L 661.344069 155.050488 
L 664.720731 155.14075 
L 668.097394 155.231013 
L 671.474056 155.321276 
L 674.850719 155.411539 
L 678.227381 155.501802 
L 681.604044 155.592065 
L 684.980707 155.682327 
L 688.357369 155.77259 
L 691.734032 155.862853 
L 695.110694 155.953116 
L 698.487357 156.043379 
L 701.864019 156.133642 
L 705.240682 156.223904 
L 708.617345 156.314167 
L 711.994007 156.40443 
L 715.37067 156.494693 
L 718.747332 156.584956 
L 722.123995 156.675219 
L 725.500657 156.765481 
L 728.87732 156.855744 
L 732.253983 156.946007 
L 735.630645 157.03627 
L 739.007308 157.126533 
L 742.38397 157.216796 
L 745.760633 157.307059 
L 749.137295 157.397321 
L 752.513958 157.487584 
L 755.890621 157.577847 
L 759.267283 157.66811 
L 762.643946 157.758373 
L 766.020608 157.848636 
L 769.397271 157.938898 
L 772.773933 158.029161 
L 776.150596 158.119424 
L 779.527258 158.209687 
L 782.903921 158.29995 
L 786.280584 158.390213 
L 789.657246 158.480475 
L 793.033909 158.570738 
L 796.410571 158.661001 
L 799.787234 158.751264 
L 803.163896 158.841527 
L 806.540559 158.93179 
L 809.917222 159.022052 
L 813.293884 159.112315 
L 816.670547 159.202578 
L 820.047209 159.292841 
L 823.423872 159.383104 
L 826.800534 159.473367 
L 830.177197 159.56363 
L 833.55386 159.653892 
" clip-path="url(#pf3865dd5dc)" style="fill: none; stroke-dasharray: 7.4,3.2; stroke-dashoffset: 0; stroke: #ff0000; stroke-opacity: 0.8; stroke-width: 2"/>
   </g>
   <g id="patch_9">
    <path d="M 482.549786 313.838125 
L 482.549786 22.318125 
" style="fill: none; stroke: #000000; stroke-width: 0.8; stroke-linejoin: miter; stroke-linecap: square"/>
   </g>
   <g id="patch_10">
    <path d="M 850.268339 313.838125 
L 850.268339 22.318125 
" style="fill: none; stroke: #000000; stroke-width: 0.8; stroke-linejoin: miter; stroke-linecap: square"/>
   </g>
   <g id="patch_11">
    <path d="M 482.549786 313.838125 
L 850.268339 313.838125 
" style="fill: none; stroke: #000000; stroke-width: 0.8; stroke-linejoin: miter; stroke-linecap: square"/>
   </g>
   <g id="patch_12">
    <path d="M 482.549786 22.318125 
L 850.268339 22.318125 
" style="fill: none; stroke: #000000; stroke-width: 0.8; stroke-linejoin: miter; stroke-linecap: square"/>
   </g>
   <g id="text_34">
    <g id="patch_13">
     <path d="M 500.935713 60.770062 
L 554.256026 60.770062 
Q 557.256026 60.770062 557.256026 57.770062 
L 557.256026 36.894125 
Q 557.256026 33.894125 554.256026 33.894125 
L 500.935713 33.894125 
Q 497.935713 33.894125 497.935713 36.894125 
L 497.935713 57.770062 
Q 497.935713 60.770062 500.935713 60.770062 
z
" style="fill: #f5deb3; opacity: 0.5; stroke: #000000; stroke-linejoin: miter"/>
    </g>
    <!-- Ï = -0.062 -->
    <g transform="translate(500.935713 44.492562) scale(0.1 -0.1)">
     <use xlink:href="#DejaVuSans-3c1"/>
     <use xlink:href="#DejaVuSans-20" transform="translate(63.476562 0)"/>
     <use xlink:href="#DejaVuSans-3d" transform="translate(95.263672 0)"/>
     <use xlink:href="#DejaVuSans-20" transform="translate(179.052734 0)"/>
     <use xlink:href="#DejaVuSans-2d" transform="translate(210.839844 0)"/>
     <use xlink:href="#DejaVuSans-30" transform="translate(246.923828 0)"/>
     <use xlink:href="#DejaVuSans-2e" transform="translate(310.546875 0)"/>
     <use xlink:href="#DejaVuSans-30" transform="translate(342.333984 0)"/>
     <use xlink:href="#DejaVuSans-36" transform="translate(405.957031 0)"/>
     <use xlink:href="#DejaVuSans-32" transform="translate(469.580078 0)"/>
    </g>
    <!-- p = 0.712 -->
    <g transform="translate(500.935713 55.690375) scale(0.1 -0.1)">
     <use xlink:href="#DejaVuSans-70"/>
     <use xlink:href="#DejaVuSans-20" transform="translate(63.476562 0)"/>
     <use xlink:href="#DejaVuSans-3d" transform="translate(95.263672 0)"/>
     <use xlink:href="#DejaVuSans-20" transform="translate(179.052734 0)"/>
     <use xlink:href="#DejaVuSans-30" transform="translate(210.839844 0)"/>
     <use xlink:href="#DejaVuSans-2e" transform="translate(274.462891 0)"/>
     <use xlink:href="#DejaVuSans-37" transform="translate(306.25 0)"/>
     <use xlink:href="#DejaVuSans-31" transform="translate(369.873047 0)"/>
     <use xlink:href="#DejaVuSans-32" transform="translate(433.496094 0)"/>
    </g>
   </g>
   <g id="text_35">
    <!-- Score vs GC Content -->
    <g transform="translate(604.507812 16.318125) scale(0.12 -0.12)">
     <use xlink:href="#DejaVuSans-53"/>
     <use xlink:href="#DejaVuSans-63" transform="translate(63.476562 0)"/>
     <use xlink:href="#DejaVuSans-6f" transform="translate(118.457031 0)"/>
     <use xlink:href="#DejaVuSans-72" transform="translate(179.638672 0)"/>
     <use xlink:href="#DejaVuSans-65" transform="translate(218.501953 0)"/>
     <use xlink:href="#DejaVuSans-20" transform="translate(280.025391 0)"/>
     <use xlink:href="#DejaVuSans-76" transform="translate(311.8125 0)"/>
     <use xlink:href="#DejaVuSans-73" transform="translate(370.992188 0)"/>
     <use xlink:href="#DejaVuSans-20" transform="translate(423.091797 0)"/>
     <use xlink:href="#DejaVuSans-47" transform="translate(454.878906 0)"/>
     <use xlink:href="#DejaVuSans-43" transform="translate(532.369141 0)"/>
     <use xlink:href="#DejaVuSans-20" transform="translate(602.193359 0)"/>
     <use xlink:href="#DejaVuSans-43" transform="translate(633.980469 0)"/>
     <use xlink:href="#DejaVuSans-6f" transform="translate(703.804688 0)"/>
     <use xlink:href="#DejaVuSans-6e" transform="translate(764.986328 0)"/>
     <use xlink:href="#DejaVuSans-74" transform="translate(828.365234 0)"/>
     <use xlink:href="#DejaVuSans-65" transform="translate(867.574219 0)"/>
     <use xlink:href="#DejaVuSans-6e" transform="translate(929.097656 0)"/>
     <use xlink:href="#DejaVuSans-74" transform="translate(992.476562 0)"/>
    </g>
   </g>
  </g>
  <g id="axes_3">
   <g id="patch_14">
    <path d="M 913.988009 313.838125 
L 1281.706562 313.838125 
L 1281.706562 22.318125 
L 913.988009 22.318125 
z
" style="fill: #ffffff"/>
   </g>
   <g id="PathCollection_3">
    <g clip-path="url(#p716f4850e3)">
     <use xlink:href="#m0f68265d20" x="1032.4428" y="206.301901" style="fill: #1f77b4; fill-opacity: 0.6; stroke: #1f77b4; stroke-opacity: 0.6"/>
     <use xlink:href="#m0f68265d20" x="1206.854762" y="75.321761" style="fill: #1f77b4; fill-opacity: 0.6; stroke: #1f77b4; stroke-opacity: 0.6"/>
     <use xlink:href="#m0f68265d20" x="1003.37414" y="134.950852" style="fill: #1f77b4; fill-opacity: 0.6; stroke: #1f77b4; stroke-opacity: 0.6"/>
     <use xlink:href="#m0f68265d20" x="1185.053267" y="207.321202" style="fill: #1f77b4; fill-opacity: 0.6; stroke: #1f77b4; stroke-opacity: 0.6"/>
     <use xlink:href="#m0f68265d20" x="937.969654" y="35.569034" style="fill: #1f77b4; fill-opacity: 0.6; stroke: #1f77b4; stroke-opacity: 0.6"/>
     <use xlink:href="#m0f68265d20" x="1076.04579" y="173.174628" style="fill: #1f77b4; fill-opacity: 0.6; stroke: #1f77b4; stroke-opacity: 0.6"/>
     <use xlink:href="#m0f68265d20" x="1083.312956" y="138.008754" style="fill: #1f77b4; fill-opacity: 0.6; stroke: #1f77b4; stroke-opacity: 0.6"/>
     <use xlink:href="#m0f68265d20" x="1119.648781" y="196.108894" style="fill: #1f77b4; fill-opacity: 0.6; stroke: #1f77b4; stroke-opacity: 0.6"/>
     <use xlink:href="#m0f68265d20" x="1126.915946" y="152.278964" style="fill: #1f77b4; fill-opacity: 0.6; stroke: #1f77b4; stroke-opacity: 0.6"/>
     <use xlink:href="#m0f68265d20" x="1264.992083" y="174.193929" style="fill: #1f77b4; fill-opacity: 0.6; stroke: #1f77b4; stroke-opacity: 0.6"/>
     <use xlink:href="#m0f68265d20" x="945.236819" y="173.174628" style="fill: #1f77b4; fill-opacity: 0.6; stroke: #1f77b4; stroke-opacity: 0.6"/>
     <use xlink:href="#m0f68265d20" x="1076.04579" y="66.657705" style="fill: #1f77b4; fill-opacity: 0.6; stroke: #1f77b4; stroke-opacity: 0.6"/>
     <use xlink:href="#m0f68265d20" x="1025.175635" y="164.510573" style="fill: #1f77b4; fill-opacity: 0.6; stroke: #1f77b4; stroke-opacity: 0.6"/>
     <use xlink:href="#m0f68265d20" x="1112.381616" y="230.255468" style="fill: #1f77b4; fill-opacity: 0.6; stroke: #1f77b4; stroke-opacity: 0.6"/>
     <use xlink:href="#m0f68265d20" x="1126.915946" y="169.607076" style="fill: #1f77b4; fill-opacity: 0.6; stroke: #1f77b4; stroke-opacity: 0.6"/>
     <use xlink:href="#m0f68265d20" x="1243.190588" y="154.827216" style="fill: #1f77b4; fill-opacity: 0.6; stroke: #1f77b4; stroke-opacity: 0.6"/>
     <use xlink:href="#m0f68265d20" x="1025.175635" y="120.680642" style="fill: #1f77b4; fill-opacity: 0.6; stroke: #1f77b4; stroke-opacity: 0.6"/>
     <use xlink:href="#m0f68265d20" x="1214.121927" y="145.65351" style="fill: #1f77b4; fill-opacity: 0.6; stroke: #1f77b4; stroke-opacity: 0.6"/>
     <use xlink:href="#m0f68265d20" x="967.038314" y="104.371831" style="fill: #1f77b4; fill-opacity: 0.6; stroke: #1f77b4; stroke-opacity: 0.6"/>
     <use xlink:href="#m0f68265d20" x="1054.244295" y="136.989454" style="fill: #1f77b4; fill-opacity: 0.6; stroke: #1f77b4; stroke-opacity: 0.6"/>
     <use xlink:href="#m0f68265d20" x="996.106974" y="300.587216" style="fill: #1f77b4; fill-opacity: 0.6; stroke: #1f77b4; stroke-opacity: 0.6"/>
     <use xlink:href="#m0f68265d20" x="1032.4428" y="157.885118" style="fill: #1f77b4; fill-opacity: 0.6; stroke: #1f77b4; stroke-opacity: 0.6"/>
     <use xlink:href="#m0f68265d20" x="1214.121927" y="79.398964" style="fill: #1f77b4; fill-opacity: 0.6; stroke: #1f77b4; stroke-opacity: 0.6"/>
     <use xlink:href="#m0f68265d20" x="1054.244295" y="252.170433" style="fill: #1f77b4; fill-opacity: 0.6; stroke: #1f77b4; stroke-opacity: 0.6"/>
     <use xlink:href="#m0f68265d20" x="1112.381616" y="192.031691" style="fill: #1f77b4; fill-opacity: 0.6; stroke: #1f77b4; stroke-opacity: 0.6"/>
     <use xlink:href="#m0f68265d20" x="1250.457753" y="124.248195" style="fill: #1f77b4; fill-opacity: 0.6; stroke: #1f77b4; stroke-opacity: 0.6"/>
     <use xlink:href="#m0f68265d20" x="1250.457753" y="117.11309" style="fill: #1f77b4; fill-opacity: 0.6; stroke: #1f77b4; stroke-opacity: 0.6"/>
     <use xlink:href="#m0f68265d20" x="988.839809" y="161.45267" style="fill: #1f77b4; fill-opacity: 0.6; stroke: #1f77b4; stroke-opacity: 0.6"/>
     <use xlink:href="#m0f68265d20" x="981.572644" y="213.946656" style="fill: #1f77b4; fill-opacity: 0.6; stroke: #1f77b4; stroke-opacity: 0.6"/>
     <use xlink:href="#m0f68265d20" x="981.572644" y="112.016587" style="fill: #1f77b4; fill-opacity: 0.6; stroke: #1f77b4; stroke-opacity: 0.6"/>
     <use xlink:href="#m0f68265d20" x="1221.389092" y="178.271132" style="fill: #1f77b4; fill-opacity: 0.6; stroke: #1f77b4; stroke-opacity: 0.6"/>
     <use xlink:href="#m0f68265d20" x="981.572644" y="117.62274" style="fill: #1f77b4; fill-opacity: 0.6; stroke: #1f77b4; stroke-opacity: 0.6"/>
     <use xlink:href="#m0f68265d20" x="1090.580121" y="228.726517" style="fill: #1f77b4; fill-opacity: 0.6; stroke: #1f77b4; stroke-opacity: 0.6"/>
     <use xlink:href="#m0f68265d20" x="1214.121927" y="112.016587" style="fill: #1f77b4; fill-opacity: 0.6; stroke: #1f77b4; stroke-opacity: 0.6"/>
     <use xlink:href="#m0f68265d20" x="1177.786102" y="97.746377" style="fill: #1f77b4; fill-opacity: 0.6; stroke: #1f77b4; stroke-opacity: 0.6"/>
     <use xlink:href="#m0f68265d20" x="930.702489" y="89.082321" style="fill: #1f77b4; fill-opacity: 0.6; stroke: #1f77b4; stroke-opacity: 0.6"/>
     <use xlink:href="#m0f68265d20" x="1025.175635" y="176.742181" style="fill: #1f77b4; fill-opacity: 0.6; stroke: #1f77b4; stroke-opacity: 0.6"/>
     <use xlink:href="#m0f68265d20" x="1032.4428" y="208.850153" style="fill: #1f77b4; fill-opacity: 0.6; stroke: #1f77b4; stroke-opacity: 0.6"/>
    </g>
   </g>
   <g id="matplotlib.axis_5">
    <g id="xtick_14">
     <g id="line2d_57">
      <path d="M 981.572644 313.838125 
L 981.572644 22.318125 
" clip-path="url(#p716f4850e3)" style="fill: none; stroke: #b0b0b0; stroke-opacity: 0.3; stroke-width: 0.8; stroke-linecap: square"/>
     </g>
     <g id="line2d_58">
      <g>
       <use xlink:href="#mc5bc809aa8" x="981.572644" y="313.838125" style="stroke: #000000; stroke-width: 0.8"/>
      </g>
     </g>
     <g id="text_36">
      <!-- 10 -->
      <g transform="translate(975.210144 328.436563) scale(0.1 -0.1)">
       <use xlink:href="#DejaVuSans-31"/>
       <use xlink:href="#DejaVuSans-30" transform="translate(63.623047 0)"/>
      </g>
     </g>
    </g>
    <g id="xtick_15">
     <g id="line2d_59">
      <path d="M 1054.244295 313.838125 
L 1054.244295 22.318125 
" clip-path="url(#p716f4850e3)" style="fill: none; stroke: #b0b0b0; stroke-opacity: 0.3; stroke-width: 0.8; stroke-linecap: square"/>
     </g>
     <g id="line2d_60">
      <g>
       <use xlink:href="#mc5bc809aa8" x="1054.244295" y="313.838125" style="stroke: #000000; stroke-width: 0.8"/>
      </g>
     </g>
     <g id="text_37">
      <!-- 20 -->
      <g transform="translate(1047.881795 328.436563) scale(0.1 -0.1)">
       <use xlink:href="#DejaVuSans-32"/>
       <use xlink:href="#DejaVuSans-30" transform="translate(63.623047 0)"/>
      </g>
     </g>
    </g>
    <g id="xtick_16">
     <g id="line2d_61">
      <path d="M 1126.915946 313.838125 
L 1126.915946 22.318125 
" clip-path="url(#p716f4850e3)" style="fill: none; stroke: #b0b0b0; stroke-opacity: 0.3; stroke-width: 0.8; stroke-linecap: square"/>
     </g>
     <g id="line2d_62">
      <g>
       <use xlink:href="#mc5bc809aa8" x="1126.915946" y="313.838125" style="stroke: #000000; stroke-width: 0.8"/>
      </g>
     </g>
     <g id="text_38">
      <!-- 30 -->
      <g transform="translate(1120.553446 328.436563) scale(0.1 -0.1)">
       <use xlink:href="#DejaVuSans-33"/>
       <use xlink:href="#DejaVuSans-30" transform="translate(63.623047 0)"/>
      </g>
     </g>
    </g>
    <g id="xtick_17">
     <g id="line2d_63">
      <path d="M 1199.587597 313.838125 
L 1199.587597 22.318125 
" clip-path="url(#p716f4850e3)" style="fill: none; stroke: #b0b0b0; stroke-opacity: 0.3; stroke-width: 0.8; stroke-linecap: square"/>
     </g>
     <g id="line2d_64">
      <g>
       <use xlink:href="#mc5bc809aa8" x="1199.587597" y="313.838125" style="stroke: #000000; stroke-width: 0.8"/>
      </g>
     </g>
     <g id="text_39">
      <!-- 40 -->
      <g transform="translate(1193.225097 328.436563) scale(0.1 -0.1)">
       <use xlink:href="#DejaVuSans-34"/>
       <use xlink:href="#DejaVuSans-30" transform="translate(63.623047 0)"/>
      </g>
     </g>
    </g>
    <g id="xtick_18">
     <g id="line2d_65">
      <path d="M 1272.259248 313.838125 
L 1272.259248 22.318125 
" clip-path="url(#p716f4850e3)" style="fill: none; stroke: #b0b0b0; stroke-opacity: 0.3; stroke-width: 0.8; stroke-linecap: square"/>
     </g>
     <g id="line2d_66">
      <g>
       <use xlink:href="#mc5bc809aa8" x="1272.259248" y="313.838125" style="stroke: #000000; stroke-width: 0.8"/>
      </g>
     </g>
     <g id="text_40">
      <!-- 50 -->
      <g transform="translate(1265.896748 328.436563) scale(0.1 -0.1)">
       <use xlink:href="#DejaVuSans-35"/>
       <use xlink:href="#DejaVuSans-30" transform="translate(63.623047 0)"/>
      </g>
     </g>
    </g>
    <g id="text_41">
     <!-- Exon Count -->
     <g transform="translate(1066.356348 342.874531) scale(0.11 -0.11)">
      <defs>
       <path id="DejaVuSans-45" d="M 628 4666 
L 3578 4666 
L 3578 4134 
L 1259 4134 
L 1259 2753 
L 3481 2753 
L 3481 2222 
L 1259 2222 
L 1259 531 
L 3634 531 
L 3634 0 
L 628 0 
L 628 4666 
z
" transform="scale(0.015625)"/>
       <path id="DejaVuSans-78" d="M 3513 3500 
L 2247 1797 
L 3578 0 
L 2900 0 
L 1881 1375 
L 863 0 
L 184 0 
L 1544 1831 
L 300 3500 
L 978 3500 
L 1906 2253 
L 2834 3500 
L 3513 3500 
z
" transform="scale(0.015625)"/>
       <path id="DejaVuSans-75" d="M 544 1381 
L 544 3500 
L 1119 3500 
L 1119 1403 
Q 1119 906 1312 657 
Q 1506 409 1894 409 
Q 2359 409 2629 706 
Q 2900 1003 2900 1516 
L 2900 3500 
L 3475 3500 
L 3475 0 
L 2900 0 
L 2900 538 
Q 2691 219 2414 64 
Q 2138 -91 1772 -91 
Q 1169 -91 856 284 
Q 544 659 544 1381 
z
M 1991 3584 
L 1991 3584 
z
" transform="scale(0.015625)"/>
      </defs>
      <use xlink:href="#DejaVuSans-45"/>
      <use xlink:href="#DejaVuSans-78" transform="translate(63.183594 0)"/>
      <use xlink:href="#DejaVuSans-6f" transform="translate(119.238281 0)"/>
      <use xlink:href="#DejaVuSans-6e" transform="translate(180.419922 0)"/>
      <use xlink:href="#DejaVuSans-20" transform="translate(243.798828 0)"/>
      <use xlink:href="#DejaVuSans-43" transform="translate(275.585938 0)"/>
      <use xlink:href="#DejaVuSans-6f" transform="translate(345.410156 0)"/>
      <use xlink:href="#DejaVuSans-75" transform="translate(406.591797 0)"/>
      <use xlink:href="#DejaVuSans-6e" transform="translate(469.970703 0)"/>
      <use xlink:href="#DejaVuSans-74" transform="translate(533.349609 0)"/>
     </g>
    </g>
   </g>
   <g id="matplotlib.axis_6">
    <g id="ytick_15">
     <g id="line2d_67">
      <path d="M 913.988009 276.123999 
L 1281.706562 276.123999 
" clip-path="url(#p716f4850e3)" style="fill: none; stroke: #b0b0b0; stroke-opacity: 0.3; stroke-width: 0.8; stroke-linecap: square"/>
     </g>
     <g id="line2d_68">
      <g>
       <use xlink:href="#m35e26086ce" x="913.988009" y="276.123999" style="stroke: #000000; stroke-width: 0.8"/>
      </g>
     </g>
     <g id="text_42">
      <!-- 0.38 -->
      <g transform="translate(884.722384 279.923218) scale(0.1 -0.1)">
       <use xlink:href="#DejaVuSans-30"/>
       <use xlink:href="#DejaVuSans-2e" transform="translate(63.623047 0)"/>
       <use xlink:href="#DejaVuSans-33" transform="translate(95.410156 0)"/>
       <use xlink:href="#DejaVuSans-38" transform="translate(159.033203 0)"/>
      </g>
     </g>
    </g>
    <g id="ytick_16">
     <g id="line2d_69">
      <path d="M 913.988009 235.351971 
L 1281.706562 235.351971 
" clip-path="url(#p716f4850e3)" style="fill: none; stroke: #b0b0b0; stroke-opacity: 0.3; stroke-width: 0.8; stroke-linecap: square"/>
     </g>
     <g id="line2d_70">
      <g>
       <use xlink:href="#m35e26086ce" x="913.988009" y="235.351971" style="stroke: #000000; stroke-width: 0.8"/>
      </g>
     </g>
     <g id="text_43">
      <!-- 0.39 -->
      <g transform="translate(884.722384 239.15119) scale(0.1 -0.1)">
       <use xlink:href="#DejaVuSans-30"/>
       <use xlink:href="#DejaVuSans-2e" transform="translate(63.623047 0)"/>
       <use xlink:href="#DejaVuSans-33" transform="translate(95.410156 0)"/>
       <use xlink:href="#DejaVuSans-39" transform="translate(159.033203 0)"/>
      </g>
     </g>
    </g>
    <g id="ytick_17">
     <g id="line2d_71">
      <path d="M 913.988009 194.579943 
L 1281.706562 194.579943 
" clip-path="url(#p716f4850e3)" style="fill: none; stroke: #b0b0b0; stroke-opacity: 0.3; stroke-width: 0.8; stroke-linecap: square"/>
     </g>
     <g id="line2d_72">
      <g>
       <use xlink:href="#m35e26086ce" x="913.988009" y="194.579943" style="stroke: #000000; stroke-width: 0.8"/>
      </g>
     </g>
     <g id="text_44">
      <!-- 0.40 -->
      <g transform="translate(884.722384 198.379162) scale(0.1 -0.1)">
       <use xlink:href="#DejaVuSans-30"/>
       <use xlink:href="#DejaVuSans-2e" transform="translate(63.623047 0)"/>
       <use xlink:href="#DejaVuSans-34" transform="translate(95.410156 0)"/>
       <use xlink:href="#DejaVuSans-30" transform="translate(159.033203 0)"/>
      </g>
     </g>
    </g>
    <g id="ytick_18">
     <g id="line2d_73">
      <path d="M 913.988009 153.807915 
L 1281.706562 153.807915 
" clip-path="url(#p716f4850e3)" style="fill: none; stroke: #b0b0b0; stroke-opacity: 0.3; stroke-width: 0.8; stroke-linecap: square"/>
     </g>
     <g id="line2d_74">
      <g>
       <use xlink:href="#m35e26086ce" x="913.988009" y="153.807915" style="stroke: #000000; stroke-width: 0.8"/>
      </g>
     </g>
     <g id="text_45">
      <!-- 0.41 -->
      <g transform="translate(884.722384 157.607134) scale(0.1 -0.1)">
       <use xlink:href="#DejaVuSans-30"/>
       <use xlink:href="#DejaVuSans-2e" transform="translate(63.623047 0)"/>
       <use xlink:href="#DejaVuSans-34" transform="translate(95.410156 0)"/>
       <use xlink:href="#DejaVuSans-31" transform="translate(159.033203 0)"/>
      </g>
     </g>
    </g>
    <g id="ytick_19">
     <g id="line2d_75">
      <path d="M 913.988009 113.035887 
L 1281.706562 113.035887 
" clip-path="url(#p716f4850e3)" style="fill: none; stroke: #b0b0b0; stroke-opacity: 0.3; stroke-width: 0.8; stroke-linecap: square"/>
     </g>
     <g id="line2d_76">
      <g>
       <use xlink:href="#m35e26086ce" x="913.988009" y="113.035887" style="stroke: #000000; stroke-width: 0.8"/>
      </g>
     </g>
     <g id="text_46">
      <!-- 0.42 -->
      <g transform="translate(884.722384 116.835106) scale(0.1 -0.1)">
       <use xlink:href="#DejaVuSans-30"/>
       <use xlink:href="#DejaVuSans-2e" transform="translate(63.623047 0)"/>
       <use xlink:href="#DejaVuSans-34" transform="translate(95.410156 0)"/>
       <use xlink:href="#DejaVuSans-32" transform="translate(159.033203 0)"/>
      </g>
     </g>
    </g>
    <g id="ytick_20">
     <g id="line2d_77">
      <path d="M 913.988009 72.263859 
L 1281.706562 72.263859 
" clip-path="url(#p716f4850e3)" style="fill: none; stroke: #b0b0b0; stroke-opacity: 0.3; stroke-width: 0.8; stroke-linecap: square"/>
     </g>
     <g id="line2d_78">
      <g>
       <use xlink:href="#m35e26086ce" x="913.988009" y="72.263859" style="stroke: #000000; stroke-width: 0.8"/>
      </g>
     </g>
     <g id="text_47">
      <!-- 0.43 -->
      <g transform="translate(884.722384 76.063078) scale(0.1 -0.1)">
       <use xlink:href="#DejaVuSans-30"/>
       <use xlink:href="#DejaVuSans-2e" transform="translate(63.623047 0)"/>
       <use xlink:href="#DejaVuSans-34" transform="translate(95.410156 0)"/>
       <use xlink:href="#DejaVuSans-33" transform="translate(159.033203 0)"/>
      </g>
     </g>
    </g>
    <g id="ytick_21">
     <g id="line2d_79">
      <path d="M 913.988009 31.491831 
L 1281.706562 31.491831 
" clip-path="url(#p716f4850e3)" style="fill: none; stroke: #b0b0b0; stroke-opacity: 0.3; stroke-width: 0.8; stroke-linecap: square"/>
     </g>
     <g id="line2d_80">
      <g>
       <use xlink:href="#m35e26086ce" x="913.988009" y="31.491831" style="stroke: #000000; stroke-width: 0.8"/>
      </g>
     </g>
     <g id="text_48">
      <!-- 0.44 -->
      <g transform="translate(884.722384 35.29105) scale(0.1 -0.1)">
       <use xlink:href="#DejaVuSans-30"/>
       <use xlink:href="#DejaVuSans-2e" transform="translate(63.623047 0)"/>
       <use xlink:href="#DejaVuSans-34" transform="translate(95.410156 0)"/>
       <use xlink:href="#DejaVuSans-34" transform="translate(159.033203 0)"/>
      </g>
     </g>
    </g>
    <g id="text_49">
     <!-- Target-Lock Score -->
     <g transform="translate(878.434728 216.774609) rotate(-90) scale(0.11 -0.11)">
      <use xlink:href="#DejaVuSans-54"/>
      <use xlink:href="#DejaVuSans-61" transform="translate(44.583984 0)"/>
      <use xlink:href="#DejaVuSans-72" transform="translate(105.863281 0)"/>
      <use xlink:href="#DejaVuSans-67" transform="translate(145.226562 0)"/>
      <use xlink:href="#DejaVuSans-65" transform="translate(208.703125 0)"/>
      <use xlink:href="#DejaVuSans-74" transform="translate(270.226562 0)"/>
      <use xlink:href="#DejaVuSans-2d" transform="translate(309.435547 0)"/>
      <use xlink:href="#DejaVuSans-4c" transform="translate(345.519531 0)"/>
      <use xlink:href="#DejaVuSans-6f" transform="translate(399.482422 0)"/>
      <use xlink:href="#DejaVuSans-63" transform="translate(460.664062 0)"/>
      <use xlink:href="#DejaVuSans-6b" transform="translate(515.644531 0)"/>
      <use xlink:href="#DejaVuSans-20" transform="translate(573.554688 0)"/>
      <use xlink:href="#DejaVuSans-53" transform="translate(605.341797 0)"/>
      <use xlink:href="#DejaVuSans-63" transform="translate(668.818359 0)"/>
      <use xlink:href="#DejaVuSans-6f" transform="translate(723.798828 0)"/>
      <use xlink:href="#DejaVuSans-72" transform="translate(784.980469 0)"/>
      <use xlink:href="#DejaVuSans-65" transform="translate(823.84375 0)"/>
     </g>
    </g>
   </g>
   <g id="line2d_81">
    <path d="M 930.702489 159.533727 
L 934.079151 159.43099 
L 937.455814 159.328252 
L 940.832476 159.225515 
L 944.209139 159.122777 
L 947.585802 159.02004 
L 950.962464 158.917302 
L 954.339127 158.814565 
L 957.715789 158.711827 
L 961.092452 158.609089 
L 964.469114 158.506352 
L 967.845777 158.403614 
L 971.222439 158.300877 
L 974.599102 158.198139 
L 977.975765 158.095402 
L 981.352427 157.992664 
L 984.72909 157.889927 
L 988.105752 157.787189 
L 991.482415 157.684451 
L 994.859077 157.581714 
L 998.23574 157.478976 
L 1001.612403 157.376239 
L 1004.989065 157.273501 
L 1008.365728 157.170764 
L 1011.74239 157.068026 
L 1015.119053 156.965289 
L 1018.495715 156.862551 
L 1021.872378 156.759814 
L 1025.249041 156.657076 
L 1028.625703 156.554338 
L 1032.002366 156.451601 
L 1035.379028 156.348863 
L 1038.755691 156.246126 
L 1042.132353 156.143388 
L 1045.509016 156.040651 
L 1048.885679 155.937913 
L 1052.262341 155.835176 
L 1055.639004 155.732438 
L 1059.015666 155.6297 
L 1062.392329 155.526963 
L 1065.768991 155.424225 
L 1069.145654 155.321488 
L 1072.522316 155.21875 
L 1075.898979 155.116013 
L 1079.275642 155.013275 
L 1082.652304 154.910538 
L 1086.028967 154.8078 
L 1089.405629 154.705062 
L 1092.782292 154.602325 
L 1096.158954 154.499587 
L 1099.535617 154.39685 
L 1102.91228 154.294112 
L 1106.288942 154.191375 
L 1109.665605 154.088637 
L 1113.042267 153.9859 
L 1116.41893 153.883162 
L 1119.795592 153.780425 
L 1123.172255 153.677687 
L 1126.548918 153.574949 
L 1129.92558 153.472212 
L 1133.302243 153.369474 
L 1136.678905 153.266737 
L 1140.055568 153.163999 
L 1143.43223 153.061262 
L 1146.808893 152.958524 
L 1150.185556 152.855787 
L 1153.562218 152.753049 
L 1156.938881 152.650311 
L 1160.315543 152.547574 
L 1163.692206 152.444836 
L 1167.068868 152.342099 
L 1170.445531 152.239361 
L 1173.822193 152.136624 
L 1177.198856 152.033886 
L 1180.575519 151.931149 
L 1183.952181 151.828411 
L 1187.328844 151.725673 
L 1190.705506 151.622936 
L 1194.082169 151.520198 
L 1197.458831 151.417461 
L 1200.835494 151.314723 
L 1204.212157 151.211986 
L 1207.588819 151.109248 
L 1210.965482 151.006511 
L 1214.342144 150.903773 
L 1217.718807 150.801036 
L 1221.095469 150.698298 
L 1224.472132 150.59556 
L 1227.848795 150.492823 
L 1231.225457 150.390085 
L 1234.60212 150.287348 
L 1237.978782 150.18461 
L 1241.355445 150.081873 
L 1244.732107 149.979135 
L 1248.10877 149.876398 
L 1251.485433 149.77366 
L 1254.862095 149.670922 
L 1258.238758 149.568185 
L 1261.61542 149.465447 
L 1264.992083 149.36271 
" clip-path="url(#p716f4850e3)" style="fill: none; stroke-dasharray: 7.4,3.2; stroke-dashoffset: 0; stroke: #ff0000; stroke-opacity: 0.8; stroke-width: 2"/>
   </g>
   <g id="patch_15">
    <path d="M 913.988009 313.838125 
L 913.988009 22.318125 
" style="fill: none; stroke: #000000; stroke-width: 0.8; stroke-linejoin: miter; stroke-linecap: square"/>
   </g>
   <g id="patch_16">
    <path d="M 1281.706562 313.838125 
L 1281.706562 22.318125 
" style="fill: none; stroke: #000000; stroke-width: 0.8; stroke-linejoin: miter; stroke-linecap: square"/>
   </g>
   <g id="patch_17">
    <path d="M 913.988009 313.838125 
L 1281.706563 313.838125 
" style="fill: none; stroke: #000000; stroke-width: 0.8; stroke-linejoin: miter; stroke-linecap: square"/>
   </g>
   <g id="patch_18">
    <path d="M 913.988009 22.318125 
L 1281.706563 22.318125 
" style="fill: none; stroke: #000000; stroke-width: 0.8; stroke-linejoin: miter; stroke-linecap: square"/>
   </g>
   <g id="text_50">
    <g id="patch_19">
     <path d="M 932.373937 60.770062 
L 985.694249 60.770062 
Q 988.694249 60.770062 988.694249 57.770062 
L 988.694249 36.894125 
Q 988.694249 33.894125 985.694249 33.894125 
L 932.373937 33.894125 
Q 929.373937 33.894125 929.373937 36.894125 
L 929.373937 57.770062 
Q 929.373937 60.770062 932.373937 60.770062 
z
" style="fill: #f5deb3; opacity: 0.5; stroke: #000000; stroke-linejoin: miter"/>
    </g>
    <!-- Ï = -0.020 -->
    <g transform="translate(932.373937 44.492562) scale(0.1 -0.1)">
     <use xlink:href="#DejaVuSans-3c1"/>
     <use xlink:href="#DejaVuSans-20" transform="translate(63.476562 0)"/>
     <use xlink:href="#DejaVuSans-3d" transform="translate(95.263672 0)"/>
     <use xlink:href="#DejaVuSans-20" transform="translate(179.052734 0)"/>
     <use xlink:href="#DejaVuSans-2d" transform="translate(210.839844 0)"/>
     <use xlink:href="#DejaVuSans-30" transform="translate(246.923828 0)"/>
     <use xlink:href="#DejaVuSans-2e" transform="translate(310.546875 0)"/>
     <use xlink:href="#DejaVuSans-30" transform="translate(342.333984 0)"/>
     <use xlink:href="#DejaVuSans-32" transform="translate(405.957031 0)"/>
     <use xlink:href="#DejaVuSans-30" transform="translate(469.580078 0)"/>
    </g>
    <!-- p = 0.903 -->
    <g transform="translate(932.373937 55.690375) scale(0.1 -0.1)">
     <use xlink:href="#DejaVuSans-70"/>
     <use xlink:href="#DejaVuSans-20" transform="translate(63.476562 0)"/>
     <use xlink:href="#DejaVuSans-3d" transform="translate(95.263672 0)"/>
     <use xlink:href="#DejaVuSans-20" transform="translate(179.052734 0)"/>
     <use xlink:href="#DejaVuSans-30" transform="translate(210.839844 0)"/>
     <use xlink:href="#DejaVuSans-2e" transform="translate(274.462891 0)"/>
     <use xlink:href="#DejaVuSans-39" transform="translate(306.25 0)"/>
     <use xlink:href="#DejaVuSans-30" transform="translate(369.873047 0)"/>
     <use xlink:href="#DejaVuSans-33" transform="translate(433.496094 0)"/>
    </g>
   </g>
   <g id="text_51">
    <!-- Score vs Number of Exons -->
    <g transform="translate(1019.099161 16.318125) scale(0.12 -0.12)">
     <defs>
      <path id="DejaVuSans-4e" d="M 628 4666 
L 1478 4666 
L 3547 763 
L 3547 4666 
L 4159 4666 
L 4159 0 
L 3309 0 
L 1241 3903 
L 1241 0 
L 628 0 
L 628 4666 
z
" transform="scale(0.015625)"/>
      <path id="DejaVuSans-6d" d="M 3328 2828 
Q 3544 3216 3844 3400 
Q 4144 3584 4550 3584 
Q 5097 3584 5394 3201 
Q 5691 2819 5691 2113 
L 5691 0 
L 5113 0 
L 5113 2094 
Q 5113 2597 4934 2840 
Q 4756 3084 4391 3084 
Q 3944 3084 3684 2787 
Q 3425 2491 3425 1978 
L 3425 0 
L 2847 0 
L 2847 2094 
Q 2847 2600 2669 2842 
Q 2491 3084 2119 3084 
Q 1678 3084 1418 2786 
Q 1159 2488 1159 1978 
L 1159 0 
L 581 0 
L 581 3500 
L 1159 3500 
L 1159 2956 
Q 1356 3278 1631 3431 
Q 1906 3584 2284 3584 
Q 2666 3584 2933 3390 
Q 3200 3197 3328 2828 
z
" transform="scale(0.015625)"/>
      <path id="DejaVuSans-66" d="M 2375 4863 
L 2375 4384 
L 1825 4384 
Q 1516 4384 1395 4259 
Q 1275 4134 1275 3809 
L 1275 3500 
L 2222 3500 
L 2222 3053 
L 1275 3053 
L 1275 0 
L 697 0 
L 697 3053 
L 147 3053 
L 147 3500 
L 697 3500 
L 697 3744 
Q 697 4328 969 4595 
Q 1241 4863 1831 4863 
L 2375 4863 
z
" transform="scale(0.015625)"/>
     </defs>
     <use xlink:href="#DejaVuSans-53"/>
     <use xlink:href="#DejaVuSans-63" transform="translate(63.476562 0)"/>
     <use xlink:href="#DejaVuSans-6f" transform="translate(118.457031 0)"/>
     <use xlink:href="#DejaVuSans-72" transform="translate(179.638672 0)"/>
     <use xlink:href="#DejaVuSans-65" transform="translate(218.501953 0)"/>
     <use xlink:href="#DejaVuSans-20" transform="translate(280.025391 0)"/>
     <use xlink:href="#DejaVuSans-76" transform="translate(311.8125 0)"/>
     <use xlink:href="#DejaVuSans-73" transform="translate(370.992188 0)"/>
     <use xlink:href="#DejaVuSans-20" transform="translate(423.091797 0)"/>
     <use xlink:href="#DejaVuSans-4e" transform="translate(454.878906 0)"/>
     <use xlink:href="#DejaVuSans-75" transform="translate(529.683594 0)"/>
     <use xlink:href="#DejaVuSans-6d" transform="translate(593.0625 0)"/>
     <use xlink:href="#DejaVuSans-62" transform="translate(690.474609 0)"/>
     <use xlink:href="#DejaVuSans-65" transform="translate(753.951172 0)"/>
     <use xlink:href="#DejaVuSans-72" transform="translate(815.474609 0)"/>
     <use xlink:href="#DejaVuSans-20" transform="translate(856.587891 0)"/>
     <use xlink:href="#DejaVuSans-6f" transform="translate(888.375 0)"/>
     <use xlink:href="#DejaVuSans-66" transform="translate(949.556641 0)"/>
     <use xlink:href="#DejaVuSans-20" transform="translate(984.761719 0)"/>
     <use xlink:href="#DejaVuSans-45" transform="translate(1016.548828 0)"/>
     <use xlink:href="#DejaVuSans-78" transform="translate(1079.732422 0)"/>
     <use xlink:href="#DejaVuSans-6f" transform="translate(1135.787109 0)"/>
     <use xlink:href="#DejaVuSans-6e" transform="translate(1196.96875 0)"/>
     <use xlink:href="#DejaVuSans-73" transform="translate(1260.347656 0)"/>
    </g>
   </g>
  </g>
 </g>
 <defs>
  <clipPath id="pe144644929">
   <rect x="51.111563" y="22.318125" width="367.718554" height="291.52"/>
  </clipPath>
  <clipPath id="pf3865dd5dc">
   <rect x="482.549786" y="22.318125" width="367.718554" height="291.52"/>
  </clipPath>
  <clipPath id="p716f4850e3">
   <rect x="913.988009" y="22.318125" width="367.718554" height="291.52"/>
  </clipPath>
 </defs>
</svg>
