<?xml version="1.0" encoding="utf-8" standalone="no"?>
<!DOCTYPE svg PUBLIC "-//W3C//DTD SVG 1.1//EN"
  "http://www.w3.org/Graphics/SVG/1.1/DTD/svg11.dtd">
<svg xmlns:xlink="http://www.w3.org/1999/xlink" width="712.461875pt" height="424.048724pt" viewBox="0 0 712.461875 424.048724" xmlns="http://www.w3.org/2000/svg" version="1.1">
 <metadata>
  <rdf:RDF xmlns:dc="http://purl.org/dc/elements/1.1/" xmlns:cc="http://creativecommons.org/ns#" xmlns:rdf="http://www.w3.org/1999/02/22-rdf-syntax-ns#">
   <cc:Work>
    <dc:type rdf:resource="http://purl.org/dc/dcmitype/StillImage"/>
    <dc:date>2025-10-07T16:58:06.437230</dc:date>
    <dc:format>image/svg+xml</dc:format>
    <dc:creator>
     <cc:Agent>
      <dc:title>Matplotlib v3.10.3, https://matplotlib.org/</dc:title>
     </cc:Agent>
    </dc:creator>
   </cc:Work>
  </rdf:RDF>
 </metadata>
 <defs>
  <style type="text/css">*{stroke-linejoin: round; stroke-linecap: butt}</style>
 </defs>
 <g id="figure_1">
  <g id="patch_1">
   <path d="M 0 424.048724 
L 712.461875 424.048724 
L 712.461875 0 
L 0 0 
z
" style="fill: #ffffff"/>
  </g>
  <g id="axes_1">
   <g id="patch_2">
    <path d="M 45.716875 291.016167 
L 705.261875 291.016167 
L 705.261875 23.837812 
L 45.716875 23.837812 
z
" style="fill: #ffffff"/>
   </g>
   <g id="FillBetweenPolyCollection_1">
    <defs>
     <path id="mae947ba378" d="M 87.565673 -157.670115 
L 86.311202 -157.670115 
L 86.236161 -160.006096 
L 86.154602 -162.342077 
L 86.066301 -164.678059 
L 85.971069 -167.01404 
L 85.868763 -169.350022 
L 85.759289 -171.686003 
L 85.642608 -174.021984 
L 85.51874 -176.357966 
L 85.387768 -178.693947 
L 85.249846 -181.029929 
L 85.105194 -183.36591 
L 84.954106 -185.701891 
L 84.79695 -188.037873 
L 84.634163 -190.373854 
L 84.466253 -192.709835 
L 84.293794 -195.045817 
L 84.117423 -197.381798 
L 83.93783 -199.71778 
L 83.755758 -202.053761 
L 83.571987 -204.389742 
L 83.387329 -206.725724 
L 83.202619 -209.061705 
L 83.018699 -211.397687 
L 82.836414 -213.733668 
L 82.656594 -216.069649 
L 82.480049 -218.405631 
L 82.307553 -220.741612 
L 82.139839 -223.077594 
L 81.977585 -225.413575 
L 81.821411 -227.749556 
L 81.671869 -230.085538 
L 81.52944 -232.421519 
L 81.39453 -234.7575 
L 81.267471 -237.093482 
L 81.148515 -239.429463 
L 81.037846 -241.765445 
L 80.935576 -244.101426 
L 80.841753 -246.437407 
L 80.75637 -248.773389 
L 80.679372 -251.10937 
L 80.610663 -253.445352 
L 80.55012 -255.781333 
L 80.497601 -258.117314 
L 80.452952 -260.453296 
L 80.416023 -262.789277 
L 80.386673 -265.125259 
L 80.364778 -267.46124 
L 80.350239 -269.797221 
L 80.342988 -272.133203 
L 80.342988 -274.469184 
L 80.350239 -276.805165 
L 80.364778 -279.141147 
L 80.386673 -281.477128 
L 80.416023 -283.81311 
L 80.452952 -286.149091 
L 80.497601 -288.485072 
L 80.55012 -290.821054 
L 80.610663 -293.157035 
L 80.679372 -295.493017 
L 80.75637 -297.828998 
L 80.841753 -300.164979 
L 80.935576 -302.500961 
L 81.037846 -304.836942 
L 81.148515 -307.172924 
L 81.267471 -309.508905 
L 81.39453 -311.844886 
L 81.52944 -314.180868 
L 81.671869 -316.516849 
L 81.821411 -318.85283 
L 81.977585 -321.188812 
L 82.139839 -323.524793 
L 82.307553 -325.860775 
L 82.480049 -328.196756 
L 82.656594 -330.532737 
L 82.836414 -332.868719 
L 83.018699 -335.2047 
L 83.202619 -337.540682 
L 83.387329 -339.876663 
L 83.571987 -342.212644 
L 83.755758 -344.548626 
L 83.93783 -346.884607 
L 84.117423 -349.220589 
L 84.293794 -351.55657 
L 84.466253 -353.892551 
L 84.634163 -356.228533 
L 84.79695 -358.564514 
L 84.954106 -360.900495 
L 85.105194 -363.236477 
L 85.249846 -365.572458 
L 85.387768 -367.90844 
L 85.51874 -370.244421 
L 85.642608 -372.580402 
L 85.759289 -374.916384 
L 85.868763 -377.252365 
L 85.971069 -379.588347 
L 86.066301 -381.924328 
L 86.154602 -384.260309 
L 86.236161 -386.596291 
L 86.311202 -388.932272 
L 87.565673 -388.932272 
L 87.565673 -388.932272 
L 87.640714 -386.596291 
L 87.722273 -384.260309 
L 87.810574 -381.924328 
L 87.905806 -379.588347 
L 88.008112 -377.252365 
L 88.117586 -374.916384 
L 88.234267 -372.580402 
L 88.358135 -370.244421 
L 88.489107 -367.90844 
L 88.627029 -365.572458 
L 88.771681 -363.236477 
L 88.922769 -360.900495 
L 89.079925 -358.564514 
L 89.242712 -356.228533 
L 89.410622 -353.892551 
L 89.583081 -351.55657 
L 89.759452 -349.220589 
L 89.939045 -346.884607 
L 90.121117 -344.548626 
L 90.304888 -342.212644 
L 90.489546 -339.876663 
L 90.674256 -337.540682 
L 90.858176 -335.2047 
L 91.040461 -332.868719 
L 91.220281 -330.532737 
L 91.396826 -328.196756 
L 91.569322 -325.860775 
L 91.737036 -323.524793 
L 91.89929 -321.188812 
L 92.055464 -318.85283 
L 92.205006 -316.516849 
L 92.347435 -314.180868 
L 92.482345 -311.844886 
L 92.609404 -309.508905 
L 92.72836 -307.172924 
L 92.839029 -304.836942 
L 92.941299 -302.500961 
L 93.035122 -300.164979 
L 93.120505 -297.828998 
L 93.197503 -295.493017 
L 93.266212 -293.157035 
L 93.326755 -290.821054 
L 93.379274 -288.485072 
L 93.423923 -286.149091 
L 93.460852 -283.81311 
L 93.490202 -281.477128 
L 93.512097 -279.141147 
L 93.526636 -276.805165 
L 93.533888 -274.469184 
L 93.533888 -272.133203 
L 93.526636 -269.797221 
L 93.512097 -267.46124 
L 93.490202 -265.125259 
L 93.460852 -262.789277 
L 93.423923 -260.453296 
L 93.379274 -258.117314 
L 93.326755 -255.781333 
L 93.266212 -253.445352 
L 93.197503 -251.10937 
L 93.120505 -248.773389 
L 93.035122 -246.437407 
L 92.941299 -244.101426 
L 92.839029 -241.765445 
L 92.72836 -239.429463 
L 92.609404 -237.093482 
L 92.482345 -234.7575 
L 92.347435 -232.421519 
L 92.205006 -230.085538 
L 92.055464 -227.749556 
L 91.89929 -225.413575 
L 91.737036 -223.077594 
L 91.569322 -220.741612 
L 91.396826 -218.405631 
L 91.220281 -216.069649 
L 91.040461 -213.733668 
L 90.858176 -211.397687 
L 90.674256 -209.061705 
L 90.489546 -206.725724 
L 90.304888 -204.389742 
L 90.121117 -202.053761 
L 89.939045 -199.71778 
L 89.759452 -197.381798 
L 89.583081 -195.045817 
L 89.410622 -192.709835 
L 89.242712 -190.373854 
L 89.079925 -188.037873 
L 88.922769 -185.701891 
L 88.771681 -183.36591 
L 88.627029 -181.029929 
L 88.489107 -178.693947 
L 88.358135 -176.357966 
L 88.234267 -174.021984 
L 88.117586 -171.686003 
L 88.008112 -169.350022 
L 87.905806 -167.01404 
L 87.810574 -164.678059 
L 87.722273 -162.342077 
L 87.640714 -160.006096 
L 87.565673 -157.670115 
z
" style="stroke: #3f3f3f; stroke-width: 1.25"/>
    </defs>
    <g clip-path="url(#p48760c2336)">
     <use xlink:href="#mae947ba378" x="0" y="424.048724" style="fill: #3274a1; stroke: #3f3f3f; stroke-width: 1.25"/>
    </g>
   </g>
   <g id="FillBetweenPolyCollection_2">
    <defs>
     <path id="m47187a6d32" d="M 170.431302 -207.142276 
L 168.331823 -207.142276 
L 168.186926 -208.208943 
L 168.027597 -209.275609 
L 167.853282 -210.342276 
L 167.663535 -211.408943 
L 167.458042 -212.475609 
L 167.236636 -213.542276 
L 166.999313 -214.608943 
L 166.746247 -215.675609 
L 166.477799 -216.742276 
L 166.194526 -217.808943 
L 165.89718 -218.875609 
L 165.586712 -219.942276 
L 165.264259 -221.008943 
L 164.931139 -222.075609 
L 164.588825 -223.142276 
L 164.238932 -224.208942 
L 163.883183 -225.275609 
L 163.523381 -226.342276 
L 163.161371 -227.408942 
L 162.799006 -228.475609 
L 162.438105 -229.542276 
L 162.080412 -230.608942 
L 161.727559 -231.675609 
L 161.381027 -232.742276 
L 161.042114 -233.808942 
L 160.711905 -234.875609 
L 160.391248 -235.942276 
L 160.080739 -237.008942 
L 159.780711 -238.075609 
L 159.491239 -239.142276 
L 159.212143 -240.208942 
L 158.943008 -241.275609 
L 158.683208 -242.342276 
L 158.431944 -243.408942 
L 158.188276 -244.475609 
L 157.951178 -245.542276 
L 157.719583 -246.608942 
L 157.492437 -247.675609 
L 157.268756 -248.742276 
L 157.047675 -249.808942 
L 156.828504 -250.875609 
L 156.610771 -251.942276 
L 156.394263 -253.008942 
L 156.179061 -254.075609 
L 155.965563 -255.142276 
L 155.754499 -256.208942 
L 155.546933 -257.275609 
L 155.344264 -258.342276 
L 155.148201 -259.408942 
L 154.960741 -260.475609 
L 154.784132 -261.542276 
L 154.620829 -262.608942 
L 154.473439 -263.675609 
L 154.344664 -264.742276 
L 154.237244 -265.808942 
L 154.153885 -266.875609 
L 154.097197 -267.942276 
L 154.069633 -269.008942 
L 154.073424 -270.075609 
L 154.110523 -271.142276 
L 154.182555 -272.208942 
L 154.290774 -273.275609 
L 154.436028 -274.342276 
L 154.61873 -275.408942 
L 154.838844 -276.475609 
L 155.09588 -277.542276 
L 155.38889 -278.608942 
L 155.716491 -279.675609 
L 156.076876 -280.742276 
L 156.467853 -281.808942 
L 156.886877 -282.875609 
L 157.331096 -283.942276 
L 157.797399 -285.008942 
L 158.282471 -286.075609 
L 158.782847 -287.142276 
L 159.294969 -288.208942 
L 159.815241 -289.275609 
L 160.340089 -290.342276 
L 160.866008 -291.408942 
L 161.389614 -292.475609 
L 161.907691 -293.542276 
L 162.417224 -294.608942 
L 162.91544 -295.675609 
L 163.399831 -296.742276 
L 163.868175 -297.808942 
L 164.318551 -298.875609 
L 164.749348 -299.942276 
L 165.159268 -301.008942 
L 165.547316 -302.075609 
L 165.9128 -303.142276 
L 166.255309 -304.208942 
L 166.5747 -305.275609 
L 166.871076 -306.342276 
L 167.144762 -307.408942 
L 167.396281 -308.475609 
L 167.626325 -309.542276 
L 167.835732 -310.608942 
L 168.025456 -311.675609 
L 168.196543 -312.742275 
L 170.566582 -312.742275 
L 170.566582 -312.742275 
L 170.737669 -311.675609 
L 170.927393 -310.608942 
L 171.1368 -309.542276 
L 171.366844 -308.475609 
L 171.618363 -307.408942 
L 171.892049 -306.342276 
L 172.188425 -305.275609 
L 172.507816 -304.208942 
L 172.850325 -303.142276 
L 173.215809 -302.075609 
L 173.603857 -301.008942 
L 174.013777 -299.942276 
L 174.444574 -298.875609 
L 174.89495 -297.808942 
L 175.363294 -296.742276 
L 175.847685 -295.675609 
L 176.345901 -294.608942 
L 176.855434 -293.542276 
L 177.373511 -292.475609 
L 177.897117 -291.408942 
L 178.423036 -290.342276 
L 178.947884 -289.275609 
L 179.468156 -288.208942 
L 179.980278 -287.142276 
L 180.480654 -286.075609 
L 180.965726 -285.008942 
L 181.432029 -283.942276 
L 181.876248 -282.875609 
L 182.295272 -281.808942 
L 182.686249 -280.742276 
L 183.046634 -279.675609 
L 183.374235 -278.608942 
L 183.667245 -277.542276 
L 183.924281 -276.475609 
L 184.144395 -275.408942 
L 184.327097 -274.342276 
L 184.472351 -273.275609 
L 184.58057 -272.208942 
L 184.652602 -271.142276 
L 184.689701 -270.075609 
L 184.693492 -269.008942 
L 184.665928 -267.942276 
L 184.60924 -266.875609 
L 184.525881 -265.808942 
L 184.418461 -264.742276 
L 184.289686 -263.675609 
L 184.142296 -262.608942 
L 183.978993 -261.542276 
L 183.802384 -260.475609 
L 183.614924 -259.408942 
L 183.418861 -258.342276 
L 183.216192 -257.275609 
L 183.008626 -256.208942 
L 182.797562 -255.142276 
L 182.584064 -254.075609 
L 182.368862 -253.008942 
L 182.152354 -251.942276 
L 181.934621 -250.875609 
L 181.71545 -249.808942 
L 181.494369 -248.742276 
L 181.270688 -247.675609 
L 181.043542 -246.608942 
L 180.811947 -245.542276 
L 180.574849 -244.475609 
L 180.331181 -243.408942 
L 180.079917 -242.342276 
L 179.820117 -241.275609 
L 179.550982 -240.208942 
L 179.271886 -239.142276 
L 178.982414 -238.075609 
L 178.682386 -237.008942 
L 178.371877 -235.942276 
L 178.05122 -234.875609 
L 177.721011 -233.808942 
L 177.382098 -232.742276 
L 177.035566 -231.675609 
L 176.682713 -230.608942 
L 176.32502 -229.542276 
L 175.964119 -228.475609 
L 175.601754 -227.408942 
L 175.239744 -226.342276 
L 174.879942 -225.275609 
L 174.524193 -224.208942 
L 174.1743 -223.142276 
L 173.831986 -222.075609 
L 173.498866 -221.008943 
L 173.176413 -219.942276 
L 172.865945 -218.875609 
L 172.568599 -217.808943 
L 172.285326 -216.742276 
L 172.016878 -215.675609 
L 171.763812 -214.608943 
L 171.526489 -213.542276 
L 171.305083 -212.475609 
L 171.09959 -211.408943 
L 170.909843 -210.342276 
L 170.735528 -209.275609 
L 170.576199 -208.208943 
L 170.431302 -207.142276 
z
" style="stroke: #3f3f3f; stroke-width: 1.25"/>
    </defs>
    <g clip-path="url(#p48760c2336)">
     <use xlink:href="#m47187a6d32" x="0" y="424.048724" style="fill: #3274a1; stroke: #3f3f3f; stroke-width: 1.25"/>
    </g>
   </g>
   <g id="FillBetweenPolyCollection_3">
    <defs>
     <path id="mecd4d115c6" d="M 335.64563 -188.420604 
L 332.889995 -188.420604 
L 332.709915 -189.190794 
L 332.513007 -189.960983 
L 332.298722 -190.731173 
L 332.066649 -191.501362 
L 331.81653 -192.271552 
L 331.548282 -193.041741 
L 331.262016 -193.81193 
L 330.958053 -194.58212 
L 330.636931 -195.352309 
L 330.299419 -196.122499 
L 329.946519 -196.892688 
L 329.579463 -197.662878 
L 329.199708 -198.433067 
L 328.80892 -199.203256 
L 328.408962 -199.973446 
L 328.001858 -200.743635 
L 327.589771 -201.513825 
L 327.174962 -202.284014 
L 326.759745 -203.054204 
L 326.346447 -203.824393 
L 325.93735 -204.594583 
L 325.534644 -205.364772 
L 325.140372 -206.134961 
L 324.756379 -206.905151 
L 324.384256 -207.67534 
L 324.025301 -208.44553 
L 323.680472 -209.215719 
L 323.350353 -209.985909 
L 323.035131 -210.756098 
L 322.73458 -211.526287 
L 322.44805 -212.296477 
L 322.174482 -213.066666 
L 321.912421 -213.836856 
L 321.660048 -214.607045 
L 321.415224 -215.377235 
L 321.175548 -216.147424 
L 320.938416 -216.917614 
L 320.701103 -217.687803 
L 320.460838 -218.457992 
L 320.214899 -219.228182 
L 319.960701 -219.998371 
L 319.695887 -220.768561 
L 319.418419 -221.53875 
L 319.126664 -222.30894 
L 318.819473 -223.079129 
L 318.496247 -223.849318 
L 318.156996 -224.619508 
L 317.80238 -225.389697 
L 317.433736 -226.159887 
L 317.053088 -226.930076 
L 316.663136 -227.700266 
L 316.267235 -228.470455 
L 315.869341 -229.240644 
L 315.473956 -230.010834 
L 315.08605 -230.781023 
L 314.710963 -231.551213 
L 314.354305 -232.321402 
L 314.02184 -233.091592 
L 313.719367 -233.861781 
L 313.452593 -234.631971 
L 313.227013 -235.40216 
L 313.047786 -236.172349 
L 312.919619 -236.942539 
L 312.846664 -237.712728 
L 312.832424 -238.482918 
L 312.879672 -239.253107 
L 312.990389 -240.023297 
L 313.16572 -240.793486 
L 313.405946 -241.563675 
L 313.710478 -242.333865 
L 314.07787 -243.104054 
L 314.505846 -243.874244 
L 314.991353 -244.644433 
L 315.53062 -245.414623 
L 316.11924 -246.184812 
L 316.752251 -246.955001 
L 317.424243 -247.725191 
L 318.129451 -248.49538 
L 318.861872 -249.26557 
L 319.615365 -250.035759 
L 320.383759 -250.805949 
L 321.160957 -251.576138 
L 321.941023 -252.346328 
L 322.718278 -253.116517 
L 323.487367 -253.886706 
L 324.243332 -254.656896 
L 324.981658 -255.427085 
L 325.698318 -256.197275 
L 326.389802 -256.967464 
L 327.053131 -257.737654 
L 327.685862 -258.507843 
L 328.286082 -259.278032 
L 328.852395 -260.048222 
L 329.383896 -260.818411 
L 329.880138 -261.588601 
L 330.3411 -262.35879 
L 330.767142 -263.12898 
L 331.158961 -263.899169 
L 331.517549 -264.669358 
L 337.018076 -264.669358 
L 337.018076 -264.669358 
L 337.376664 -263.899169 
L 337.768483 -263.12898 
L 338.194525 -262.35879 
L 338.655487 -261.588601 
L 339.151729 -260.818411 
L 339.68323 -260.048222 
L 340.249543 -259.278032 
L 340.849763 -258.507843 
L 341.482494 -257.737654 
L 342.145823 -256.967464 
L 342.837307 -256.197275 
L 343.553967 -255.427085 
L 344.292293 -254.656896 
L 345.048258 -253.886706 
L 345.817347 -253.116517 
L 346.594602 -252.346328 
L 347.374668 -251.576138 
L 348.151866 -250.805949 
L 348.92026 -250.035759 
L 349.673753 -249.26557 
L 350.406174 -248.49538 
L 351.111382 -247.725191 
L 351.783374 -246.955001 
L 352.416385 -246.184812 
L 353.005005 -245.414623 
L 353.544272 -244.644433 
L 354.029779 -243.874244 
L 354.457755 -243.104054 
L 354.825147 -242.333865 
L 355.129679 -241.563675 
L 355.369905 -240.793486 
L 355.545236 -240.023297 
L 355.655953 -239.253107 
L 355.703201 -238.482918 
L 355.688961 -237.712728 
L 355.616006 -236.942539 
L 355.487839 -236.172349 
L 355.308612 -235.40216 
L 355.083032 -234.631971 
L 354.816258 -233.861781 
L 354.513785 -233.091592 
L 354.18132 -232.321402 
L 353.824662 -231.551213 
L 353.449575 -230.781023 
L 353.061669 -230.010834 
L 352.666284 -229.240644 
L 352.26839 -228.470455 
L 351.872489 -227.700266 
L 351.482537 -226.930076 
L 351.101889 -226.159887 
L 350.733245 -225.389697 
L 350.378629 -224.619508 
L 350.039378 -223.849318 
L 349.716152 -223.079129 
L 349.408961 -222.30894 
L 349.117206 -221.53875 
L 348.839738 -220.768561 
L 348.574924 -219.998371 
L 348.320726 -219.228182 
L 348.074787 -218.457992 
L 347.834522 -217.687803 
L 347.597209 -216.917614 
L 347.360077 -216.147424 
L 347.120401 -215.377235 
L 346.875577 -214.607045 
L 346.623204 -213.836856 
L 346.361143 -213.066666 
L 346.087575 -212.296477 
L 345.801045 -211.526287 
L 345.500494 -210.756098 
L 345.185272 -209.985909 
L 344.855153 -209.215719 
L 344.510324 -208.44553 
L 344.151369 -207.67534 
L 343.779246 -206.905151 
L 343.395253 -206.134961 
L 343.000981 -205.364772 
L 342.598275 -204.594583 
L 342.189178 -203.824393 
L 341.77588 -203.054204 
L 341.360663 -202.284014 
L 340.945854 -201.513825 
L 340.533767 -200.743635 
L 340.126663 -199.973446 
L 339.726705 -199.203256 
L 339.335917 -198.433067 
L 338.956162 -197.662878 
L 338.589106 -196.892688 
L 338.236206 -196.122499 
L 337.898694 -195.352309 
L 337.577572 -194.58212 
L 337.273609 -193.81193 
L 336.987343 -193.041741 
L 336.719095 -192.271552 
L 336.468976 -191.501362 
L 336.236903 -190.731173 
L 336.022618 -189.960983 
L 335.82571 -189.190794 
L 335.64563 -188.420604 
z
" style="stroke: #3f3f3f; stroke-width: 1.25"/>
    </defs>
    <g clip-path="url(#p48760c2336)">
     <use xlink:href="#mecd4d115c6" x="0" y="424.048724" style="fill: #3274a1; stroke: #3f3f3f; stroke-width: 1.25"/>
    </g>
   </g>
   <g id="FillBetweenPolyCollection_4">
    <defs>
     <path id="m9f9ec99c84" d="M 417.629483 -202.75571 
L 415.792392 -202.75571 
L 415.672339 -203.910994 
L 415.541067 -205.066278 
L 415.398211 -206.221563 
L 415.243495 -207.376847 
L 415.076749 -208.532131 
L 414.897917 -209.687415 
L 414.707073 -210.842699 
L 414.504431 -211.997983 
L 414.29035 -213.153268 
L 414.065342 -214.308552 
L 413.830075 -215.463836 
L 413.585371 -216.61912 
L 413.332201 -217.774404 
L 413.071676 -218.929688 
L 412.805037 -220.084972 
L 412.533634 -221.240257 
L 412.25891 -222.395541 
L 411.98237 -223.550825 
L 411.705559 -224.706109 
L 411.430027 -225.861393 
L 411.157296 -227.016677 
L 410.888825 -228.171961 
L 410.625977 -229.327246 
L 410.369982 -230.48253 
L 410.1219 -231.637814 
L 409.882597 -232.793098 
L 409.65271 -233.948382 
L 409.432631 -235.103666 
L 409.222483 -236.258951 
L 409.022116 -237.414235 
L 408.831096 -238.569519 
L 408.648717 -239.724803 
L 408.47401 -240.880087 
L 408.305761 -242.035371 
L 408.142545 -243.190655 
L 407.982761 -244.34594 
L 407.824673 -245.501224 
L 407.666464 -246.656508 
L 407.506288 -247.811792 
L 407.342329 -248.967076 
L 407.172863 -250.12236 
L 406.99632 -251.277645 
L 406.811342 -252.432929 
L 406.616838 -253.588213 
L 406.412044 -254.743497 
L 406.19656 -255.898781 
L 405.970393 -257.054065 
L 405.733982 -258.209349 
L 405.48822 -259.364634 
L 405.234454 -260.519918 
L 404.974487 -261.675202 
L 404.710552 -262.830486 
L 404.44529 -263.98577 
L 404.1817 -265.141054 
L 403.923096 -266.296339 
L 403.673038 -267.451623 
L 403.435266 -268.606907 
L 403.213623 -269.762191 
L 403.011974 -270.917475 
L 402.834124 -272.072759 
L 402.683738 -273.228043 
L 402.564253 -274.383328 
L 402.478808 -275.538612 
L 402.430172 -276.693896 
L 402.420679 -277.84918 
L 402.452177 -279.004464 
L 402.525989 -280.159748 
L 402.642876 -281.315033 
L 402.803027 -282.470317 
L 403.006048 -283.625601 
L 403.250976 -284.780885 
L 403.536293 -285.936169 
L 403.859964 -287.091453 
L 404.219476 -288.246737 
L 404.611889 -289.402022 
L 405.033897 -290.557306 
L 405.481891 -291.71259 
L 405.95203 -292.867874 
L 406.440311 -294.023158 
L 406.942639 -295.178442 
L 407.454902 -296.333726 
L 407.973034 -297.489011 
L 408.493078 -298.644295 
L 409.011248 -299.799579 
L 409.523974 -300.954863 
L 410.02795 -302.110147 
L 410.520168 -303.265431 
L 410.997941 -304.420716 
L 411.458931 -305.576 
L 411.90115 -306.731284 
L 412.32297 -307.886568 
L 412.723117 -309.041852 
L 413.100659 -310.197136 
L 413.454993 -311.35242 
L 413.785821 -312.507705 
L 414.093129 -313.662989 
L 414.377157 -314.818273 
L 414.63837 -315.973557 
L 414.877428 -317.128841 
L 418.544447 -317.128841 
L 418.544447 -317.128841 
L 418.783505 -315.973557 
L 419.044718 -314.818273 
L 419.328746 -313.662989 
L 419.636054 -312.507705 
L 419.966882 -311.35242 
L 420.321216 -310.197136 
L 420.698758 -309.041852 
L 421.098905 -307.886568 
L 421.520725 -306.731284 
L 421.962944 -305.576 
L 422.423934 -304.420716 
L 422.901707 -303.265431 
L 423.393925 -302.110147 
L 423.897901 -300.954863 
L 424.410627 -299.799579 
L 424.928797 -298.644295 
L 425.448841 -297.489011 
L 425.966973 -296.333726 
L 426.479236 -295.178442 
L 426.981564 -294.023158 
L 427.469845 -292.867874 
L 427.939984 -291.71259 
L 428.387978 -290.557306 
L 428.809986 -289.402022 
L 429.202399 -288.246737 
L 429.561911 -287.091453 
L 429.885582 -285.936169 
L 430.170899 -284.780885 
L 430.415827 -283.625601 
L 430.618848 -282.470317 
L 430.778999 -281.315033 
L 430.895886 -280.159748 
L 430.969698 -279.004464 
L 431.001196 -277.84918 
L 430.991703 -276.693896 
L 430.943067 -275.538612 
L 430.857622 -274.383328 
L 430.738137 -273.228043 
L 430.587751 -272.072759 
L 430.409901 -270.917475 
L 430.208252 -269.762191 
L 429.986609 -268.606907 
L 429.748837 -267.451623 
L 429.498779 -266.296339 
L 429.240175 -265.141054 
L 428.976585 -263.98577 
L 428.711323 -262.830486 
L 428.447388 -261.675202 
L 428.187421 -260.519918 
L 427.933655 -259.364634 
L 427.687893 -258.209349 
L 427.451482 -257.054065 
L 427.225315 -255.898781 
L 427.009831 -254.743497 
L 426.805037 -253.588213 
L 426.610533 -252.432929 
L 426.425555 -251.277645 
L 426.249012 -250.12236 
L 426.079546 -248.967076 
L 425.915587 -247.811792 
L 425.755411 -246.656508 
L 425.597202 -245.501224 
L 425.439114 -244.34594 
L 425.27933 -243.190655 
L 425.116114 -242.035371 
L 424.947865 -240.880087 
L 424.773158 -239.724803 
L 424.590779 -238.569519 
L 424.399759 -237.414235 
L 424.199392 -236.258951 
L 423.989244 -235.103666 
L 423.769165 -233.948382 
L 423.539278 -232.793098 
L 423.299975 -231.637814 
L 423.051893 -230.48253 
L 422.795898 -229.327246 
L 422.53305 -228.171961 
L 422.264579 -227.016677 
L 421.991848 -225.861393 
L 421.716316 -224.706109 
L 421.439505 -223.550825 
L 421.162965 -222.395541 
L 420.888241 -221.240257 
L 420.616838 -220.084972 
L 420.350199 -218.929688 
L 420.089674 -217.774404 
L 419.836504 -216.61912 
L 419.5918 -215.463836 
L 419.356533 -214.308552 
L 419.131525 -213.153268 
L 418.917444 -211.997983 
L 418.714802 -210.842699 
L 418.523958 -209.687415 
L 418.345126 -208.532131 
L 418.17838 -207.376847 
L 418.023664 -206.221563 
L 417.880808 -205.066278 
L 417.749536 -203.910994 
L 417.629483 -202.75571 
z
" style="stroke: #3f3f3f; stroke-width: 1.25"/>
    </defs>
    <g clip-path="url(#p48760c2336)">
     <use xlink:href="#m9f9ec99c84" x="0" y="424.048724" style="fill: #3274a1; stroke: #3f3f3f; stroke-width: 1.25"/>
    </g>
   </g>
   <g id="FillBetweenPolyCollection_5">
    <defs>
     <path id="m9a087180ec" d="M 500.203802 -247.219029 
L 498.104323 -247.219029 
L 497.959426 -248.285696 
L 497.800097 -249.352362 
L 497.625782 -250.419029 
L 497.436035 -251.485696 
L 497.230542 -252.552362 
L 497.009136 -253.619029 
L 496.771813 -254.685696 
L 496.518747 -255.752362 
L 496.250299 -256.819029 
L 495.967026 -257.885696 
L 495.66968 -258.952362 
L 495.359212 -260.019029 
L 495.036759 -261.085696 
L 494.703639 -262.152362 
L 494.361325 -263.219029 
L 494.011432 -264.285696 
L 493.655683 -265.352362 
L 493.295881 -266.419029 
L 492.933871 -267.485696 
L 492.571506 -268.552362 
L 492.210605 -269.619029 
L 491.852912 -270.685696 
L 491.500059 -271.752362 
L 491.153527 -272.819029 
L 490.814614 -273.885696 
L 490.484405 -274.952362 
L 490.163748 -276.019029 
L 489.853239 -277.085696 
L 489.553211 -278.152362 
L 489.263739 -279.219029 
L 488.984643 -280.285696 
L 488.715508 -281.352362 
L 488.455708 -282.419029 
L 488.204444 -283.485696 
L 487.960776 -284.552362 
L 487.723678 -285.619029 
L 487.492083 -286.685696 
L 487.264937 -287.752362 
L 487.041256 -288.819029 
L 486.820175 -289.885696 
L 486.601004 -290.952362 
L 486.383271 -292.019029 
L 486.166763 -293.085695 
L 485.951561 -294.152362 
L 485.738063 -295.219029 
L 485.526999 -296.285695 
L 485.319433 -297.352362 
L 485.116764 -298.419029 
L 484.920701 -299.485695 
L 484.733241 -300.552362 
L 484.556632 -301.619029 
L 484.393329 -302.685695 
L 484.245939 -303.752362 
L 484.117164 -304.819029 
L 484.009744 -305.885695 
L 483.926385 -306.952362 
L 483.869697 -308.019029 
L 483.842133 -309.085695 
L 483.845924 -310.152362 
L 483.883023 -311.219029 
L 483.955055 -312.285695 
L 484.063274 -313.352362 
L 484.208528 -314.419029 
L 484.39123 -315.485695 
L 484.611344 -316.552362 
L 484.86838 -317.619029 
L 485.16139 -318.685695 
L 485.488991 -319.752362 
L 485.849376 -320.819029 
L 486.240353 -321.885695 
L 486.659377 -322.952362 
L 487.103596 -324.019029 
L 487.569899 -325.085695 
L 488.054971 -326.152362 
L 488.555347 -327.219029 
L 489.067469 -328.285695 
L 489.587741 -329.352362 
L 490.112589 -330.419029 
L 490.638508 -331.485695 
L 491.162114 -332.552362 
L 491.680191 -333.619029 
L 492.189724 -334.685695 
L 492.68794 -335.752362 
L 493.172331 -336.819029 
L 493.640675 -337.885695 
L 494.091051 -338.952362 
L 494.521848 -340.019029 
L 494.931768 -341.085695 
L 495.319816 -342.152362 
L 495.6853 -343.219029 
L 496.027809 -344.285695 
L 496.3472 -345.352362 
L 496.643576 -346.419029 
L 496.917262 -347.485695 
L 497.168781 -348.552362 
L 497.398825 -349.619029 
L 497.608232 -350.685695 
L 497.797956 -351.752362 
L 497.969043 -352.819029 
L 500.339082 -352.819029 
L 500.339082 -352.819029 
L 500.510169 -351.752362 
L 500.699893 -350.685695 
L 500.9093 -349.619029 
L 501.139344 -348.552362 
L 501.390863 -347.485695 
L 501.664549 -346.419029 
L 501.960925 -345.352362 
L 502.280316 -344.285695 
L 502.622825 -343.219029 
L 502.988309 -342.152362 
L 503.376357 -341.085695 
L 503.786277 -340.019029 
L 504.217074 -338.952362 
L 504.66745 -337.885695 
L 505.135794 -336.819029 
L 505.620185 -335.752362 
L 506.118401 -334.685695 
L 506.627934 -333.619029 
L 507.146011 -332.552362 
L 507.669617 -331.485695 
L 508.195536 -330.419029 
L 508.720384 -329.352362 
L 509.240656 -328.285695 
L 509.752778 -327.219029 
L 510.253154 -326.152362 
L 510.738226 -325.085695 
L 511.204529 -324.019029 
L 511.648748 -322.952362 
L 512.067772 -321.885695 
L 512.458749 -320.819029 
L 512.819134 -319.752362 
L 513.146735 -318.685695 
L 513.439745 -317.619029 
L 513.696781 -316.552362 
L 513.916895 -315.485695 
L 514.099597 -314.419029 
L 514.244851 -313.352362 
L 514.35307 -312.285695 
L 514.425102 -311.219029 
L 514.462201 -310.152362 
L 514.465992 -309.085695 
L 514.438428 -308.019029 
L 514.38174 -306.952362 
L 514.298381 -305.885695 
L 514.190961 -304.819029 
L 514.062186 -303.752362 
L 513.914796 -302.685695 
L 513.751493 -301.619029 
L 513.574884 -300.552362 
L 513.387424 -299.485695 
L 513.191361 -298.419029 
L 512.988692 -297.352362 
L 512.781126 -296.285695 
L 512.570062 -295.219029 
L 512.356564 -294.152362 
L 512.141362 -293.085695 
L 511.924854 -292.019029 
L 511.707121 -290.952362 
L 511.48795 -289.885696 
L 511.266869 -288.819029 
L 511.043188 -287.752362 
L 510.816042 -286.685696 
L 510.584447 -285.619029 
L 510.347349 -284.552362 
L 510.103681 -283.485696 
L 509.852417 -282.419029 
L 509.592617 -281.352362 
L 509.323482 -280.285696 
L 509.044386 -279.219029 
L 508.754914 -278.152362 
L 508.454886 -277.085696 
L 508.144377 -276.019029 
L 507.82372 -274.952362 
L 507.493511 -273.885696 
L 507.154598 -272.819029 
L 506.808066 -271.752362 
L 506.455213 -270.685696 
L 506.09752 -269.619029 
L 505.736619 -268.552362 
L 505.374254 -267.485696 
L 505.012244 -266.419029 
L 504.652442 -265.352362 
L 504.296693 -264.285696 
L 503.9468 -263.219029 
L 503.604486 -262.152362 
L 503.271366 -261.085696 
L 502.948913 -260.019029 
L 502.638445 -258.952362 
L 502.341099 -257.885696 
L 502.057826 -256.819029 
L 501.789378 -255.752362 
L 501.536312 -254.685696 
L 501.298989 -253.619029 
L 501.077583 -252.552362 
L 500.87209 -251.485696 
L 500.682343 -250.419029 
L 500.508028 -249.352362 
L 500.348699 -248.285696 
L 500.203802 -247.219029 
z
" style="stroke: #3f3f3f; stroke-width: 1.25"/>
    </defs>
    <g clip-path="url(#p48760c2336)">
     <use xlink:href="#m9a087180ec" x="0" y="424.048724" style="fill: #3274a1; stroke: #3f3f3f; stroke-width: 1.25"/>
    </g>
   </g>
   <g id="FillBetweenPolyCollection_6">
    <defs>
     <path id="mbdfe5adf74" d="M 582.364035 -221.975168 
L 580.83034 -221.975168 
L 580.725771 -223.416873 
L 580.610971 -224.858578 
L 580.485573 -226.300283 
L 580.349295 -227.741988 
L 580.201952 -229.183693 
L 580.043465 -230.625398 
L 579.873879 -232.067103 
L 579.693367 -233.508809 
L 579.502242 -234.950514 
L 579.300957 -236.392219 
L 579.090109 -237.833924 
L 578.870441 -239.275629 
L 578.642827 -240.717334 
L 578.408272 -242.159039 
L 578.167895 -243.600744 
L 577.922908 -245.042449 
L 577.674603 -246.484154 
L 577.42432 -247.925859 
L 577.173422 -249.367565 
L 576.923269 -250.80927 
L 576.675181 -252.250975 
L 576.430412 -253.69268 
L 576.190115 -255.134385 
L 575.955313 -256.57609 
L 575.726874 -258.017795 
L 575.505483 -259.4595 
L 575.291628 -260.901205 
L 575.08558 -262.34291 
L 574.887389 -263.784616 
L 574.696883 -265.226321 
L 574.513671 -266.668026 
L 574.337159 -268.109731 
L 574.166568 -269.551436 
L 574.000965 -270.993141 
L 573.83929 -272.434846 
L 573.680403 -273.876551 
L 573.52312 -275.318256 
L 573.366263 -276.759961 
L 573.20871 -278.201666 
L 573.049442 -279.643372 
L 572.887587 -281.085077 
L 572.722471 -282.526782 
L 572.553655 -283.968487 
L 572.38097 -285.410192 
L 572.204545 -286.851897 
L 572.024825 -288.293602 
L 571.842585 -289.735307 
L 571.658928 -291.177012 
L 571.475276 -292.618717 
L 571.293358 -294.060422 
L 571.115173 -295.502128 
L 570.942962 -296.943833 
L 570.779156 -298.385538 
L 570.626335 -299.827243 
L 570.48716 -301.268948 
L 570.364325 -302.710653 
L 570.260485 -304.152358 
L 570.178202 -305.594063 
L 570.119877 -307.035768 
L 570.087698 -308.477473 
L 570.083582 -309.919179 
L 570.109131 -311.360884 
L 570.165592 -312.802589 
L 570.253821 -314.244294 
L 570.374268 -315.685999 
L 570.526955 -317.127704 
L 570.711479 -318.569409 
L 570.927017 -320.011114 
L 571.172337 -321.452819 
L 571.445829 -322.894524 
L 571.745528 -324.336229 
L 572.069162 -325.777935 
L 572.414188 -327.21964 
L 572.777847 -328.661345 
L 573.157209 -330.10305 
L 573.549232 -331.544755 
L 573.950813 -332.98646 
L 574.35884 -334.428165 
L 574.770241 -335.86987 
L 575.182034 -337.311575 
L 575.591369 -338.75328 
L 575.995564 -340.194985 
L 576.392138 -341.636691 
L 576.778838 -343.078396 
L 577.153658 -344.520101 
L 577.514855 -345.961806 
L 577.860955 -347.403511 
L 578.190756 -348.845216 
L 578.503325 -350.286921 
L 578.797991 -351.728626 
L 579.074329 -353.170331 
L 579.33215 -354.612036 
L 579.571478 -356.053742 
L 579.792531 -357.495447 
L 579.995698 -358.937152 
L 580.181516 -360.378857 
L 580.350646 -361.820562 
L 580.503852 -363.262267 
L 580.641976 -364.703972 
L 582.552399 -364.703972 
L 582.552399 -364.703972 
L 582.690523 -363.262267 
L 582.843729 -361.820562 
L 583.012859 -360.378857 
L 583.198677 -358.937152 
L 583.401844 -357.495447 
L 583.622897 -356.053742 
L 583.862225 -354.612036 
L 584.120046 -353.170331 
L 584.396384 -351.728626 
L 584.69105 -350.286921 
L 585.003619 -348.845216 
L 585.33342 -347.403511 
L 585.67952 -345.961806 
L 586.040717 -344.520101 
L 586.415537 -343.078396 
L 586.802237 -341.636691 
L 587.198811 -340.194985 
L 587.603006 -338.75328 
L 588.012341 -337.311575 
L 588.424134 -335.86987 
L 588.835535 -334.428165 
L 589.243562 -332.98646 
L 589.645143 -331.544755 
L 590.037166 -330.10305 
L 590.416528 -328.661345 
L 590.780187 -327.21964 
L 591.125213 -325.777935 
L 591.448847 -324.336229 
L 591.748546 -322.894524 
L 592.022038 -321.452819 
L 592.267358 -320.011114 
L 592.482896 -318.569409 
L 592.66742 -317.127704 
L 592.820107 -315.685999 
L 592.940554 -314.244294 
L 593.028783 -312.802589 
L 593.085244 -311.360884 
L 593.110793 -309.919179 
L 593.106677 -308.477473 
L 593.074498 -307.035768 
L 593.016173 -305.594063 
L 592.93389 -304.152358 
L 592.83005 -302.710653 
L 592.707215 -301.268948 
L 592.56804 -299.827243 
L 592.415219 -298.385538 
L 592.251413 -296.943833 
L 592.079202 -295.502128 
L 591.901017 -294.060422 
L 591.719099 -292.618717 
L 591.535447 -291.177012 
L 591.35179 -289.735307 
L 591.16955 -288.293602 
L 590.98983 -286.851897 
L 590.813405 -285.410192 
L 590.64072 -283.968487 
L 590.471904 -282.526782 
L 590.306788 -281.085077 
L 590.144933 -279.643372 
L 589.985665 -278.201666 
L 589.828112 -276.759961 
L 589.671255 -275.318256 
L 589.513972 -273.876551 
L 589.355085 -272.434846 
L 589.19341 -270.993141 
L 589.027807 -269.551436 
L 588.857216 -268.109731 
L 588.680704 -266.668026 
L 588.497492 -265.226321 
L 588.306986 -263.784616 
L 588.108795 -262.34291 
L 587.902747 -260.901205 
L 587.688892 -259.4595 
L 587.467501 -258.017795 
L 587.239062 -256.57609 
L 587.00426 -255.134385 
L 586.763963 -253.69268 
L 586.519194 -252.250975 
L 586.271106 -250.80927 
L 586.020953 -249.367565 
L 585.770055 -247.925859 
L 585.519772 -246.484154 
L 585.271467 -245.042449 
L 585.02648 -243.600744 
L 584.786103 -242.159039 
L 584.551548 -240.717334 
L 584.323934 -239.275629 
L 584.104266 -237.833924 
L 583.893418 -236.392219 
L 583.692133 -234.950514 
L 583.501008 -233.508809 
L 583.320496 -232.067103 
L 583.15091 -230.625398 
L 582.992423 -229.183693 
L 582.84508 -227.741988 
L 582.708802 -226.300283 
L 582.583404 -224.858578 
L 582.468604 -223.416873 
L 582.364035 -221.975168 
z
" style="stroke: #3f3f3f; stroke-width: 1.25"/>
    </defs>
    <g clip-path="url(#p48760c2336)">
     <use xlink:href="#mbdfe5adf74" x="0" y="424.048724" style="fill: #3274a1; stroke: #3f3f3f; stroke-width: 1.25"/>
    </g>
   </g>
   <g id="FillBetweenPolyCollection_7">
    <defs>
     <path id="mf659759c56" d="M 667.176491 -276.892813 
L 660.904134 -276.892813 
L 660.528931 -277.360009 
L 660.121137 -277.827206 
L 659.679628 -278.294402 
L 659.203468 -278.761598 
L 658.691939 -279.228794 
L 658.144571 -279.695991 
L 657.561165 -280.163187 
L 656.941823 -280.630383 
L 656.286966 -281.09758 
L 655.597353 -281.564776 
L 654.874093 -282.031972 
L 654.118657 -282.499168 
L 653.332876 -282.966365 
L 652.518941 -283.433561 
L 651.67939 -283.900757 
L 650.817096 -284.367953 
L 649.935238 -284.83515 
L 649.037276 -285.302346 
L 648.126915 -285.769542 
L 647.208059 -286.236739 
L 646.284772 -286.703935 
L 645.361219 -287.171131 
L 644.441621 -287.638327 
L 643.530194 -288.105524 
L 642.631096 -288.57272 
L 641.74837 -289.039916 
L 640.885891 -289.507113 
L 640.047319 -289.974309 
L 639.23605 -290.441505 
L 638.455179 -290.908701 
L 637.707469 -291.375898 
L 636.995324 -291.843094 
L 636.320777 -292.31029 
L 635.685478 -292.777486 
L 635.090701 -293.244683 
L 634.537355 -293.711879 
L 634.026003 -294.179075 
L 633.556888 -294.646272 
L 633.129974 -295.113468 
L 632.744983 -295.580664 
L 632.40144 -296.04786 
L 632.098726 -296.515057 
L 631.836128 -296.982253 
L 631.612885 -297.449449 
L 631.428241 -297.916646 
L 631.281491 -298.383842 
L 631.172016 -298.851038 
L 631.099321 -299.318234 
L 631.063063 -299.785431 
L 631.063063 -300.252627 
L 631.099321 -300.719823 
L 631.172016 -301.187019 
L 631.281491 -301.654216 
L 631.428241 -302.121412 
L 631.612885 -302.588608 
L 631.836128 -303.055805 
L 632.098726 -303.523001 
L 632.40144 -303.990197 
L 632.744983 -304.457393 
L 633.129974 -304.92459 
L 633.556888 -305.391786 
L 634.026003 -305.858982 
L 634.537355 -306.326179 
L 635.090701 -306.793375 
L 635.685478 -307.260571 
L 636.320777 -307.727767 
L 636.995324 -308.194964 
L 637.707469 -308.66216 
L 638.455179 -309.129356 
L 639.23605 -309.596552 
L 640.047319 -310.063749 
L 640.885891 -310.530945 
L 641.74837 -310.998141 
L 642.631096 -311.465338 
L 643.530194 -311.932534 
L 644.441621 -312.39973 
L 645.361219 -312.866926 
L 646.284772 -313.334123 
L 647.208059 -313.801319 
L 648.126915 -314.268515 
L 649.037276 -314.735712 
L 649.935238 -315.202908 
L 650.817096 -315.670104 
L 651.67939 -316.1373 
L 652.518941 -316.604497 
L 653.332876 -317.071693 
L 654.118657 -317.538889 
L 654.874093 -318.006085 
L 655.597353 -318.473282 
L 656.286966 -318.940478 
L 656.941823 -319.407674 
L 657.561165 -319.874871 
L 658.144571 -320.342067 
L 658.691939 -320.809263 
L 659.203468 -321.276459 
L 659.679628 -321.743656 
L 660.121137 -322.210852 
L 660.528931 -322.678048 
L 660.904134 -323.145245 
L 667.176491 -323.145245 
L 667.176491 -323.145245 
L 667.551694 -322.678048 
L 667.959488 -322.210852 
L 668.400997 -321.743656 
L 668.877157 -321.276459 
L 669.388686 -320.809263 
L 669.936054 -320.342067 
L 670.51946 -319.874871 
L 671.138802 -319.407674 
L 671.793659 -318.940478 
L 672.483272 -318.473282 
L 673.206532 -318.006085 
L 673.961968 -317.538889 
L 674.747749 -317.071693 
L 675.561684 -316.604497 
L 676.401235 -316.1373 
L 677.263529 -315.670104 
L 678.145387 -315.202908 
L 679.043349 -314.735712 
L 679.95371 -314.268515 
L 680.872566 -313.801319 
L 681.795853 -313.334123 
L 682.719406 -312.866926 
L 683.639004 -312.39973 
L 684.550431 -311.932534 
L 685.449529 -311.465338 
L 686.332255 -310.998141 
L 687.194734 -310.530945 
L 688.033306 -310.063749 
L 688.844575 -309.596552 
L 689.625446 -309.129356 
L 690.373156 -308.66216 
L 691.085301 -308.194964 
L 691.759848 -307.727767 
L 692.395147 -307.260571 
L 692.989924 -306.793375 
L 693.54327 -306.326179 
L 694.054622 -305.858982 
L 694.523737 -305.391786 
L 694.950651 -304.92459 
L 695.335642 -304.457393 
L 695.679185 -303.990197 
L 695.981899 -303.523001 
L 696.244497 -303.055805 
L 696.46774 -302.588608 
L 696.652384 -302.121412 
L 696.799134 -301.654216 
L 696.908609 -301.187019 
L 696.981304 -300.719823 
L 697.017563 -300.252627 
L 697.017563 -299.785431 
L 696.981304 -299.318234 
L 696.908609 -298.851038 
L 696.799134 -298.383842 
L 696.652384 -297.916646 
L 696.46774 -297.449449 
L 696.244497 -296.982253 
L 695.981899 -296.515057 
L 695.679185 -296.04786 
L 695.335642 -295.580664 
L 694.950651 -295.113468 
L 694.523737 -294.646272 
L 694.054622 -294.179075 
L 693.54327 -293.711879 
L 692.989924 -293.244683 
L 692.395147 -292.777486 
L 691.759848 -292.31029 
L 691.085301 -291.843094 
L 690.373156 -291.375898 
L 689.625446 -290.908701 
L 688.844575 -290.441505 
L 688.033306 -289.974309 
L 687.194734 -289.507113 
L 686.332255 -289.039916 
L 685.449529 -288.57272 
L 684.550431 -288.105524 
L 683.639004 -287.638327 
L 682.719406 -287.171131 
L 681.795853 -286.703935 
L 680.872566 -286.236739 
L 679.95371 -285.769542 
L 679.043349 -285.302346 
L 678.145387 -284.83515 
L 677.263529 -284.367953 
L 676.401235 -283.900757 
L 675.561684 -283.433561 
L 674.747749 -282.966365 
L 673.961968 -282.499168 
L 673.206532 -282.031972 
L 672.483272 -281.564776 
L 671.793659 -281.09758 
L 671.138802 -280.630383 
L 670.51946 -280.163187 
L 669.936054 -279.695991 
L 669.388686 -279.228794 
L 668.877157 -278.761598 
L 668.400997 -278.294402 
L 667.959488 -277.827206 
L 667.551694 -277.360009 
L 667.176491 -276.892813 
z
" style="stroke: #3f3f3f; stroke-width: 1.25"/>
    </defs>
    <g clip-path="url(#p48760c2336)">
     <use xlink:href="#mf659759c56" x="0" y="424.048724" style="fill: #3274a1; stroke: #3f3f3f; stroke-width: 1.25"/>
    </g>
   </g>
   <g id="matplotlib.axis_1">
    <g id="xtick_1">
     <g id="line2d_1">
      <defs>
       <path id="mcafdca3bae" d="M 0 0 
L 0 3.5 
" style="stroke: #000000; stroke-width: 0.8"/>
      </defs>
      <g>
       <use xlink:href="#mcafdca3bae" x="86.938438" y="291.016167" style="stroke: #000000; stroke-width: 0.8"/>
      </g>
     </g>
     <g id="text_1">
      <!-- primary_growth -->
      <g transform="translate(29.46281 359.197476) rotate(-45) scale(0.1 -0.1)">
       <defs>
        <path id="DejaVuSans-70" d="M 1159 525 
L 1159 -1331 
L 581 -1331 
L 581 3500 
L 1159 3500 
L 1159 2969 
Q 1341 3281 1617 3432 
Q 1894 3584 2278 3584 
Q 2916 3584 3314 3078 
Q 3713 2572 3713 1747 
Q 3713 922 3314 415 
Q 2916 -91 2278 -91 
Q 1894 -91 1617 61 
Q 1341 213 1159 525 
z
M 3116 1747 
Q 3116 2381 2855 2742 
Q 2594 3103 2138 3103 
Q 1681 3103 1420 2742 
Q 1159 2381 1159 1747 
Q 1159 1113 1420 752 
Q 1681 391 2138 391 
Q 2594 391 2855 752 
Q 3116 1113 3116 1747 
z
" transform="scale(0.015625)"/>
        <path id="DejaVuSans-72" d="M 2631 2963 
Q 2534 3019 2420 3045 
Q 2306 3072 2169 3072 
Q 1681 3072 1420 2755 
Q 1159 2438 1159 1844 
L 1159 0 
L 581 0 
L 581 3500 
L 1159 3500 
L 1159 2956 
Q 1341 3275 1631 3429 
Q 1922 3584 2338 3584 
Q 2397 3584 2469 3576 
Q 2541 3569 2628 3553 
L 2631 2963 
z
" transform="scale(0.015625)"/>
        <path id="DejaVuSans-69" d="M 603 3500 
L 1178 3500 
L 1178 0 
L 603 0 
L 603 3500 
z
M 603 4863 
L 1178 4863 
L 1178 4134 
L 603 4134 
L 603 4863 
z
" transform="scale(0.015625)"/>
        <path id="DejaVuSans-6d" d="M 3328 2828 
Q 3544 3216 3844 3400 
Q 4144 3584 4550 3584 
Q 5097 3584 5394 3201 
Q 5691 2819 5691 2113 
L 5691 0 
L 5113 0 
L 5113 2094 
Q 5113 2597 4934 2840 
Q 4756 3084 4391 3084 
Q 3944 3084 3684 2787 
Q 3425 2491 3425 1978 
L 3425 0 
L 2847 0 
L 2847 2094 
Q 2847 2600 2669 2842 
Q 2491 3084 2119 3084 
Q 1678 3084 1418 2786 
Q 1159 2488 1159 1978 
L 1159 0 
L 581 0 
L 581 3500 
L 1159 3500 
L 1159 2956 
Q 1356 3278 1631 3431 
Q 1906 3584 2284 3584 
Q 2666 3584 2933 3390 
Q 3200 3197 3328 2828 
z
" transform="scale(0.015625)"/>
        <path id="DejaVuSans-61" d="M 2194 1759 
Q 1497 1759 1228 1600 
Q 959 1441 959 1056 
Q 959 750 1161 570 
Q 1363 391 1709 391 
Q 2188 391 2477 730 
Q 2766 1069 2766 1631 
L 2766 1759 
L 2194 1759 
z
M 3341 1997 
L 3341 0 
L 2766 0 
L 2766 531 
Q 2569 213 2275 61 
Q 1981 -91 1556 -91 
Q 1019 -91 701 211 
Q 384 513 384 1019 
Q 384 1609 779 1909 
Q 1175 2209 1959 2209 
L 2766 2209 
L 2766 2266 
Q 2766 2663 2505 2880 
Q 2244 3097 1772 3097 
Q 1472 3097 1187 3025 
Q 903 2953 641 2809 
L 641 3341 
Q 956 3463 1253 3523 
Q 1550 3584 1831 3584 
Q 2591 3584 2966 3190 
Q 3341 2797 3341 1997 
z
" transform="scale(0.015625)"/>
        <path id="DejaVuSans-79" d="M 2059 -325 
Q 1816 -950 1584 -1140 
Q 1353 -1331 966 -1331 
L 506 -1331 
L 506 -850 
L 844 -850 
Q 1081 -850 1212 -737 
Q 1344 -625 1503 -206 
L 1606 56 
L 191 3500 
L 800 3500 
L 1894 763 
L 2988 3500 
L 3597 3500 
L 2059 -325 
z
" transform="scale(0.015625)"/>
        <path id="DejaVuSans-5f" d="M 3263 -1063 
L 3263 -1509 
L -63 -1509 
L -63 -1063 
L 3263 -1063 
z
" transform="scale(0.015625)"/>
        <path id="DejaVuSans-67" d="M 2906 1791 
Q 2906 2416 2648 2759 
Q 2391 3103 1925 3103 
Q 1463 3103 1205 2759 
Q 947 2416 947 1791 
Q 947 1169 1205 825 
Q 1463 481 1925 481 
Q 2391 481 2648 825 
Q 2906 1169 2906 1791 
z
M 3481 434 
Q 3481 -459 3084 -895 
Q 2688 -1331 1869 -1331 
Q 1566 -1331 1297 -1286 
Q 1028 -1241 775 -1147 
L 775 -588 
Q 1028 -725 1275 -790 
Q 1522 -856 1778 -856 
Q 2344 -856 2625 -561 
Q 2906 -266 2906 331 
L 2906 616 
Q 2728 306 2450 153 
Q 2172 0 1784 0 
Q 1141 0 747 490 
Q 353 981 353 1791 
Q 353 2603 747 3093 
Q 1141 3584 1784 3584 
Q 2172 3584 2450 3431 
Q 2728 3278 2906 2969 
L 2906 3500 
L 3481 3500 
L 3481 434 
z
" transform="scale(0.015625)"/>
        <path id="DejaVuSans-6f" d="M 1959 3097 
Q 1497 3097 1228 2736 
Q 959 2375 959 1747 
Q 959 1119 1226 758 
Q 1494 397 1959 397 
Q 2419 397 2687 759 
Q 2956 1122 2956 1747 
Q 2956 2369 2687 2733 
Q 2419 3097 1959 3097 
z
M 1959 3584 
Q 2709 3584 3137 3096 
Q 3566 2609 3566 1747 
Q 3566 888 3137 398 
Q 2709 -91 1959 -91 
Q 1206 -91 779 398 
Q 353 888 353 1747 
Q 353 2609 779 3096 
Q 1206 3584 1959 3584 
z
" transform="scale(0.015625)"/>
        <path id="DejaVuSans-77" d="M 269 3500 
L 844 3500 
L 1563 769 
L 2278 3500 
L 2956 3500 
L 3675 769 
L 4391 3500 
L 4966 3500 
L 4050 0 
L 3372 0 
L 2619 2869 
L 1863 0 
L 1184 0 
L 269 3500 
z
" transform="scale(0.015625)"/>
        <path id="DejaVuSans-74" d="M 1172 4494 
L 1172 3500 
L 2356 3500 
L 2356 3053 
L 1172 3053 
L 1172 1153 
Q 1172 725 1289 603 
Q 1406 481 1766 481 
L 2356 481 
L 2356 0 
L 1766 0 
Q 1100 0 847 248 
Q 594 497 594 1153 
L 594 3053 
L 172 3053 
L 172 3500 
L 594 3500 
L 594 4494 
L 1172 4494 
z
" transform="scale(0.015625)"/>
        <path id="DejaVuSans-68" d="M 3513 2113 
L 3513 0 
L 2938 0 
L 2938 2094 
Q 2938 2591 2744 2837 
Q 2550 3084 2163 3084 
Q 1697 3084 1428 2787 
Q 1159 2491 1159 1978 
L 1159 0 
L 581 0 
L 581 4863 
L 1159 4863 
L 1159 2956 
Q 1366 3272 1645 3428 
Q 1925 3584 2291 3584 
Q 2894 3584 3203 3211 
Q 3513 2838 3513 2113 
z
" transform="scale(0.015625)"/>
       </defs>
       <use xlink:href="#DejaVuSans-70"/>
       <use xlink:href="#DejaVuSans-72" transform="translate(63.476562 0)"/>
       <use xlink:href="#DejaVuSans-69" transform="translate(104.589844 0)"/>
       <use xlink:href="#DejaVuSans-6d" transform="translate(132.373047 0)"/>
       <use xlink:href="#DejaVuSans-61" transform="translate(229.785156 0)"/>
       <use xlink:href="#DejaVuSans-72" transform="translate(291.064453 0)"/>
       <use xlink:href="#DejaVuSans-79" transform="translate(332.177734 0)"/>
       <use xlink:href="#DejaVuSans-5f" transform="translate(391.357422 0)"/>
       <use xlink:href="#DejaVuSans-67" transform="translate(441.357422 0)"/>
       <use xlink:href="#DejaVuSans-72" transform="translate(504.833984 0)"/>
       <use xlink:href="#DejaVuSans-6f" transform="translate(543.697266 0)"/>
       <use xlink:href="#DejaVuSans-77" transform="translate(604.878906 0)"/>
       <use xlink:href="#DejaVuSans-74" transform="translate(686.666016 0)"/>
       <use xlink:href="#DejaVuSans-68" transform="translate(725.875 0)"/>
      </g>
     </g>
    </g>
    <g id="xtick_2">
     <g id="line2d_2">
      <g>
       <use xlink:href="#mcafdca3bae" x="169.381563" y="291.016167" style="stroke: #000000; stroke-width: 0.8"/>
      </g>
     </g>
     <g id="text_2">
      <!-- local_invasion -->
      <g transform="translate(118.282049 352.821361) rotate(-45) scale(0.1 -0.1)">
       <defs>
        <path id="DejaVuSans-6c" d="M 603 4863 
L 1178 4863 
L 1178 0 
L 603 0 
L 603 4863 
z
" transform="scale(0.015625)"/>
        <path id="DejaVuSans-63" d="M 3122 3366 
L 3122 2828 
Q 2878 2963 2633 3030 
Q 2388 3097 2138 3097 
Q 1578 3097 1268 2742 
Q 959 2388 959 1747 
Q 959 1106 1268 751 
Q 1578 397 2138 397 
Q 2388 397 2633 464 
Q 2878 531 3122 666 
L 3122 134 
Q 2881 22 2623 -34 
Q 2366 -91 2075 -91 
Q 1284 -91 818 406 
Q 353 903 353 1747 
Q 353 2603 823 3093 
Q 1294 3584 2113 3584 
Q 2378 3584 2631 3529 
Q 2884 3475 3122 3366 
z
" transform="scale(0.015625)"/>
        <path id="DejaVuSans-6e" d="M 3513 2113 
L 3513 0 
L 2938 0 
L 2938 2094 
Q 2938 2591 2744 2837 
Q 2550 3084 2163 3084 
Q 1697 3084 1428 2787 
Q 1159 2491 1159 1978 
L 1159 0 
L 581 0 
L 581 3500 
L 1159 3500 
L 1159 2956 
Q 1366 3272 1645 3428 
Q 1925 3584 2291 3584 
Q 2894 3584 3203 3211 
Q 3513 2838 3513 2113 
z
" transform="scale(0.015625)"/>
        <path id="DejaVuSans-76" d="M 191 3500 
L 800 3500 
L 1894 563 
L 2988 3500 
L 3597 3500 
L 2284 0 
L 1503 0 
L 191 3500 
z
" transform="scale(0.015625)"/>
        <path id="DejaVuSans-73" d="M 2834 3397 
L 2834 2853 
Q 2591 2978 2328 3040 
Q 2066 3103 1784 3103 
Q 1356 3103 1142 2972 
Q 928 2841 928 2578 
Q 928 2378 1081 2264 
Q 1234 2150 1697 2047 
L 1894 2003 
Q 2506 1872 2764 1633 
Q 3022 1394 3022 966 
Q 3022 478 2636 193 
Q 2250 -91 1575 -91 
Q 1294 -91 989 -36 
Q 684 19 347 128 
L 347 722 
Q 666 556 975 473 
Q 1284 391 1588 391 
Q 1994 391 2212 530 
Q 2431 669 2431 922 
Q 2431 1156 2273 1281 
Q 2116 1406 1581 1522 
L 1381 1569 
Q 847 1681 609 1914 
Q 372 2147 372 2553 
Q 372 3047 722 3315 
Q 1072 3584 1716 3584 
Q 2034 3584 2315 3537 
Q 2597 3491 2834 3397 
z
" transform="scale(0.015625)"/>
       </defs>
       <use xlink:href="#DejaVuSans-6c"/>
       <use xlink:href="#DejaVuSans-6f" transform="translate(27.783203 0)"/>
       <use xlink:href="#DejaVuSans-63" transform="translate(88.964844 0)"/>
       <use xlink:href="#DejaVuSans-61" transform="translate(143.945312 0)"/>
       <use xlink:href="#DejaVuSans-6c" transform="translate(205.224609 0)"/>
       <use xlink:href="#DejaVuSans-5f" transform="translate(233.007812 0)"/>
       <use xlink:href="#DejaVuSans-69" transform="translate(283.007812 0)"/>
       <use xlink:href="#DejaVuSans-6e" transform="translate(310.791016 0)"/>
       <use xlink:href="#DejaVuSans-76" transform="translate(374.169922 0)"/>
       <use xlink:href="#DejaVuSans-61" transform="translate(433.349609 0)"/>
       <use xlink:href="#DejaVuSans-73" transform="translate(494.628906 0)"/>
       <use xlink:href="#DejaVuSans-69" transform="translate(546.728516 0)"/>
       <use xlink:href="#DejaVuSans-6f" transform="translate(574.511719 0)"/>
       <use xlink:href="#DejaVuSans-6e" transform="translate(635.693359 0)"/>
      </g>
     </g>
    </g>
    <g id="xtick_3">
     <g id="line2d_3">
      <g>
       <use xlink:href="#mcafdca3bae" x="251.824688" y="291.016167" style="stroke: #000000; stroke-width: 0.8"/>
      </g>
     </g>
     <g id="text_3">
      <!-- intravasation -->
      <g transform="translate(203.816556 349.926643) rotate(-45) scale(0.1 -0.1)">
       <use xlink:href="#DejaVuSans-69"/>
       <use xlink:href="#DejaVuSans-6e" transform="translate(27.783203 0)"/>
       <use xlink:href="#DejaVuSans-74" transform="translate(91.162109 0)"/>
       <use xlink:href="#DejaVuSans-72" transform="translate(130.371094 0)"/>
       <use xlink:href="#DejaVuSans-61" transform="translate(171.484375 0)"/>
       <use xlink:href="#DejaVuSans-76" transform="translate(232.763672 0)"/>
       <use xlink:href="#DejaVuSans-61" transform="translate(291.943359 0)"/>
       <use xlink:href="#DejaVuSans-73" transform="translate(353.222656 0)"/>
       <use xlink:href="#DejaVuSans-61" transform="translate(405.322266 0)"/>
       <use xlink:href="#DejaVuSans-74" transform="translate(466.601562 0)"/>
       <use xlink:href="#DejaVuSans-69" transform="translate(505.810547 0)"/>
       <use xlink:href="#DejaVuSans-6f" transform="translate(533.59375 0)"/>
       <use xlink:href="#DejaVuSans-6e" transform="translate(594.775391 0)"/>
      </g>
     </g>
    </g>
    <g id="xtick_4">
     <g id="line2d_4">
      <g>
       <use xlink:href="#mcafdca3bae" x="334.267813" y="291.016167" style="stroke: #000000; stroke-width: 0.8"/>
      </g>
     </g>
     <g id="text_4">
      <!-- survival_in_circulation -->
      <g transform="translate(254.568039 381.421621) rotate(-45) scale(0.1 -0.1)">
       <defs>
        <path id="DejaVuSans-75" d="M 544 1381 
L 544 3500 
L 1119 3500 
L 1119 1403 
Q 1119 906 1312 657 
Q 1506 409 1894 409 
Q 2359 409 2629 706 
Q 2900 1003 2900 1516 
L 2900 3500 
L 3475 3500 
L 3475 0 
L 2900 0 
L 2900 538 
Q 2691 219 2414 64 
Q 2138 -91 1772 -91 
Q 1169 -91 856 284 
Q 544 659 544 1381 
z
M 1991 3584 
L 1991 3584 
z
" transform="scale(0.015625)"/>
       </defs>
       <use xlink:href="#DejaVuSans-73"/>
       <use xlink:href="#DejaVuSans-75" transform="translate(52.099609 0)"/>
       <use xlink:href="#DejaVuSans-72" transform="translate(115.478516 0)"/>
       <use xlink:href="#DejaVuSans-76" transform="translate(156.591797 0)"/>
       <use xlink:href="#DejaVuSans-69" transform="translate(215.771484 0)"/>
       <use xlink:href="#DejaVuSans-76" transform="translate(243.554688 0)"/>
       <use xlink:href="#DejaVuSans-61" transform="translate(302.734375 0)"/>
       <use xlink:href="#DejaVuSans-6c" transform="translate(364.013672 0)"/>
       <use xlink:href="#DejaVuSans-5f" transform="translate(391.796875 0)"/>
       <use xlink:href="#DejaVuSans-69" transform="translate(441.796875 0)"/>
       <use xlink:href="#DejaVuSans-6e" transform="translate(469.580078 0)"/>
       <use xlink:href="#DejaVuSans-5f" transform="translate(532.958984 0)"/>
       <use xlink:href="#DejaVuSans-63" transform="translate(582.958984 0)"/>
       <use xlink:href="#DejaVuSans-69" transform="translate(637.939453 0)"/>
       <use xlink:href="#DejaVuSans-72" transform="translate(665.722656 0)"/>
       <use xlink:href="#DejaVuSans-63" transform="translate(704.585938 0)"/>
       <use xlink:href="#DejaVuSans-75" transform="translate(759.566406 0)"/>
       <use xlink:href="#DejaVuSans-6c" transform="translate(822.945312 0)"/>
       <use xlink:href="#DejaVuSans-61" transform="translate(850.728516 0)"/>
       <use xlink:href="#DejaVuSans-74" transform="translate(912.007812 0)"/>
       <use xlink:href="#DejaVuSans-69" transform="translate(951.216797 0)"/>
       <use xlink:href="#DejaVuSans-6f" transform="translate(979 0)"/>
       <use xlink:href="#DejaVuSans-6e" transform="translate(1040.181641 0)"/>
      </g>
     </g>
    </g>
    <g id="xtick_5">
     <g id="line2d_5">
      <g>
       <use xlink:href="#mcafdca3bae" x="416.710938" y="291.016167" style="stroke: #000000; stroke-width: 0.8"/>
      </g>
     </g>
     <g id="text_5">
      <!-- extravasation -->
      <g transform="translate(366.736166 351.893284) rotate(-45) scale(0.1 -0.1)">
       <defs>
        <path id="DejaVuSans-65" d="M 3597 1894 
L 3597 1613 
L 953 1613 
Q 991 1019 1311 708 
Q 1631 397 2203 397 
Q 2534 397 2845 478 
Q 3156 559 3463 722 
L 3463 178 
Q 3153 47 2828 -22 
Q 2503 -91 2169 -91 
Q 1331 -91 842 396 
Q 353 884 353 1716 
Q 353 2575 817 3079 
Q 1281 3584 2069 3584 
Q 2775 3584 3186 3129 
Q 3597 2675 3597 1894 
z
M 3022 2063 
Q 3016 2534 2758 2815 
Q 2500 3097 2075 3097 
Q 1594 3097 1305 2825 
Q 1016 2553 972 2059 
L 3022 2063 
z
" transform="scale(0.015625)"/>
        <path id="DejaVuSans-78" d="M 3513 3500 
L 2247 1797 
L 3578 0 
L 2900 0 
L 1881 1375 
L 863 0 
L 184 0 
L 1544 1831 
L 300 3500 
L 978 3500 
L 1906 2253 
L 2834 3500 
L 3513 3500 
z
" transform="scale(0.015625)"/>
       </defs>
       <use xlink:href="#DejaVuSans-65"/>
       <use xlink:href="#DejaVuSans-78" transform="translate(59.773438 0)"/>
       <use xlink:href="#DejaVuSans-74" transform="translate(118.953125 0)"/>
       <use xlink:href="#DejaVuSans-72" transform="translate(158.162109 0)"/>
       <use xlink:href="#DejaVuSans-61" transform="translate(199.275391 0)"/>
       <use xlink:href="#DejaVuSans-76" transform="translate(260.554688 0)"/>
       <use xlink:href="#DejaVuSans-61" transform="translate(319.734375 0)"/>
       <use xlink:href="#DejaVuSans-73" transform="translate(381.013672 0)"/>
       <use xlink:href="#DejaVuSans-61" transform="translate(433.113281 0)"/>
       <use xlink:href="#DejaVuSans-74" transform="translate(494.392578 0)"/>
       <use xlink:href="#DejaVuSans-69" transform="translate(533.601562 0)"/>
       <use xlink:href="#DejaVuSans-6f" transform="translate(561.384766 0)"/>
       <use xlink:href="#DejaVuSans-6e" transform="translate(622.566406 0)"/>
      </g>
     </g>
    </g>
    <g id="xtick_6">
     <g id="line2d_6">
      <g>
       <use xlink:href="#mcafdca3bae" x="499.154063" y="291.016167" style="stroke: #000000; stroke-width: 0.8"/>
      </g>
     </g>
     <g id="text_6">
      <!-- micrometastasis_formation -->
      <g transform="translate(401.308162 399.567749) rotate(-45) scale(0.1 -0.1)">
       <defs>
        <path id="DejaVuSans-66" d="M 2375 4863 
L 2375 4384 
L 1825 4384 
Q 1516 4384 1395 4259 
Q 1275 4134 1275 3809 
L 1275 3500 
L 2222 3500 
L 2222 3053 
L 1275 3053 
L 1275 0 
L 697 0 
L 697 3053 
L 147 3053 
L 147 3500 
L 697 3500 
L 697 3744 
Q 697 4328 969 4595 
Q 1241 4863 1831 4863 
L 2375 4863 
z
" transform="scale(0.015625)"/>
       </defs>
       <use xlink:href="#DejaVuSans-6d"/>
       <use xlink:href="#DejaVuSans-69" transform="translate(97.412109 0)"/>
       <use xlink:href="#DejaVuSans-63" transform="translate(125.195312 0)"/>
       <use xlink:href="#DejaVuSans-72" transform="translate(180.175781 0)"/>
       <use xlink:href="#DejaVuSans-6f" transform="translate(219.039062 0)"/>
       <use xlink:href="#DejaVuSans-6d" transform="translate(280.220703 0)"/>
       <use xlink:href="#DejaVuSans-65" transform="translate(377.632812 0)"/>
       <use xlink:href="#DejaVuSans-74" transform="translate(439.15625 0)"/>
       <use xlink:href="#DejaVuSans-61" transform="translate(478.365234 0)"/>
       <use xlink:href="#DejaVuSans-73" transform="translate(539.644531 0)"/>
       <use xlink:href="#DejaVuSans-74" transform="translate(591.744141 0)"/>
       <use xlink:href="#DejaVuSans-61" transform="translate(630.953125 0)"/>
       <use xlink:href="#DejaVuSans-73" transform="translate(692.232422 0)"/>
       <use xlink:href="#DejaVuSans-69" transform="translate(744.332031 0)"/>
       <use xlink:href="#DejaVuSans-73" transform="translate(772.115234 0)"/>
       <use xlink:href="#DejaVuSans-5f" transform="translate(824.214844 0)"/>
       <use xlink:href="#DejaVuSans-66" transform="translate(874.214844 0)"/>
       <use xlink:href="#DejaVuSans-6f" transform="translate(909.419922 0)"/>
       <use xlink:href="#DejaVuSans-72" transform="translate(970.601562 0)"/>
       <use xlink:href="#DejaVuSans-6d" transform="translate(1009.964844 0)"/>
       <use xlink:href="#DejaVuSans-61" transform="translate(1107.376953 0)"/>
       <use xlink:href="#DejaVuSans-74" transform="translate(1168.65625 0)"/>
       <use xlink:href="#DejaVuSans-69" transform="translate(1207.865234 0)"/>
       <use xlink:href="#DejaVuSans-6f" transform="translate(1235.648438 0)"/>
       <use xlink:href="#DejaVuSans-6e" transform="translate(1296.830078 0)"/>
      </g>
     </g>
    </g>
    <g id="xtick_7">
     <g id="line2d_7">
      <g>
       <use xlink:href="#mcafdca3bae" x="581.597188" y="291.016167" style="stroke: #000000; stroke-width: 0.8"/>
      </g>
     </g>
     <g id="text_7">
      <!-- angiogenesis -->
      <g transform="translate(533.528289 349.98741) rotate(-45) scale(0.1 -0.1)">
       <use xlink:href="#DejaVuSans-61"/>
       <use xlink:href="#DejaVuSans-6e" transform="translate(61.279297 0)"/>
       <use xlink:href="#DejaVuSans-67" transform="translate(124.658203 0)"/>
       <use xlink:href="#DejaVuSans-69" transform="translate(188.134766 0)"/>
       <use xlink:href="#DejaVuSans-6f" transform="translate(215.917969 0)"/>
       <use xlink:href="#DejaVuSans-67" transform="translate(277.099609 0)"/>
       <use xlink:href="#DejaVuSans-65" transform="translate(340.576172 0)"/>
       <use xlink:href="#DejaVuSans-6e" transform="translate(402.099609 0)"/>
       <use xlink:href="#DejaVuSans-65" transform="translate(465.478516 0)"/>
       <use xlink:href="#DejaVuSans-73" transform="translate(527.001953 0)"/>
       <use xlink:href="#DejaVuSans-69" transform="translate(579.101562 0)"/>
       <use xlink:href="#DejaVuSans-73" transform="translate(606.884766 0)"/>
      </g>
     </g>
    </g>
    <g id="xtick_8">
     <g id="line2d_8">
      <g>
       <use xlink:href="#mcafdca3bae" x="664.040313" y="291.016167" style="stroke: #000000; stroke-width: 0.8"/>
      </g>
     </g>
     <g id="text_8">
      <!-- metastatic_colonization -->
      <g transform="translate(578.540054 387.222106) rotate(-45) scale(0.1 -0.1)">
       <defs>
        <path id="DejaVuSans-7a" d="M 353 3500 
L 3084 3500 
L 3084 2975 
L 922 459 
L 3084 459 
L 3084 0 
L 275 0 
L 275 525 
L 2438 3041 
L 353 3041 
L 353 3500 
z
" transform="scale(0.015625)"/>
       </defs>
       <use xlink:href="#DejaVuSans-6d"/>
       <use xlink:href="#DejaVuSans-65" transform="translate(97.412109 0)"/>
       <use xlink:href="#DejaVuSans-74" transform="translate(158.935547 0)"/>
       <use xlink:href="#DejaVuSans-61" transform="translate(198.144531 0)"/>
       <use xlink:href="#DejaVuSans-73" transform="translate(259.423828 0)"/>
       <use xlink:href="#DejaVuSans-74" transform="translate(311.523438 0)"/>
       <use xlink:href="#DejaVuSans-61" transform="translate(350.732422 0)"/>
       <use xlink:href="#DejaVuSans-74" transform="translate(412.011719 0)"/>
       <use xlink:href="#DejaVuSans-69" transform="translate(451.220703 0)"/>
       <use xlink:href="#DejaVuSans-63" transform="translate(479.003906 0)"/>
       <use xlink:href="#DejaVuSans-5f" transform="translate(533.984375 0)"/>
       <use xlink:href="#DejaVuSans-63" transform="translate(583.984375 0)"/>
       <use xlink:href="#DejaVuSans-6f" transform="translate(638.964844 0)"/>
       <use xlink:href="#DejaVuSans-6c" transform="translate(700.146484 0)"/>
       <use xlink:href="#DejaVuSans-6f" transform="translate(727.929688 0)"/>
       <use xlink:href="#DejaVuSans-6e" transform="translate(789.111328 0)"/>
       <use xlink:href="#DejaVuSans-69" transform="translate(852.490234 0)"/>
       <use xlink:href="#DejaVuSans-7a" transform="translate(880.273438 0)"/>
       <use xlink:href="#DejaVuSans-61" transform="translate(932.763672 0)"/>
       <use xlink:href="#DejaVuSans-74" transform="translate(994.042969 0)"/>
       <use xlink:href="#DejaVuSans-69" transform="translate(1033.251953 0)"/>
       <use xlink:href="#DejaVuSans-6f" transform="translate(1061.035156 0)"/>
       <use xlink:href="#DejaVuSans-6e" transform="translate(1122.216797 0)"/>
      </g>
     </g>
    </g>
    <g id="text_9">
     <!-- Mission Step -->
     <g transform="translate(337.684688 414.353099) scale(0.12 -0.12)">
      <defs>
       <path id="DejaVuSans-4d" d="M 628 4666 
L 1569 4666 
L 2759 1491 
L 3956 4666 
L 4897 4666 
L 4897 0 
L 4281 0 
L 4281 4097 
L 3078 897 
L 2444 897 
L 1241 4097 
L 1241 0 
L 628 0 
L 628 4666 
z
" transform="scale(0.015625)"/>
       <path id="DejaVuSans-20" transform="scale(0.015625)"/>
       <path id="DejaVuSans-53" d="M 3425 4513 
L 3425 3897 
Q 3066 4069 2747 4153 
Q 2428 4238 2131 4238 
Q 1616 4238 1336 4038 
Q 1056 3838 1056 3469 
Q 1056 3159 1242 3001 
Q 1428 2844 1947 2747 
L 2328 2669 
Q 3034 2534 3370 2195 
Q 3706 1856 3706 1288 
Q 3706 609 3251 259 
Q 2797 -91 1919 -91 
Q 1588 -91 1214 -16 
Q 841 59 441 206 
L 441 856 
Q 825 641 1194 531 
Q 1563 422 1919 422 
Q 2459 422 2753 634 
Q 3047 847 3047 1241 
Q 3047 1584 2836 1778 
Q 2625 1972 2144 2069 
L 1759 2144 
Q 1053 2284 737 2584 
Q 422 2884 422 3419 
Q 422 4038 858 4394 
Q 1294 4750 2059 4750 
Q 2388 4750 2728 4690 
Q 3069 4631 3425 4513 
z
" transform="scale(0.015625)"/>
      </defs>
      <use xlink:href="#DejaVuSans-4d"/>
      <use xlink:href="#DejaVuSans-69" transform="translate(86.279297 0)"/>
      <use xlink:href="#DejaVuSans-73" transform="translate(114.0625 0)"/>
      <use xlink:href="#DejaVuSans-73" transform="translate(166.162109 0)"/>
      <use xlink:href="#DejaVuSans-69" transform="translate(218.261719 0)"/>
      <use xlink:href="#DejaVuSans-6f" transform="translate(246.044922 0)"/>
      <use xlink:href="#DejaVuSans-6e" transform="translate(307.226562 0)"/>
      <use xlink:href="#DejaVuSans-20" transform="translate(370.605469 0)"/>
      <use xlink:href="#DejaVuSans-53" transform="translate(402.392578 0)"/>
      <use xlink:href="#DejaVuSans-74" transform="translate(465.869141 0)"/>
      <use xlink:href="#DejaVuSans-65" transform="translate(505.078125 0)"/>
      <use xlink:href="#DejaVuSans-70" transform="translate(566.601562 0)"/>
     </g>
    </g>
   </g>
   <g id="matplotlib.axis_2">
    <g id="ytick_1">
     <g id="line2d_9">
      <defs>
       <path id="mf8fcdf8fd3" d="M 0 0 
L -3.5 0 
" style="stroke: #000000; stroke-width: 0.8"/>
      </defs>
      <g>
       <use xlink:href="#mf8fcdf8fd3" x="45.716875" y="291.016167" style="stroke: #000000; stroke-width: 0.8"/>
      </g>
     </g>
     <g id="text_10">
      <!-- 0.0 -->
      <g transform="translate(22.81375 294.815385) scale(0.1 -0.1)">
       <defs>
        <path id="DejaVuSans-30" d="M 2034 4250 
Q 1547 4250 1301 3770 
Q 1056 3291 1056 2328 
Q 1056 1369 1301 889 
Q 1547 409 2034 409 
Q 2525 409 2770 889 
Q 3016 1369 3016 2328 
Q 3016 3291 2770 3770 
Q 2525 4250 2034 4250 
z
M 2034 4750 
Q 2819 4750 3233 4129 
Q 3647 3509 3647 2328 
Q 3647 1150 3233 529 
Q 2819 -91 2034 -91 
Q 1250 -91 836 529 
Q 422 1150 422 2328 
Q 422 3509 836 4129 
Q 1250 4750 2034 4750 
z
" transform="scale(0.015625)"/>
        <path id="DejaVuSans-2e" d="M 684 794 
L 1344 794 
L 1344 0 
L 684 0 
L 684 794 
z
" transform="scale(0.015625)"/>
       </defs>
       <use xlink:href="#DejaVuSans-30"/>
       <use xlink:href="#DejaVuSans-2e" transform="translate(63.623047 0)"/>
       <use xlink:href="#DejaVuSans-30" transform="translate(95.410156 0)"/>
      </g>
     </g>
    </g>
    <g id="ytick_2">
     <g id="line2d_10">
      <g>
       <use xlink:href="#mf8fcdf8fd3" x="45.716875" y="237.580496" style="stroke: #000000; stroke-width: 0.8"/>
      </g>
     </g>
     <g id="text_11">
      <!-- 0.2 -->
      <g transform="translate(22.81375 241.379714) scale(0.1 -0.1)">
       <defs>
        <path id="DejaVuSans-32" d="M 1228 531 
L 3431 531 
L 3431 0 
L 469 0 
L 469 531 
Q 828 903 1448 1529 
Q 2069 2156 2228 2338 
Q 2531 2678 2651 2914 
Q 2772 3150 2772 3378 
Q 2772 3750 2511 3984 
Q 2250 4219 1831 4219 
Q 1534 4219 1204 4116 
Q 875 4013 500 3803 
L 500 4441 
Q 881 4594 1212 4672 
Q 1544 4750 1819 4750 
Q 2544 4750 2975 4387 
Q 3406 4025 3406 3419 
Q 3406 3131 3298 2873 
Q 3191 2616 2906 2266 
Q 2828 2175 2409 1742 
Q 1991 1309 1228 531 
z
" transform="scale(0.015625)"/>
       </defs>
       <use xlink:href="#DejaVuSans-30"/>
       <use xlink:href="#DejaVuSans-2e" transform="translate(63.623047 0)"/>
       <use xlink:href="#DejaVuSans-32" transform="translate(95.410156 0)"/>
      </g>
     </g>
    </g>
    <g id="ytick_3">
     <g id="line2d_11">
      <g>
       <use xlink:href="#mf8fcdf8fd3" x="45.716875" y="184.144825" style="stroke: #000000; stroke-width: 0.8"/>
      </g>
     </g>
     <g id="text_12">
      <!-- 0.4 -->
      <g transform="translate(22.81375 187.944044) scale(0.1 -0.1)">
       <defs>
        <path id="DejaVuSans-34" d="M 2419 4116 
L 825 1625 
L 2419 1625 
L 2419 4116 
z
M 2253 4666 
L 3047 4666 
L 3047 1625 
L 3713 1625 
L 3713 1100 
L 3047 1100 
L 3047 0 
L 2419 0 
L 2419 1100 
L 313 1100 
L 313 1709 
L 2253 4666 
z
" transform="scale(0.015625)"/>
       </defs>
       <use xlink:href="#DejaVuSans-30"/>
       <use xlink:href="#DejaVuSans-2e" transform="translate(63.623047 0)"/>
       <use xlink:href="#DejaVuSans-34" transform="translate(95.410156 0)"/>
      </g>
     </g>
    </g>
    <g id="ytick_4">
     <g id="line2d_12">
      <g>
       <use xlink:href="#mf8fcdf8fd3" x="45.716875" y="130.709154" style="stroke: #000000; stroke-width: 0.8"/>
      </g>
     </g>
     <g id="text_13">
      <!-- 0.6 -->
      <g transform="translate(22.81375 134.508373) scale(0.1 -0.1)">
       <defs>
        <path id="DejaVuSans-36" d="M 2113 2584 
Q 1688 2584 1439 2293 
Q 1191 2003 1191 1497 
Q 1191 994 1439 701 
Q 1688 409 2113 409 
Q 2538 409 2786 701 
Q 3034 994 3034 1497 
Q 3034 2003 2786 2293 
Q 2538 2584 2113 2584 
z
M 3366 4563 
L 3366 3988 
Q 3128 4100 2886 4159 
Q 2644 4219 2406 4219 
Q 1781 4219 1451 3797 
Q 1122 3375 1075 2522 
Q 1259 2794 1537 2939 
Q 1816 3084 2150 3084 
Q 2853 3084 3261 2657 
Q 3669 2231 3669 1497 
Q 3669 778 3244 343 
Q 2819 -91 2113 -91 
Q 1303 -91 875 529 
Q 447 1150 447 2328 
Q 447 3434 972 4092 
Q 1497 4750 2381 4750 
Q 2619 4750 2861 4703 
Q 3103 4656 3366 4563 
z
" transform="scale(0.015625)"/>
       </defs>
       <use xlink:href="#DejaVuSans-30"/>
       <use xlink:href="#DejaVuSans-2e" transform="translate(63.623047 0)"/>
       <use xlink:href="#DejaVuSans-36" transform="translate(95.410156 0)"/>
      </g>
     </g>
    </g>
    <g id="ytick_5">
     <g id="line2d_13">
      <g>
       <use xlink:href="#mf8fcdf8fd3" x="45.716875" y="77.273483" style="stroke: #000000; stroke-width: 0.8"/>
      </g>
     </g>
     <g id="text_14">
      <!-- 0.8 -->
      <g transform="translate(22.81375 81.072702) scale(0.1 -0.1)">
       <defs>
        <path id="DejaVuSans-38" d="M 2034 2216 
Q 1584 2216 1326 1975 
Q 1069 1734 1069 1313 
Q 1069 891 1326 650 
Q 1584 409 2034 409 
Q 2484 409 2743 651 
Q 3003 894 3003 1313 
Q 3003 1734 2745 1975 
Q 2488 2216 2034 2216 
z
M 1403 2484 
Q 997 2584 770 2862 
Q 544 3141 544 3541 
Q 544 4100 942 4425 
Q 1341 4750 2034 4750 
Q 2731 4750 3128 4425 
Q 3525 4100 3525 3541 
Q 3525 3141 3298 2862 
Q 3072 2584 2669 2484 
Q 3125 2378 3379 2068 
Q 3634 1759 3634 1313 
Q 3634 634 3220 271 
Q 2806 -91 2034 -91 
Q 1263 -91 848 271 
Q 434 634 434 1313 
Q 434 1759 690 2068 
Q 947 2378 1403 2484 
z
M 1172 3481 
Q 1172 3119 1398 2916 
Q 1625 2713 2034 2713 
Q 2441 2713 2670 2916 
Q 2900 3119 2900 3481 
Q 2900 3844 2670 4047 
Q 2441 4250 2034 4250 
Q 1625 4250 1398 4047 
Q 1172 3844 1172 3481 
z
" transform="scale(0.015625)"/>
       </defs>
       <use xlink:href="#DejaVuSans-30"/>
       <use xlink:href="#DejaVuSans-2e" transform="translate(63.623047 0)"/>
       <use xlink:href="#DejaVuSans-38" transform="translate(95.410156 0)"/>
      </g>
     </g>
    </g>
    <g id="ytick_6">
     <g id="line2d_14">
      <g>
       <use xlink:href="#mf8fcdf8fd3" x="45.716875" y="23.837812" style="stroke: #000000; stroke-width: 0.8"/>
      </g>
     </g>
     <g id="text_15">
      <!-- 1.0 -->
      <g transform="translate(22.81375 27.637031) scale(0.1 -0.1)">
       <defs>
        <path id="DejaVuSans-31" d="M 794 531 
L 1825 531 
L 1825 4091 
L 703 3866 
L 703 4441 
L 1819 4666 
L 2450 4666 
L 2450 531 
L 3481 531 
L 3481 0 
L 794 0 
L 794 531 
z
" transform="scale(0.015625)"/>
       </defs>
       <use xlink:href="#DejaVuSans-31"/>
       <use xlink:href="#DejaVuSans-2e" transform="translate(63.623047 0)"/>
       <use xlink:href="#DejaVuSans-30" transform="translate(95.410156 0)"/>
      </g>
     </g>
    </g>
    <g id="text_16">
     <!-- Efficacy Score -->
     <g transform="translate(16.318125 199.645427) rotate(-90) scale(0.12 -0.12)">
      <defs>
       <path id="DejaVuSans-45" d="M 628 4666 
L 3578 4666 
L 3578 4134 
L 1259 4134 
L 1259 2753 
L 3481 2753 
L 3481 2222 
L 1259 2222 
L 1259 531 
L 3634 531 
L 3634 0 
L 628 0 
L 628 4666 
z
" transform="scale(0.015625)"/>
      </defs>
      <use xlink:href="#DejaVuSans-45"/>
      <use xlink:href="#DejaVuSans-66" transform="translate(63.183594 0)"/>
      <use xlink:href="#DejaVuSans-66" transform="translate(98.388672 0)"/>
      <use xlink:href="#DejaVuSans-69" transform="translate(133.59375 0)"/>
      <use xlink:href="#DejaVuSans-63" transform="translate(161.376953 0)"/>
      <use xlink:href="#DejaVuSans-61" transform="translate(216.357422 0)"/>
      <use xlink:href="#DejaVuSans-63" transform="translate(277.636719 0)"/>
      <use xlink:href="#DejaVuSans-79" transform="translate(332.617188 0)"/>
      <use xlink:href="#DejaVuSans-20" transform="translate(391.796875 0)"/>
      <use xlink:href="#DejaVuSans-53" transform="translate(423.583984 0)"/>
      <use xlink:href="#DejaVuSans-63" transform="translate(487.060547 0)"/>
      <use xlink:href="#DejaVuSans-6f" transform="translate(542.041016 0)"/>
      <use xlink:href="#DejaVuSans-72" transform="translate(603.222656 0)"/>
      <use xlink:href="#DejaVuSans-65" transform="translate(642.085938 0)"/>
     </g>
    </g>
   </g>
   <g id="line2d_15">
    <path d="M 86.938438 184.144825 
L 86.938438 117.350236 
" clip-path="url(#p48760c2336)" style="fill: none; stroke: #3f3f3f; stroke-width: 1.875; stroke-linecap: square"/>
   </g>
   <g id="line2d_16">
    <path d="M 86.938438 167.446178 
L 86.938438 134.048884 
" clip-path="url(#p48760c2336)" style="fill: none; stroke: #3f3f3f; stroke-width: 5.625; stroke-linecap: square"/>
   </g>
   <g id="line2d_17">
    <path d="M 86.938438 150.747531 
" clip-path="url(#p48760c2336)" style="fill: none; stroke: #3f3f3f; stroke-width: 1.5; stroke-linecap: square"/>
    <defs>
     <path id="m61f5a3c147" d="M 2.34375 0 
L -2.34375 -0 
" style="stroke: #ffffff; stroke-width: 1.125"/>
    </defs>
    <g clip-path="url(#p48760c2336)">
     <use xlink:href="#m61f5a3c147" x="86.938438" y="150.747531" style="fill: #ffffff; stroke: #ffffff; stroke-width: 1.125"/>
    </g>
   </g>
   <g id="line2d_18">
    <path d="M 169.381563 184.144825 
L 169.381563 144.068072 
" clip-path="url(#p48760c2336)" style="fill: none; stroke: #3f3f3f; stroke-width: 1.875; stroke-linecap: square"/>
   </g>
   <g id="line2d_19">
    <path d="M 169.381563 170.785907 
L 169.381563 150.747531 
" clip-path="url(#p48760c2336)" style="fill: none; stroke: #3f3f3f; stroke-width: 5.625; stroke-linecap: square"/>
   </g>
   <g id="line2d_20">
    <path d="M 169.381563 157.42699 
" clip-path="url(#p48760c2336)" style="fill: none; stroke: #3f3f3f; stroke-width: 1.5; stroke-linecap: square"/>
    <g clip-path="url(#p48760c2336)">
     <use xlink:href="#m61f5a3c147" x="169.381563" y="157.42699" style="fill: #ffffff; stroke: #ffffff; stroke-width: 1.125"/>
    </g>
   </g>
   <g id="line2d_21">
    <path d="M 218.847438 117.350236 
L 284.801938 117.350236 
" clip-path="url(#p48760c2336)" style="fill: none; stroke: #3f3f3f; stroke-width: 1.25; stroke-linecap: square"/>
   </g>
   <g id="line2d_22">
    <path d="M 334.267813 210.86266 
L 334.267813 184.144825 
" clip-path="url(#p48760c2336)" style="fill: none; stroke: #3f3f3f; stroke-width: 1.875; stroke-linecap: square"/>
   </g>
   <g id="line2d_23">
    <path d="M 334.267813 197.503743 
L 334.267813 184.144825 
" clip-path="url(#p48760c2336)" style="fill: none; stroke: #3f3f3f; stroke-width: 5.625; stroke-linecap: square"/>
   </g>
   <g id="line2d_24">
    <path d="M 334.267813 184.144825 
" clip-path="url(#p48760c2336)" style="fill: none; stroke: #3f3f3f; stroke-width: 1.5; stroke-linecap: square"/>
    <g clip-path="url(#p48760c2336)">
     <use xlink:href="#m61f5a3c147" x="334.267813" y="184.144825" style="fill: #ffffff; stroke: #ffffff; stroke-width: 1.125"/>
    </g>
   </g>
   <g id="line2d_25">
    <path d="M 416.710938 184.144825 
L 416.710938 144.068072 
" clip-path="url(#p48760c2336)" style="fill: none; stroke: #3f3f3f; stroke-width: 1.875; stroke-linecap: square"/>
   </g>
   <g id="line2d_26">
    <path d="M 416.710938 164.106448 
L 416.710938 144.068072 
" clip-path="url(#p48760c2336)" style="fill: none; stroke: #3f3f3f; stroke-width: 5.625; stroke-linecap: square"/>
   </g>
   <g id="line2d_27">
    <path d="M 416.710938 144.068072 
" clip-path="url(#p48760c2336)" style="fill: none; stroke: #3f3f3f; stroke-width: 1.5; stroke-linecap: square"/>
    <g clip-path="url(#p48760c2336)">
     <use xlink:href="#m61f5a3c147" x="416.710938" y="144.068072" style="fill: #ffffff; stroke: #ffffff; stroke-width: 1.125"/>
    </g>
   </g>
   <g id="line2d_28">
    <path d="M 499.154063 144.068072 
L 499.154063 103.991319 
" clip-path="url(#p48760c2336)" style="fill: none; stroke: #3f3f3f; stroke-width: 1.875; stroke-linecap: square"/>
   </g>
   <g id="line2d_29">
    <path d="M 499.154063 130.709154 
L 499.154063 110.670778 
" clip-path="url(#p48760c2336)" style="fill: none; stroke: #3f3f3f; stroke-width: 5.625; stroke-linecap: square"/>
   </g>
   <g id="line2d_30">
    <path d="M 499.154063 117.350236 
" clip-path="url(#p48760c2336)" style="fill: none; stroke: #3f3f3f; stroke-width: 1.5; stroke-linecap: square"/>
    <g clip-path="url(#p48760c2336)">
     <use xlink:href="#m61f5a3c147" x="499.154063" y="117.350236" style="fill: #ffffff; stroke: #ffffff; stroke-width: 1.125"/>
    </g>
   </g>
   <g id="line2d_31">
    <path d="M 581.597188 157.42699 
L 581.597188 103.991319 
" clip-path="url(#p48760c2336)" style="fill: none; stroke: #3f3f3f; stroke-width: 1.875; stroke-linecap: square"/>
   </g>
   <g id="line2d_32">
    <path d="M 581.597188 137.388613 
L 581.597188 110.670778 
" clip-path="url(#p48760c2336)" style="fill: none; stroke: #3f3f3f; stroke-width: 5.625; stroke-linecap: square"/>
   </g>
   <g id="line2d_33">
    <path d="M 581.597188 117.350236 
" clip-path="url(#p48760c2336)" style="fill: none; stroke: #3f3f3f; stroke-width: 1.5; stroke-linecap: square"/>
    <g clip-path="url(#p48760c2336)">
     <use xlink:href="#m61f5a3c147" x="581.597188" y="117.350236" style="fill: #ffffff; stroke: #ffffff; stroke-width: 1.125"/>
    </g>
   </g>
   <g id="line2d_34">
    <path d="M 664.040313 130.709154 
L 664.040313 117.350236 
" clip-path="url(#p48760c2336)" style="fill: none; stroke: #3f3f3f; stroke-width: 1.875; stroke-linecap: square"/>
   </g>
   <g id="line2d_35">
    <path d="M 664.040313 127.369425 
L 664.040313 120.689966 
" clip-path="url(#p48760c2336)" style="fill: none; stroke: #3f3f3f; stroke-width: 5.625; stroke-linecap: square"/>
   </g>
   <g id="line2d_36">
    <path d="M 664.040313 124.029695 
" clip-path="url(#p48760c2336)" style="fill: none; stroke: #3f3f3f; stroke-width: 1.5; stroke-linecap: square"/>
    <g clip-path="url(#p48760c2336)">
     <use xlink:href="#m61f5a3c147" x="664.040313" y="124.029695" style="fill: #ffffff; stroke: #ffffff; stroke-width: 1.125"/>
    </g>
   </g>
   <g id="patch_3">
    <path d="M 45.716875 291.016167 
L 45.716875 23.837812 
" style="fill: none; stroke: #000000; stroke-width: 0.8; stroke-linejoin: miter; stroke-linecap: square"/>
   </g>
   <g id="patch_4">
    <path d="M 705.261875 291.016167 
L 705.261875 23.837812 
" style="fill: none; stroke: #000000; stroke-width: 0.8; stroke-linejoin: miter; stroke-linecap: square"/>
   </g>
   <g id="patch_5">
    <path d="M 45.716875 291.016167 
L 705.261875 291.016167 
" style="fill: none; stroke: #000000; stroke-width: 0.8; stroke-linejoin: miter; stroke-linecap: square"/>
   </g>
   <g id="patch_6">
    <path d="M 45.716875 23.837812 
L 705.261875 23.837812 
" style="fill: none; stroke: #000000; stroke-width: 0.8; stroke-linejoin: miter; stroke-linecap: square"/>
   </g>
   <g id="text_17">
    <!-- Guide RNA Efficacy Distribution by Mission Step -->
    <g transform="translate(185.743438 17.837812) scale(0.14 -0.14)">
     <defs>
      <path id="DejaVuSans-Bold-47" d="M 4781 347 
Q 4331 128 3847 18 
Q 3363 -91 2847 -91 
Q 1681 -91 1000 561 
Q 319 1213 319 2328 
Q 319 3456 1012 4103 
Q 1706 4750 2913 4750 
Q 3378 4750 3804 4662 
Q 4231 4575 4609 4403 
L 4609 3438 
Q 4219 3659 3833 3768 
Q 3447 3878 3059 3878 
Q 2341 3878 1952 3476 
Q 1563 3075 1563 2328 
Q 1563 1588 1938 1184 
Q 2313 781 3003 781 
Q 3191 781 3352 804 
Q 3513 828 3641 878 
L 3641 1784 
L 2906 1784 
L 2906 2591 
L 4781 2591 
L 4781 347 
z
" transform="scale(0.015625)"/>
      <path id="DejaVuSans-Bold-75" d="M 500 1363 
L 500 3500 
L 1625 3500 
L 1625 3150 
Q 1625 2866 1622 2436 
Q 1619 2006 1619 1863 
Q 1619 1441 1641 1255 
Q 1663 1069 1716 984 
Q 1784 875 1895 815 
Q 2006 756 2150 756 
Q 2500 756 2700 1025 
Q 2900 1294 2900 1772 
L 2900 3500 
L 4019 3500 
L 4019 0 
L 2900 0 
L 2900 506 
Q 2647 200 2364 54 
Q 2081 -91 1741 -91 
Q 1134 -91 817 281 
Q 500 653 500 1363 
z
" transform="scale(0.015625)"/>
      <path id="DejaVuSans-Bold-69" d="M 538 3500 
L 1656 3500 
L 1656 0 
L 538 0 
L 538 3500 
z
M 538 4863 
L 1656 4863 
L 1656 3950 
L 538 3950 
L 538 4863 
z
" transform="scale(0.015625)"/>
      <path id="DejaVuSans-Bold-64" d="M 2919 2988 
L 2919 4863 
L 4044 4863 
L 4044 0 
L 2919 0 
L 2919 506 
Q 2688 197 2409 53 
Q 2131 -91 1766 -91 
Q 1119 -91 703 423 
Q 288 938 288 1747 
Q 288 2556 703 3070 
Q 1119 3584 1766 3584 
Q 2128 3584 2408 3439 
Q 2688 3294 2919 2988 
z
M 2181 722 
Q 2541 722 2730 984 
Q 2919 1247 2919 1747 
Q 2919 2247 2730 2509 
Q 2541 2772 2181 2772 
Q 1825 2772 1636 2509 
Q 1447 2247 1447 1747 
Q 1447 1247 1636 984 
Q 1825 722 2181 722 
z
" transform="scale(0.015625)"/>
      <path id="DejaVuSans-Bold-65" d="M 4031 1759 
L 4031 1441 
L 1416 1441 
Q 1456 1047 1700 850 
Q 1944 653 2381 653 
Q 2734 653 3104 758 
Q 3475 863 3866 1075 
L 3866 213 
Q 3469 63 3072 -14 
Q 2675 -91 2278 -91 
Q 1328 -91 801 392 
Q 275 875 275 1747 
Q 275 2603 792 3093 
Q 1309 3584 2216 3584 
Q 3041 3584 3536 3087 
Q 4031 2591 4031 1759 
z
M 2881 2131 
Q 2881 2450 2695 2645 
Q 2509 2841 2209 2841 
Q 1884 2841 1681 2658 
Q 1478 2475 1428 2131 
L 2881 2131 
z
" transform="scale(0.015625)"/>
      <path id="DejaVuSans-Bold-20" transform="scale(0.015625)"/>
      <path id="DejaVuSans-Bold-52" d="M 2297 2597 
Q 2675 2597 2839 2737 
Q 3003 2878 3003 3200 
Q 3003 3519 2839 3656 
Q 2675 3794 2297 3794 
L 1791 3794 
L 1791 2597 
L 2297 2597 
z
M 1791 1766 
L 1791 0 
L 588 0 
L 588 4666 
L 2425 4666 
Q 3347 4666 3776 4356 
Q 4206 4047 4206 3378 
Q 4206 2916 3982 2619 
Q 3759 2322 3309 2181 
Q 3556 2125 3751 1926 
Q 3947 1728 4147 1325 
L 4800 0 
L 3519 0 
L 2950 1159 
Q 2778 1509 2601 1637 
Q 2425 1766 2131 1766 
L 1791 1766 
z
" transform="scale(0.015625)"/>
      <path id="DejaVuSans-Bold-4e" d="M 588 4666 
L 1931 4666 
L 3628 1466 
L 3628 4666 
L 4769 4666 
L 4769 0 
L 3425 0 
L 1728 3200 
L 1728 0 
L 588 0 
L 588 4666 
z
" transform="scale(0.015625)"/>
      <path id="DejaVuSans-Bold-41" d="M 3419 850 
L 1538 850 
L 1241 0 
L 31 0 
L 1759 4666 
L 3194 4666 
L 4922 0 
L 3713 0 
L 3419 850 
z
M 1838 1716 
L 3116 1716 
L 2478 3572 
L 1838 1716 
z
" transform="scale(0.015625)"/>
      <path id="DejaVuSans-Bold-45" d="M 588 4666 
L 3834 4666 
L 3834 3756 
L 1791 3756 
L 1791 2888 
L 3713 2888 
L 3713 1978 
L 1791 1978 
L 1791 909 
L 3903 909 
L 3903 0 
L 588 0 
L 588 4666 
z
" transform="scale(0.015625)"/>
      <path id="DejaVuSans-Bold-66" d="M 2841 4863 
L 2841 4128 
L 2222 4128 
Q 1984 4128 1890 4042 
Q 1797 3956 1797 3744 
L 1797 3500 
L 2753 3500 
L 2753 2700 
L 1797 2700 
L 1797 0 
L 678 0 
L 678 2700 
L 122 2700 
L 122 3500 
L 678 3500 
L 678 3744 
Q 678 4316 997 4589 
Q 1316 4863 1984 4863 
L 2841 4863 
z
" transform="scale(0.015625)"/>
      <path id="DejaVuSans-Bold-63" d="M 3366 3391 
L 3366 2478 
Q 3138 2634 2908 2709 
Q 2678 2784 2431 2784 
Q 1963 2784 1702 2511 
Q 1441 2238 1441 1747 
Q 1441 1256 1702 982 
Q 1963 709 2431 709 
Q 2694 709 2930 787 
Q 3166 866 3366 1019 
L 3366 103 
Q 3103 6 2833 -42 
Q 2563 -91 2291 -91 
Q 1344 -91 809 395 
Q 275 881 275 1747 
Q 275 2613 809 3098 
Q 1344 3584 2291 3584 
Q 2566 3584 2833 3536 
Q 3100 3488 3366 3391 
z
" transform="scale(0.015625)"/>
      <path id="DejaVuSans-Bold-61" d="M 2106 1575 
Q 1756 1575 1579 1456 
Q 1403 1338 1403 1106 
Q 1403 894 1545 773 
Q 1688 653 1941 653 
Q 2256 653 2472 879 
Q 2688 1106 2688 1447 
L 2688 1575 
L 2106 1575 
z
M 3816 1997 
L 3816 0 
L 2688 0 
L 2688 519 
Q 2463 200 2181 54 
Q 1900 -91 1497 -91 
Q 953 -91 614 226 
Q 275 544 275 1050 
Q 275 1666 698 1953 
Q 1122 2241 2028 2241 
L 2688 2241 
L 2688 2328 
Q 2688 2594 2478 2717 
Q 2269 2841 1825 2841 
Q 1466 2841 1156 2769 
Q 847 2697 581 2553 
L 581 3406 
Q 941 3494 1303 3539 
Q 1666 3584 2028 3584 
Q 2975 3584 3395 3211 
Q 3816 2838 3816 1997 
z
" transform="scale(0.015625)"/>
      <path id="DejaVuSans-Bold-79" d="M 78 3500 
L 1197 3500 
L 2138 1125 
L 2938 3500 
L 4056 3500 
L 2584 -331 
Q 2363 -916 2067 -1148 
Q 1772 -1381 1288 -1381 
L 641 -1381 
L 641 -647 
L 991 -647 
Q 1275 -647 1404 -556 
Q 1534 -466 1606 -231 
L 1638 -134 
L 78 3500 
z
" transform="scale(0.015625)"/>
      <path id="DejaVuSans-Bold-44" d="M 1791 3756 
L 1791 909 
L 2222 909 
Q 2959 909 3348 1275 
Q 3738 1641 3738 2338 
Q 3738 3031 3350 3393 
Q 2963 3756 2222 3756 
L 1791 3756 
z
M 588 4666 
L 1856 4666 
Q 2919 4666 3439 4514 
Q 3959 4363 4331 4000 
Q 4659 3684 4818 3271 
Q 4978 2859 4978 2338 
Q 4978 1809 4818 1395 
Q 4659 981 4331 666 
Q 3956 303 3431 151 
Q 2906 0 1856 0 
L 588 0 
L 588 4666 
z
" transform="scale(0.015625)"/>
      <path id="DejaVuSans-Bold-73" d="M 3272 3391 
L 3272 2541 
Q 2913 2691 2578 2766 
Q 2244 2841 1947 2841 
Q 1628 2841 1473 2761 
Q 1319 2681 1319 2516 
Q 1319 2381 1436 2309 
Q 1553 2238 1856 2203 
L 2053 2175 
Q 2913 2066 3209 1816 
Q 3506 1566 3506 1031 
Q 3506 472 3093 190 
Q 2681 -91 1863 -91 
Q 1516 -91 1145 -36 
Q 775 19 384 128 
L 384 978 
Q 719 816 1070 734 
Q 1422 653 1784 653 
Q 2113 653 2278 743 
Q 2444 834 2444 1013 
Q 2444 1163 2330 1236 
Q 2216 1309 1875 1350 
L 1678 1375 
Q 931 1469 631 1722 
Q 331 1975 331 2491 
Q 331 3047 712 3315 
Q 1094 3584 1881 3584 
Q 2191 3584 2531 3537 
Q 2872 3491 3272 3391 
z
" transform="scale(0.015625)"/>
      <path id="DejaVuSans-Bold-74" d="M 1759 4494 
L 1759 3500 
L 2913 3500 
L 2913 2700 
L 1759 2700 
L 1759 1216 
Q 1759 972 1856 886 
Q 1953 800 2241 800 
L 2816 800 
L 2816 0 
L 1856 0 
Q 1194 0 917 276 
Q 641 553 641 1216 
L 641 2700 
L 84 2700 
L 84 3500 
L 641 3500 
L 641 4494 
L 1759 4494 
z
" transform="scale(0.015625)"/>
      <path id="DejaVuSans-Bold-72" d="M 3138 2547 
Q 2991 2616 2845 2648 
Q 2700 2681 2553 2681 
Q 2122 2681 1889 2404 
Q 1656 2128 1656 1613 
L 1656 0 
L 538 0 
L 538 3500 
L 1656 3500 
L 1656 2925 
Q 1872 3269 2151 3426 
Q 2431 3584 2822 3584 
Q 2878 3584 2943 3579 
Q 3009 3575 3134 3559 
L 3138 2547 
z
" transform="scale(0.015625)"/>
      <path id="DejaVuSans-Bold-62" d="M 2400 722 
Q 2759 722 2948 984 
Q 3138 1247 3138 1747 
Q 3138 2247 2948 2509 
Q 2759 2772 2400 2772 
Q 2041 2772 1848 2508 
Q 1656 2244 1656 1747 
Q 1656 1250 1848 986 
Q 2041 722 2400 722 
z
M 1656 2988 
Q 1888 3294 2169 3439 
Q 2450 3584 2816 3584 
Q 3463 3584 3878 3070 
Q 4294 2556 4294 1747 
Q 4294 938 3878 423 
Q 3463 -91 2816 -91 
Q 2450 -91 2169 54 
Q 1888 200 1656 506 
L 1656 0 
L 538 0 
L 538 4863 
L 1656 4863 
L 1656 2988 
z
" transform="scale(0.015625)"/>
      <path id="DejaVuSans-Bold-6f" d="M 2203 2784 
Q 1831 2784 1636 2517 
Q 1441 2250 1441 1747 
Q 1441 1244 1636 976 
Q 1831 709 2203 709 
Q 2569 709 2762 976 
Q 2956 1244 2956 1747 
Q 2956 2250 2762 2517 
Q 2569 2784 2203 2784 
z
M 2203 3584 
Q 3106 3584 3614 3096 
Q 4122 2609 4122 1747 
Q 4122 884 3614 396 
Q 3106 -91 2203 -91 
Q 1297 -91 786 396 
Q 275 884 275 1747 
Q 275 2609 786 3096 
Q 1297 3584 2203 3584 
z
" transform="scale(0.015625)"/>
      <path id="DejaVuSans-Bold-6e" d="M 4056 2131 
L 4056 0 
L 2931 0 
L 2931 347 
L 2931 1631 
Q 2931 2084 2911 2256 
Q 2891 2428 2841 2509 
Q 2775 2619 2662 2680 
Q 2550 2741 2406 2741 
Q 2056 2741 1856 2470 
Q 1656 2200 1656 1722 
L 1656 0 
L 538 0 
L 538 3500 
L 1656 3500 
L 1656 2988 
Q 1909 3294 2193 3439 
Q 2478 3584 2822 3584 
Q 3428 3584 3742 3212 
Q 4056 2841 4056 2131 
z
" transform="scale(0.015625)"/>
      <path id="DejaVuSans-Bold-4d" d="M 588 4666 
L 2119 4666 
L 3181 2169 
L 4250 4666 
L 5778 4666 
L 5778 0 
L 4641 0 
L 4641 3413 
L 3566 897 
L 2803 897 
L 1728 3413 
L 1728 0 
L 588 0 
L 588 4666 
z
" transform="scale(0.015625)"/>
      <path id="DejaVuSans-Bold-53" d="M 3834 4519 
L 3834 3531 
Q 3450 3703 3084 3790 
Q 2719 3878 2394 3878 
Q 1963 3878 1756 3759 
Q 1550 3641 1550 3391 
Q 1550 3203 1689 3098 
Q 1828 2994 2194 2919 
L 2706 2816 
Q 3484 2659 3812 2340 
Q 4141 2022 4141 1434 
Q 4141 663 3683 286 
Q 3225 -91 2284 -91 
Q 1841 -91 1394 -6 
Q 947 78 500 244 
L 500 1259 
Q 947 1022 1364 901 
Q 1781 781 2169 781 
Q 2563 781 2772 912 
Q 2981 1044 2981 1288 
Q 2981 1506 2839 1625 
Q 2697 1744 2272 1838 
L 1806 1941 
Q 1106 2091 782 2419 
Q 459 2747 459 3303 
Q 459 4000 909 4375 
Q 1359 4750 2203 4750 
Q 2588 4750 2994 4692 
Q 3400 4634 3834 4519 
z
" transform="scale(0.015625)"/>
      <path id="DejaVuSans-Bold-70" d="M 1656 506 
L 1656 -1331 
L 538 -1331 
L 538 3500 
L 1656 3500 
L 1656 2988 
Q 1888 3294 2169 3439 
Q 2450 3584 2816 3584 
Q 3463 3584 3878 3070 
Q 4294 2556 4294 1747 
Q 4294 938 3878 423 
Q 3463 -91 2816 -91 
Q 2450 -91 2169 54 
Q 1888 200 1656 506 
z
M 2400 2772 
Q 2041 2772 1848 2508 
Q 1656 2244 1656 1747 
Q 1656 1250 1848 986 
Q 2041 722 2400 722 
Q 2759 722 2948 984 
Q 3138 1247 3138 1747 
Q 3138 2247 2948 2509 
Q 2759 2772 2400 2772 
z
" transform="scale(0.015625)"/>
     </defs>
     <use xlink:href="#DejaVuSans-Bold-47"/>
     <use xlink:href="#DejaVuSans-Bold-75" transform="translate(82.080078 0)"/>
     <use xlink:href="#DejaVuSans-Bold-69" transform="translate(153.271484 0)"/>
     <use xlink:href="#DejaVuSans-Bold-64" transform="translate(187.548828 0)"/>
     <use xlink:href="#DejaVuSans-Bold-65" transform="translate(259.130859 0)"/>
     <use xlink:href="#DejaVuSans-Bold-20" transform="translate(326.953125 0)"/>
     <use xlink:href="#DejaVuSans-Bold-52" transform="translate(361.767578 0)"/>
     <use xlink:href="#DejaVuSans-Bold-4e" transform="translate(438.769531 0)"/>
     <use xlink:href="#DejaVuSans-Bold-41" transform="translate(522.460938 0)"/>
     <use xlink:href="#DejaVuSans-Bold-20" transform="translate(599.853516 0)"/>
     <use xlink:href="#DejaVuSans-Bold-45" transform="translate(634.667969 0)"/>
     <use xlink:href="#DejaVuSans-Bold-66" transform="translate(702.978516 0)"/>
     <use xlink:href="#DejaVuSans-Bold-66" transform="translate(746.484375 0)"/>
     <use xlink:href="#DejaVuSans-Bold-69" transform="translate(789.990234 0)"/>
     <use xlink:href="#DejaVuSans-Bold-63" transform="translate(824.267578 0)"/>
     <use xlink:href="#DejaVuSans-Bold-61" transform="translate(883.544922 0)"/>
     <use xlink:href="#DejaVuSans-Bold-63" transform="translate(951.025391 0)"/>
     <use xlink:href="#DejaVuSans-Bold-79" transform="translate(1010.302734 0)"/>
     <use xlink:href="#DejaVuSans-Bold-20" transform="translate(1075.488281 0)"/>
     <use xlink:href="#DejaVuSans-Bold-44" transform="translate(1110.302734 0)"/>
     <use xlink:href="#DejaVuSans-Bold-69" transform="translate(1193.310547 0)"/>
     <use xlink:href="#DejaVuSans-Bold-73" transform="translate(1227.587891 0)"/>
     <use xlink:href="#DejaVuSans-Bold-74" transform="translate(1287.109375 0)"/>
     <use xlink:href="#DejaVuSans-Bold-72" transform="translate(1334.912109 0)"/>
     <use xlink:href="#DejaVuSans-Bold-69" transform="translate(1384.228516 0)"/>
     <use xlink:href="#DejaVuSans-Bold-62" transform="translate(1418.505859 0)"/>
     <use xlink:href="#DejaVuSans-Bold-75" transform="translate(1490.087891 0)"/>
     <use xlink:href="#DejaVuSans-Bold-74" transform="translate(1561.279297 0)"/>
     <use xlink:href="#DejaVuSans-Bold-69" transform="translate(1609.082031 0)"/>
     <use xlink:href="#DejaVuSans-Bold-6f" transform="translate(1643.359375 0)"/>
     <use xlink:href="#DejaVuSans-Bold-6e" transform="translate(1712.060547 0)"/>
     <use xlink:href="#DejaVuSans-Bold-20" transform="translate(1783.251953 0)"/>
     <use xlink:href="#DejaVuSans-Bold-62" transform="translate(1818.066406 0)"/>
     <use xlink:href="#DejaVuSans-Bold-79" transform="translate(1889.648438 0)"/>
     <use xlink:href="#DejaVuSans-Bold-20" transform="translate(1954.833984 0)"/>
     <use xlink:href="#DejaVuSans-Bold-4d" transform="translate(1989.648438 0)"/>
     <use xlink:href="#DejaVuSans-Bold-69" transform="translate(2089.160156 0)"/>
     <use xlink:href="#DejaVuSans-Bold-73" transform="translate(2123.4375 0)"/>
     <use xlink:href="#DejaVuSans-Bold-73" transform="translate(2182.958984 0)"/>
     <use xlink:href="#DejaVuSans-Bold-69" transform="translate(2242.480469 0)"/>
     <use xlink:href="#DejaVuSans-Bold-6f" transform="translate(2276.757812 0)"/>
     <use xlink:href="#DejaVuSans-Bold-6e" transform="translate(2345.458984 0)"/>
     <use xlink:href="#DejaVuSans-Bold-20" transform="translate(2416.650391 0)"/>
     <use xlink:href="#DejaVuSans-Bold-53" transform="translate(2451.464844 0)"/>
     <use xlink:href="#DejaVuSans-Bold-74" transform="translate(2523.486328 0)"/>
     <use xlink:href="#DejaVuSans-Bold-65" transform="translate(2571.289062 0)"/>
     <use xlink:href="#DejaVuSans-Bold-70" transform="translate(2639.111328 0)"/>
    </g>
   </g>
  </g>
 </g>
 <defs>
  <clipPath id="p48760c2336">
   <rect x="45.716875" y="23.837812" width="659.545" height="267.178354"/>
  </clipPath>
 </defs>
</svg>
