<?xml version="1.0" encoding="utf-8" standalone="no"?>
<!DOCTYPE svg PUBLIC "-//W3C//DTD SVG 1.1//EN"
  "http://www.w3.org/Graphics/SVG/1.1/DTD/svg11.dtd">
<svg xmlns:xlink="http://www.w3.org/1999/xlink" width="712.461875pt" height="424.048724pt" viewBox="0 0 712.461875 424.048724" xmlns="http://www.w3.org/2000/svg" version="1.1">
 <metadata>
  <rdf:RDF xmlns:dc="http://purl.org/dc/elements/1.1/" xmlns:cc="http://creativecommons.org/ns#" xmlns:rdf="http://www.w3.org/1999/02/22-rdf-syntax-ns#">
   <cc:Work>
    <dc:type rdf:resource="http://purl.org/dc/dcmitype/StillImage"/>
    <dc:date>2025-10-07T16:58:06.668069</dc:date>
    <dc:format>image/svg+xml</dc:format>
    <dc:creator>
     <cc:Agent>
      <dc:title>Matplotlib v3.10.3, https://matplotlib.org/</dc:title>
     </cc:Agent>
    </dc:creator>
   </cc:Work>
  </rdf:RDF>
 </metadata>
 <defs>
  <style type="text/css">*{stroke-linejoin: round; stroke-linecap: butt}</style>
 </defs>
 <g id="figure_1">
  <g id="patch_1">
   <path d="M 0 424.048724 
L 712.461875 424.048724 
L 712.461875 0 
L 0 0 
z
" style="fill: #ffffff"/>
  </g>
  <g id="axes_1">
   <g id="patch_2">
    <path d="M 45.716875 291.016167 
L 705.261875 291.016167 
L 705.261875 23.837812 
L 45.716875 23.837812 
z
" style="fill: #ffffff"/>
   </g>
   <g id="FillBetweenPolyCollection_1">
    <path d="M 87.448105 362.430276 
L 86.42877 362.430276 
L 86.367795 357.122926 
L 86.301524 351.815577 
L 86.229773 346.508227 
L 86.152391 341.200877 
L 86.069262 335.893527 
L 85.980308 330.586178 
L 85.885497 325.278828 
L 85.784846 319.971478 
L 85.678424 314.664129 
L 85.566353 309.356779 
L 85.448815 304.049429 
L 85.326047 298.742079 
L 85.198348 293.43473 
L 85.066074 288.12738 
L 84.929637 282.82003 
L 84.789503 277.51268 
L 84.646191 272.205331 
L 84.500261 266.897981 
L 84.352316 261.590631 
L 84.202991 256.283282 
L 84.052945 250.975932 
L 83.902857 245.668582 
L 83.753411 240.361232 
L 83.605293 235.053883 
L 83.459178 229.746533 
L 83.315725 224.439183 
L 83.175561 219.131834 
L 83.039283 213.824484 
L 82.907442 208.517134 
L 82.780541 203.209784 
L 82.659029 197.902435 
L 82.543297 192.595085 
L 82.433675 187.287735 
L 82.330431 181.980386 
L 82.233772 176.673036 
L 82.143847 171.365686 
L 82.060746 166.058336 
L 81.984509 160.750987 
L 81.91513 155.443637 
L 81.852564 150.136287 
L 81.796734 144.828938 
L 81.74754 139.521588 
L 81.704864 134.214238 
L 81.668585 128.906888 
L 81.638578 123.599539 
L 81.614729 118.292189 
L 81.596938 112.984839 
L 81.585124 107.67749 
L 81.579232 102.37014 
L 81.579232 97.06279 
L 81.585124 91.75544 
L 81.596938 86.448091 
L 81.614729 81.140741 
L 81.638578 75.833391 
L 81.668585 70.526042 
L 81.704864 65.218692 
L 81.74754 59.911342 
L 81.796734 54.603992 
L 81.852564 49.296643 
L 81.91513 43.989293 
L 81.984509 38.681943 
L 82.060746 33.374594 
L 82.143847 28.067244 
L 82.233772 22.759894 
L 82.330431 17.452544 
L 82.433675 12.145195 
L 82.543297 6.837845 
L 82.659029 1.530495 
L 82.780541 -3.776854 
L 82.907442 -9.084204 
L 83.039283 -14.391554 
L 83.175561 -19.698904 
L 83.315725 -25.006253 
L 83.459178 -30.313603 
L 83.605293 -35.620953 
L 83.753411 -40.928302 
L 83.902857 -46.235652 
L 84.052945 -51.543002 
L 84.202991 -56.850352 
L 84.352316 -62.157701 
L 84.500261 -67.465051 
L 84.646191 -72.772401 
L 84.789503 -78.07975 
L 84.929637 -83.3871 
L 85.066074 -88.69445 
L 85.198348 -94.0018 
L 85.326047 -99.309149 
L 85.448815 -104.616499 
L 85.566353 -109.923849 
L 85.678424 -115.231198 
L 85.784846 -120.538548 
L 85.885497 -125.845898 
L 85.980308 -131.153248 
L 86.069262 -136.460597 
L 86.152391 -141.767947 
L 86.229773 -147.075297 
L 86.301524 -152.382646 
L 86.367795 -157.689996 
L 86.42877 -162.997346 
L 87.448105 -162.997346 
L 87.448105 -162.997346 
L 87.50908 -157.689996 
L 87.575351 -152.382646 
L 87.647102 -147.075297 
L 87.724484 -141.767947 
L 87.807613 -136.460597 
L 87.896567 -131.153248 
L 87.991378 -125.845898 
L 88.092029 -120.538548 
L 88.198451 -115.231198 
L 88.310522 -109.923849 
L 88.42806 -104.616499 
L 88.550828 -99.309149 
L 88.678527 -94.0018 
L 88.810801 -88.69445 
L 88.947238 -83.3871 
L 89.087372 -78.07975 
L 89.230684 -72.772401 
L 89.376614 -67.465051 
L 89.524559 -62.157701 
L 89.673884 -56.850352 
L 89.82393 -51.543002 
L 89.974018 -46.235652 
L 90.123464 -40.928302 
L 90.271582 -35.620953 
L 90.417697 -30.313603 
L 90.56115 -25.006253 
L 90.701314 -19.698904 
L 90.837592 -14.391554 
L 90.969433 -9.084204 
L 91.096334 -3.776854 
L 91.217846 1.530495 
L 91.333578 6.837845 
L 91.4432 12.145195 
L 91.546444 17.452544 
L 91.643103 22.759894 
L 91.733028 28.067244 
L 91.816129 33.374594 
L 91.892366 38.681943 
L 91.961745 43.989293 
L 92.024311 49.296643 
L 92.080141 54.603992 
L 92.129335 59.911342 
L 92.172011 65.218692 
L 92.20829 70.526042 
L 92.238297 75.833391 
L 92.262146 81.140741 
L 92.279937 86.448091 
L 92.291751 91.75544 
L 92.297643 97.06279 
L 92.297643 102.37014 
L 92.291751 107.67749 
L 92.279937 112.984839 
L 92.262146 118.292189 
L 92.238297 123.599539 
L 92.20829 128.906888 
L 92.172011 134.214238 
L 92.129335 139.521588 
L 92.080141 144.828938 
L 92.024311 150.136287 
L 91.961745 155.443637 
L 91.892366 160.750987 
L 91.816129 166.058336 
L 91.733028 171.365686 
L 91.643103 176.673036 
L 91.546444 181.980386 
L 91.4432 187.287735 
L 91.333578 192.595085 
L 91.217846 197.902435 
L 91.096334 203.209784 
L 90.969433 208.517134 
L 90.837592 213.824484 
L 90.701314 219.131834 
L 90.56115 224.439183 
L 90.417697 229.746533 
L 90.271582 235.053883 
L 90.123464 240.361232 
L 89.974018 245.668582 
L 89.82393 250.975932 
L 89.673884 256.283282 
L 89.524559 261.590631 
L 89.376614 266.897981 
L 89.230684 272.205331 
L 89.087372 277.51268 
L 88.947238 282.82003 
L 88.810801 288.12738 
L 88.678527 293.43473 
L 88.550828 298.742079 
L 88.42806 304.049429 
L 88.310522 309.356779 
L 88.198451 314.664129 
L 88.092029 319.971478 
L 87.991378 325.278828 
L 87.896567 330.586178 
L 87.807613 335.893527 
L 87.724484 341.200877 
L 87.647102 346.508227 
L 87.575351 351.815577 
L 87.50908 357.122926 
L 87.448105 362.430276 
z
" clip-path="url(#p0be5ca5f31)" style="fill: #3274a1; stroke: #3f3f3f; stroke-width: 1.25"/>
   </g>
   <g id="FillBetweenPolyCollection_2">
    <defs>
     <path id="mdef58cad19" d="M 418.83064 -231.559616 
L 414.591235 -231.559616 
L 414.314192 -232.483844 
L 414.011259 -233.408071 
L 413.681593 -234.332298 
L 413.32456 -235.256526 
L 412.939764 -236.180753 
L 412.527078 -237.10498 
L 412.086674 -238.029208 
L 411.619041 -238.953435 
L 411.125012 -239.877662 
L 410.605767 -240.801889 
L 410.062849 -241.726117 
L 409.498152 -242.650344 
L 408.913917 -243.574571 
L 408.312711 -244.498799 
L 407.697395 -245.423026 
L 407.071087 -246.347253 
L 406.437112 -247.271481 
L 405.798949 -248.195708 
L 405.16016 -249.119935 
L 404.524321 -250.044163 
L 403.894946 -250.96839 
L 403.275404 -251.892617 
L 402.668837 -252.816845 
L 402.078083 -253.741072 
L 401.505591 -254.665299 
L 400.953358 -255.589527 
L 400.422855 -256.513754 
L 399.914984 -257.437981 
L 399.430032 -258.362209 
L 398.967648 -259.286436 
L 398.526837 -260.210663 
L 398.105967 -261.134891 
L 397.702799 -262.059118 
L 397.314535 -262.983345 
L 396.937887 -263.907573 
L 396.569157 -264.8318 
L 396.204342 -265.756027 
L 395.839247 -266.680255 
L 395.469612 -267.604482 
L 395.091248 -268.528709 
L 394.700177 -269.452936 
L 394.292774 -270.377164 
L 393.865904 -271.301391 
L 393.417054 -272.225618 
L 392.944456 -273.149846 
L 392.447189 -274.074073 
L 391.925269 -274.9983 
L 391.37971 -275.922528 
L 390.81257 -276.846755 
L 390.226963 -277.770982 
L 389.627043 -278.69521 
L 389.017968 -279.619437 
L 388.405828 -280.543664 
L 387.79755 -281.467892 
L 387.200776 -282.392119 
L 386.623724 -283.316346 
L 386.075024 -284.240574 
L 385.563543 -285.164801 
L 385.098203 -286.089028 
L 384.687786 -287.013256 
L 384.340743 -287.937483 
L 384.06501 -288.86171 
L 383.867832 -289.785938 
L 383.755595 -290.710165 
L 383.733688 -291.634392 
L 383.806376 -292.55862 
L 383.976709 -293.482847 
L 384.246447 -294.407074 
L 384.616022 -295.331301 
L 385.084529 -296.255529 
L 385.649742 -297.179756 
L 386.308161 -298.103983 
L 387.055089 -299.028211 
L 387.884724 -299.952438 
L 388.790285 -300.876665 
L 389.764141 -301.800893 
L 390.797966 -302.72512 
L 391.882893 -303.649347 
L 393.009685 -304.573575 
L 394.168896 -305.497802 
L 395.351031 -306.422029 
L 396.546709 -307.346257 
L 397.746802 -308.270484 
L 398.942568 -309.194711 
L 400.125773 -310.118939 
L 401.288786 -311.043166 
L 402.424662 -311.967393 
L 403.527208 -312.891621 
L 404.591022 -313.815848 
L 405.611519 -314.740075 
L 406.584942 -315.664303 
L 407.508351 -316.58853 
L 408.379595 -317.512757 
L 409.197281 -318.436985 
L 409.960725 -319.361212 
L 410.669891 -320.285439 
L 411.325335 -321.209667 
L 411.928129 -322.133894 
L 412.479797 -323.058121 
L 420.942078 -323.058121 
L 420.942078 -323.058121 
L 421.493746 -322.133894 
L 422.09654 -321.209667 
L 422.751984 -320.285439 
L 423.46115 -319.361212 
L 424.224594 -318.436985 
L 425.04228 -317.512757 
L 425.913524 -316.58853 
L 426.836933 -315.664303 
L 427.810356 -314.740075 
L 428.830853 -313.815848 
L 429.894667 -312.891621 
L 430.997213 -311.967393 
L 432.133089 -311.043166 
L 433.296102 -310.118939 
L 434.479307 -309.194711 
L 435.675073 -308.270484 
L 436.875166 -307.346257 
L 438.070844 -306.422029 
L 439.252979 -305.497802 
L 440.41219 -304.573575 
L 441.538982 -303.649347 
L 442.623909 -302.72512 
L 443.657734 -301.800893 
L 444.63159 -300.876665 
L 445.537151 -299.952438 
L 446.366786 -299.028211 
L 447.113714 -298.103983 
L 447.772133 -297.179756 
L 448.337346 -296.255529 
L 448.805853 -295.331301 
L 449.175428 -294.407074 
L 449.445166 -293.482847 
L 449.615499 -292.55862 
L 449.688188 -291.634392 
L 449.66628 -290.710165 
L 449.554043 -289.785938 
L 449.356865 -288.86171 
L 449.081132 -287.937483 
L 448.734089 -287.013256 
L 448.323672 -286.089028 
L 447.858332 -285.164801 
L 447.346851 -284.240574 
L 446.798151 -283.316346 
L 446.221099 -282.392119 
L 445.624325 -281.467892 
L 445.016047 -280.543664 
L 444.403907 -279.619437 
L 443.794832 -278.69521 
L 443.194912 -277.770982 
L 442.609305 -276.846755 
L 442.042165 -275.922528 
L 441.496606 -274.9983 
L 440.974686 -274.074073 
L 440.477419 -273.149846 
L 440.004821 -272.225618 
L 439.555971 -271.301391 
L 439.129101 -270.377164 
L 438.721698 -269.452936 
L 438.330627 -268.528709 
L 437.952263 -267.604482 
L 437.582628 -266.680255 
L 437.217533 -265.756027 
L 436.852718 -264.8318 
L 436.483988 -263.907573 
L 436.10734 -262.983345 
L 435.719076 -262.059118 
L 435.315908 -261.134891 
L 434.895038 -260.210663 
L 434.454227 -259.286436 
L 433.991843 -258.362209 
L 433.506891 -257.437981 
L 432.99902 -256.513754 
L 432.468517 -255.589527 
L 431.916284 -254.665299 
L 431.343792 -253.741072 
L 430.753038 -252.816845 
L 430.146471 -251.892617 
L 429.526929 -250.96839 
L 428.897554 -250.044163 
L 428.261715 -249.119935 
L 427.622926 -248.195708 
L 426.984763 -247.271481 
L 426.350788 -246.347253 
L 425.72448 -245.423026 
L 425.109164 -244.498799 
L 424.507958 -243.574571 
L 423.923723 -242.650344 
L 423.359026 -241.726117 
L 422.816108 -240.801889 
L 422.296863 -239.877662 
L 421.802834 -238.953435 
L 421.335201 -238.029208 
L 420.894797 -237.10498 
L 420.482111 -236.180753 
L 420.097315 -235.256526 
L 419.740282 -234.332298 
L 419.410616 -233.408071 
L 419.107683 -232.483844 
L 418.83064 -231.559616 
z
" style="stroke: #3f3f3f; stroke-width: 1.25"/>
    </defs>
    <g clip-path="url(#p0be5ca5f31)">
     <use xlink:href="#mdef58cad19" x="0" y="424.048724" style="fill: #3274a1; stroke: #3f3f3f; stroke-width: 1.25"/>
    </g>
   </g>
   <g id="FillBetweenPolyCollection_3">
    <defs>
     <path id="mf3c86f9112" d="M 500.425884 -297.244322 
L 497.882241 -297.244322 
L 497.716015 -298.784701 
L 497.534255 -300.32508 
L 497.336456 -301.865459 
L 497.122236 -303.405838 
L 496.891358 -304.946216 
L 496.643747 -306.486595 
L 496.379504 -308.026974 
L 496.098925 -309.567353 
L 495.802507 -311.107732 
L 495.49096 -312.648111 
L 495.165209 -314.18849 
L 494.826391 -315.728869 
L 494.47585 -317.269247 
L 494.115127 -318.809626 
L 493.745937 -320.350005 
L 493.370152 -321.890384 
L 492.989767 -323.430763 
L 492.60687 -324.971142 
L 492.223596 -326.511521 
L 491.842093 -328.051899 
L 491.464468 -329.592278 
L 491.092742 -331.132657 
L 490.728802 -332.673036 
L 490.37435 -334.213415 
L 490.030855 -335.753794 
L 489.699515 -337.294173 
L 489.381213 -338.834552 
L 489.07649 -340.37493 
L 488.785519 -341.915309 
L 488.508089 -343.455688 
L 488.243602 -344.996067 
L 487.99108 -346.536446 
L 487.749179 -348.076825 
L 487.516221 -349.617204 
L 487.290232 -351.157583 
L 487.068994 -352.697961 
L 486.850105 -354.23834 
L 486.631048 -355.778719 
L 486.409267 -357.319098 
L 486.182249 -358.859477 
L 485.947606 -360.399856 
L 485.703164 -361.940235 
L 485.447042 -363.480614 
L 485.177732 -365.020992 
L 484.894174 -366.561371 
L 484.595814 -368.10175 
L 484.282661 -369.642129 
L 483.955326 -371.182508 
L 483.615042 -372.722887 
L 483.263678 -374.263266 
L 482.903726 -375.803644 
L 482.538281 -377.344023 
L 482.170997 -378.884402 
L 481.80603 -380.424781 
L 481.447966 -381.96516 
L 481.101734 -383.505539 
L 480.772514 -385.045918 
L 480.465626 -386.586297 
L 480.186422 -388.126675 
L 479.940171 -389.667054 
L 479.731946 -391.207433 
L 479.566506 -392.747812 
L 479.448199 -394.288191 
L 479.380857 -395.82857 
L 479.367713 -397.368949 
L 479.411326 -398.909328 
L 479.513525 -400.449706 
L 479.675368 -401.990085 
L 479.897113 -403.530464 
L 480.178217 -405.070843 
L 480.517345 -406.611222 
L 480.912397 -408.151601 
L 481.360553 -409.69198 
L 481.858335 -411.232358 
L 482.401671 -412.772737 
L 482.985985 -414.313116 
L 483.606279 -415.853495 
L 484.257236 -417.393874 
L 484.933311 -418.934253 
L 485.628837 -420.474632 
L 486.338119 -422.015011 
L 487.055526 -423.555389 
L 487.775581 -425.095768 
L 488.493041 -426.636147 
L 489.202964 -428.176526 
L 489.900771 -429.716905 
L 490.582297 -431.257284 
L 491.243825 -432.797663 
L 491.882113 -434.338042 
L 492.494411 -435.87842 
L 493.078465 -437.418799 
L 493.63251 -438.959178 
L 494.155257 -440.499557 
L 494.645869 -442.039936 
L 495.103935 -443.580315 
L 495.529435 -445.120694 
L 495.922701 -446.661072 
L 496.284377 -448.201451 
L 496.615378 -449.74183 
L 501.692747 -449.74183 
L 501.692747 -449.74183 
L 502.023748 -448.201451 
L 502.385424 -446.661072 
L 502.77869 -445.120694 
L 503.20419 -443.580315 
L 503.662256 -442.039936 
L 504.152868 -440.499557 
L 504.675615 -438.959178 
L 505.22966 -437.418799 
L 505.813714 -435.87842 
L 506.426012 -434.338042 
L 507.0643 -432.797663 
L 507.725828 -431.257284 
L 508.407354 -429.716905 
L 509.105161 -428.176526 
L 509.815084 -426.636147 
L 510.532544 -425.095768 
L 511.252599 -423.555389 
L 511.970006 -422.015011 
L 512.679288 -420.474632 
L 513.374814 -418.934253 
L 514.050889 -417.393874 
L 514.701846 -415.853495 
L 515.32214 -414.313116 
L 515.906454 -412.772737 
L 516.44979 -411.232358 
L 516.947572 -409.69198 
L 517.395728 -408.151601 
L 517.79078 -406.611222 
L 518.129908 -405.070843 
L 518.411012 -403.530464 
L 518.632757 -401.990085 
L 518.7946 -400.449706 
L 518.896799 -398.909328 
L 518.940413 -397.368949 
L 518.927268 -395.82857 
L 518.859926 -394.288191 
L 518.741619 -392.747812 
L 518.576179 -391.207433 
L 518.367954 -389.667054 
L 518.121703 -388.126675 
L 517.842499 -386.586297 
L 517.535611 -385.045918 
L 517.206391 -383.505539 
L 516.860159 -381.96516 
L 516.502095 -380.424781 
L 516.137128 -378.884402 
L 515.769844 -377.344023 
L 515.404399 -375.803644 
L 515.044447 -374.263266 
L 514.693083 -372.722887 
L 514.352799 -371.182508 
L 514.025464 -369.642129 
L 513.712311 -368.10175 
L 513.413951 -366.561371 
L 513.130393 -365.020992 
L 512.861083 -363.480614 
L 512.604961 -361.940235 
L 512.360519 -360.399856 
L 512.125876 -358.859477 
L 511.898858 -357.319098 
L 511.677077 -355.778719 
L 511.45802 -354.23834 
L 511.239131 -352.697961 
L 511.017893 -351.157583 
L 510.791904 -349.617204 
L 510.558946 -348.076825 
L 510.317045 -346.536446 
L 510.064523 -344.996067 
L 509.800036 -343.455688 
L 509.522606 -341.915309 
L 509.231635 -340.37493 
L 508.926912 -338.834552 
L 508.60861 -337.294173 
L 508.27727 -335.753794 
L 507.933775 -334.213415 
L 507.579323 -332.673036 
L 507.215383 -331.132657 
L 506.843657 -329.592278 
L 506.466032 -328.051899 
L 506.084529 -326.511521 
L 505.701255 -324.971142 
L 505.318358 -323.430763 
L 504.937973 -321.890384 
L 504.562188 -320.350005 
L 504.192998 -318.809626 
L 503.832275 -317.269247 
L 503.481734 -315.728869 
L 503.142916 -314.18849 
L 502.817165 -312.648111 
L 502.505618 -311.107732 
L 502.2092 -309.567353 
L 501.928621 -308.026974 
L 501.664378 -306.486595 
L 501.416767 -304.946216 
L 501.185889 -303.405838 
L 500.971669 -301.865459 
L 500.77387 -300.32508 
L 500.59211 -298.784701 
L 500.425884 -297.244322 
z
" style="stroke: #3f3f3f; stroke-width: 1.25"/>
    </defs>
    <g clip-path="url(#p0be5ca5f31)">
     <use xlink:href="#mf3c86f9112" x="0" y="424.048724" style="fill: #3274a1; stroke: #3f3f3f; stroke-width: 1.25"/>
    </g>
   </g>
   <g id="FillBetweenPolyCollection_4">
    <defs>
     <path id="m1a9e9d7653" d="M 582.303755 -214.871051 
L 580.89062 -214.871051 
L 580.798272 -217.643732 
L 580.697295 -220.416414 
L 580.587406 -223.189096 
L 580.468395 -225.961778 
L 580.34013 -228.73446 
L 580.202568 -231.507142 
L 580.055766 -234.279824 
L 579.899889 -237.052506 
L 579.735212 -239.825188 
L 579.562131 -242.59787 
L 579.381158 -245.370552 
L 579.192926 -248.143234 
L 578.998181 -250.915916 
L 578.797779 -253.688598 
L 578.592673 -256.46128 
L 578.383904 -259.233962 
L 578.172579 -262.006644 
L 577.959858 -264.779326 
L 577.746928 -267.552008 
L 577.534982 -270.32469 
L 577.32519 -273.097372 
L 577.118676 -275.870054 
L 576.916487 -278.642736 
L 576.719569 -281.415418 
L 576.528739 -284.1881 
L 576.344661 -286.960782 
L 576.167827 -289.733464 
L 575.998536 -292.506146 
L 575.836886 -295.278828 
L 575.682758 -298.051509 
L 575.535821 -300.824191 
L 575.395531 -303.596873 
L 575.261141 -306.369555 
L 575.13172 -309.142237 
L 575.006171 -311.914919 
L 574.883261 -314.687601 
L 574.761656 -317.460283 
L 574.639957 -320.232965 
L 574.516746 -323.005647 
L 574.390624 -325.778329 
L 574.260267 -328.551011 
L 574.124466 -331.323693 
L 573.982176 -334.096375 
L 573.83256 -336.869057 
L 573.675027 -339.641739 
L 573.509271 -342.414421 
L 573.335298 -345.187103 
L 573.153445 -347.959785 
L 572.964398 -350.732467 
L 572.769196 -353.505149 
L 572.569223 -356.277831 
L 572.366198 -359.050513 
L 572.162151 -361.823195 
L 571.959392 -364.595877 
L 571.760467 -367.368559 
L 571.568116 -370.141241 
L 571.385216 -372.913923 
L 571.214723 -375.686605 
L 571.059609 -378.459287 
L 570.922804 -381.231968 
L 570.807123 -384.00465 
L 570.715212 -386.777332 
L 570.649486 -389.550014 
L 570.612073 -392.322696 
L 570.604771 -395.095378 
L 570.629 -397.86806 
L 570.685778 -400.640742 
L 570.775691 -403.413424 
L 570.898882 -406.186106 
L 571.055051 -408.958788 
L 571.243456 -411.73147 
L 571.462929 -414.504152 
L 571.711905 -417.276834 
L 571.98845 -420.049516 
L 572.290303 -422.822198 
L 572.614922 -425.59488 
L 572.95953 -428.367562 
L 573.321173 -431.140244 
L 573.69677 -433.912926 
L 574.083174 -436.685608 
L 574.477219 -439.45829 
L 574.875778 -442.230972 
L 575.275809 -445.003654 
L 575.674398 -447.776336 
L 576.068799 -450.549018 
L 576.45647 -453.3217 
L 576.835096 -456.094382 
L 577.202611 -458.867064 
L 577.557216 -461.639745 
L 577.897381 -464.412427 
L 578.221856 -467.185109 
L 578.529659 -469.957791 
L 578.820073 -472.730473 
L 579.092635 -475.503155 
L 579.347117 -478.275837 
L 579.583505 -481.048519 
L 579.801987 -483.821201 
L 580.002918 -486.593883 
L 580.186807 -489.366565 
L 583.007568 -489.366565 
L 583.007568 -489.366565 
L 583.191457 -486.593883 
L 583.392388 -483.821201 
L 583.61087 -481.048519 
L 583.847258 -478.275837 
L 584.10174 -475.503155 
L 584.374302 -472.730473 
L 584.664716 -469.957791 
L 584.972519 -467.185109 
L 585.296994 -464.412427 
L 585.637159 -461.639745 
L 585.991764 -458.867064 
L 586.359279 -456.094382 
L 586.737905 -453.3217 
L 587.125576 -450.549018 
L 587.519977 -447.776336 
L 587.918566 -445.003654 
L 588.318597 -442.230972 
L 588.717156 -439.45829 
L 589.111201 -436.685608 
L 589.497605 -433.912926 
L 589.873202 -431.140244 
L 590.234845 -428.367562 
L 590.579453 -425.59488 
L 590.904072 -422.822198 
L 591.205925 -420.049516 
L 591.48247 -417.276834 
L 591.731446 -414.504152 
L 591.950919 -411.73147 
L 592.139324 -408.958788 
L 592.295493 -406.186106 
L 592.418684 -403.413424 
L 592.508597 -400.640742 
L 592.565375 -397.86806 
L 592.589604 -395.095378 
L 592.582302 -392.322696 
L 592.544889 -389.550014 
L 592.479163 -386.777332 
L 592.387252 -384.00465 
L 592.271571 -381.231968 
L 592.134766 -378.459287 
L 591.979652 -375.686605 
L 591.809159 -372.913923 
L 591.626259 -370.141241 
L 591.433908 -367.368559 
L 591.234983 -364.595877 
L 591.032224 -361.823195 
L 590.828177 -359.050513 
L 590.625152 -356.277831 
L 590.425179 -353.505149 
L 590.229977 -350.732467 
L 590.04093 -347.959785 
L 589.859077 -345.187103 
L 589.685104 -342.414421 
L 589.519348 -339.641739 
L 589.361815 -336.869057 
L 589.212199 -334.096375 
L 589.069909 -331.323693 
L 588.934108 -328.551011 
L 588.803751 -325.778329 
L 588.677629 -323.005647 
L 588.554418 -320.232965 
L 588.432719 -317.460283 
L 588.311114 -314.687601 
L 588.188204 -311.914919 
L 588.062655 -309.142237 
L 587.933234 -306.369555 
L 587.798844 -303.596873 
L 587.658554 -300.824191 
L 587.511617 -298.051509 
L 587.357489 -295.278828 
L 587.195839 -292.506146 
L 587.026548 -289.733464 
L 586.849714 -286.960782 
L 586.665636 -284.1881 
L 586.474806 -281.415418 
L 586.277888 -278.642736 
L 586.075699 -275.870054 
L 585.869185 -273.097372 
L 585.659393 -270.32469 
L 585.447447 -267.552008 
L 585.234517 -264.779326 
L 585.021796 -262.006644 
L 584.810471 -259.233962 
L 584.601702 -256.46128 
L 584.396596 -253.688598 
L 584.196194 -250.915916 
L 584.001449 -248.143234 
L 583.813217 -245.370552 
L 583.632244 -242.59787 
L 583.459163 -239.825188 
L 583.294486 -237.052506 
L 583.138609 -234.279824 
L 582.991807 -231.507142 
L 582.854245 -228.73446 
L 582.72598 -225.961778 
L 582.606969 -223.189096 
L 582.49708 -220.416414 
L 582.396103 -217.643732 
L 582.303755 -214.871051 
z
" style="stroke: #3f3f3f; stroke-width: 1.25"/>
    </defs>
    <g clip-path="url(#p0be5ca5f31)">
     <use xlink:href="#m1a9e9d7653" x="0" y="424.048724" style="fill: #3274a1; stroke: #3f3f3f; stroke-width: 1.25"/>
    </g>
   </g>
   <g id="FillBetweenPolyCollection_5">
    <defs>
     <path id="mca29b3dec2" d="M 665.487767 -280.988213 
L 662.592858 -280.988213 
L 662.419688 -282.856998 
L 662.231477 -284.725783 
L 662.027705 -286.594569 
L 661.807941 -288.463354 
L 661.571853 -290.332139 
L 661.319223 -292.200924 
L 661.049961 -294.069709 
L 660.764114 -295.938494 
L 660.461874 -297.807279 
L 660.143594 -299.676064 
L 659.809784 -301.544849 
L 659.461124 -303.413634 
L 659.098459 -305.28242 
L 658.7228 -307.151205 
L 658.335318 -309.01999 
L 657.937339 -310.888775 
L 657.530331 -312.75756 
L 657.115891 -314.626345 
L 656.695728 -316.49513 
L 656.271644 -318.363915 
L 655.845515 -320.2327 
L 655.419263 -322.101486 
L 654.994837 -323.970271 
L 654.574182 -325.839056 
L 654.159217 -327.707841 
L 653.751808 -329.576626 
L 653.353744 -331.445411 
L 652.966714 -333.314196 
L 652.592285 -335.182981 
L 652.231886 -337.051766 
L 651.886792 -338.920552 
L 651.558113 -340.789337 
L 651.246786 -342.658122 
L 650.953573 -344.526907 
L 650.679063 -346.395692 
L 650.423675 -348.264477 
L 650.187668 -350.133262 
L 649.971155 -352.002047 
L 649.77412 -353.870832 
L 649.596433 -355.739618 
L 649.437876 -357.608403 
L 649.298163 -359.477188 
L 649.176965 -361.345973 
L 649.07393 -363.214758 
L 648.988711 -365.083543 
L 648.92098 -366.952328 
L 648.870454 -368.821113 
L 648.836903 -370.689898 
L 648.820168 -372.558684 
L 648.820168 -374.427469 
L 648.836903 -376.296254 
L 648.870454 -378.165039 
L 648.92098 -380.033824 
L 648.988711 -381.902609 
L 649.07393 -383.771394 
L 649.176965 -385.640179 
L 649.298163 -387.508964 
L 649.437876 -389.37775 
L 649.596433 -391.246535 
L 649.77412 -393.11532 
L 649.971155 -394.984105 
L 650.187668 -396.85289 
L 650.423675 -398.721675 
L 650.679063 -400.59046 
L 650.953573 -402.459245 
L 651.246786 -404.32803 
L 651.558113 -406.196816 
L 651.886792 -408.065601 
L 652.231886 -409.934386 
L 652.592285 -411.803171 
L 652.966714 -413.671956 
L 653.353744 -415.540741 
L 653.751808 -417.409526 
L 654.159217 -419.278311 
L 654.574182 -421.147096 
L 654.994837 -423.015882 
L 655.419263 -424.884667 
L 655.845515 -426.753452 
L 656.271644 -428.622237 
L 656.695728 -430.491022 
L 657.115891 -432.359807 
L 657.530331 -434.228592 
L 657.937339 -436.097377 
L 658.335318 -437.966162 
L 658.7228 -439.834948 
L 659.098459 -441.703733 
L 659.461124 -443.572518 
L 659.809784 -445.441303 
L 660.143594 -447.310088 
L 660.461874 -449.178873 
L 660.764114 -451.047658 
L 661.049961 -452.916443 
L 661.319223 -454.785228 
L 661.571853 -456.654014 
L 661.807941 -458.522799 
L 662.027705 -460.391584 
L 662.231477 -462.260369 
L 662.419688 -464.129154 
L 662.592858 -465.997939 
L 665.487767 -465.997939 
L 665.487767 -465.997939 
L 665.660937 -464.129154 
L 665.849148 -462.260369 
L 666.05292 -460.391584 
L 666.272684 -458.522799 
L 666.508772 -456.654014 
L 666.761402 -454.785228 
L 667.030664 -452.916443 
L 667.316511 -451.047658 
L 667.618751 -449.178873 
L 667.937031 -447.310088 
L 668.270841 -445.441303 
L 668.619501 -443.572518 
L 668.982166 -441.703733 
L 669.357825 -439.834948 
L 669.745307 -437.966162 
L 670.143286 -436.097377 
L 670.550294 -434.228592 
L 670.964734 -432.359807 
L 671.384897 -430.491022 
L 671.808981 -428.622237 
L 672.23511 -426.753452 
L 672.661362 -424.884667 
L 673.085788 -423.015882 
L 673.506443 -421.147096 
L 673.921408 -419.278311 
L 674.328817 -417.409526 
L 674.726881 -415.540741 
L 675.113911 -413.671956 
L 675.48834 -411.803171 
L 675.848739 -409.934386 
L 676.193833 -408.065601 
L 676.522512 -406.196816 
L 676.833839 -404.32803 
L 677.127052 -402.459245 
L 677.401562 -400.59046 
L 677.65695 -398.721675 
L 677.892957 -396.85289 
L 678.10947 -394.984105 
L 678.306505 -393.11532 
L 678.484192 -391.246535 
L 678.642749 -389.37775 
L 678.782462 -387.508964 
L 678.90366 -385.640179 
L 679.006695 -383.771394 
L 679.091914 -381.902609 
L 679.159645 -380.033824 
L 679.210171 -378.165039 
L 679.243722 -376.296254 
L 679.260457 -374.427469 
L 679.260457 -372.558684 
L 679.243722 -370.689898 
L 679.210171 -368.821113 
L 679.159645 -366.952328 
L 679.091914 -365.083543 
L 679.006695 -363.214758 
L 678.90366 -361.345973 
L 678.782462 -359.477188 
L 678.642749 -357.608403 
L 678.484192 -355.739618 
L 678.306505 -353.870832 
L 678.10947 -352.002047 
L 677.892957 -350.133262 
L 677.65695 -348.264477 
L 677.401562 -346.395692 
L 677.127052 -344.526907 
L 676.833839 -342.658122 
L 676.522512 -340.789337 
L 676.193833 -338.920552 
L 675.848739 -337.051766 
L 675.48834 -335.182981 
L 675.113911 -333.314196 
L 674.726881 -331.445411 
L 674.328817 -329.576626 
L 673.921408 -327.707841 
L 673.506443 -325.839056 
L 673.085788 -323.970271 
L 672.661362 -322.101486 
L 672.23511 -320.2327 
L 671.808981 -318.363915 
L 671.384897 -316.49513 
L 670.964734 -314.626345 
L 670.550294 -312.75756 
L 670.143286 -310.888775 
L 669.745307 -309.01999 
L 669.357825 -307.151205 
L 668.982166 -305.28242 
L 668.619501 -303.413634 
L 668.270841 -301.544849 
L 667.937031 -299.676064 
L 667.618751 -297.807279 
L 667.316511 -295.938494 
L 667.030664 -294.069709 
L 666.761402 -292.200924 
L 666.508772 -290.332139 
L 666.272684 -288.463354 
L 666.05292 -286.594569 
L 665.849148 -284.725783 
L 665.660937 -282.856998 
L 665.487767 -280.988213 
z
" style="stroke: #3f3f3f; stroke-width: 1.25"/>
    </defs>
    <g clip-path="url(#p0be5ca5f31)">
     <use xlink:href="#mca29b3dec2" x="0" y="424.048724" style="fill: #3274a1; stroke: #3f3f3f; stroke-width: 1.25"/>
    </g>
   </g>
   <g id="matplotlib.axis_1">
    <g id="xtick_1">
     <g id="line2d_1">
      <defs>
       <path id="m36675b5ffd" d="M 0 0 
L 0 3.5 
" style="stroke: #000000; stroke-width: 0.8"/>
      </defs>
      <g>
       <use xlink:href="#m36675b5ffd" x="86.938438" y="291.016167" style="stroke: #000000; stroke-width: 0.8"/>
      </g>
     </g>
     <g id="text_1">
      <!-- primary_growth -->
      <g transform="translate(29.46281 359.197476) rotate(-45) scale(0.1 -0.1)">
       <defs>
        <path id="DejaVuSans-70" d="M 1159 525 
L 1159 -1331 
L 581 -1331 
L 581 3500 
L 1159 3500 
L 1159 2969 
Q 1341 3281 1617 3432 
Q 1894 3584 2278 3584 
Q 2916 3584 3314 3078 
Q 3713 2572 3713 1747 
Q 3713 922 3314 415 
Q 2916 -91 2278 -91 
Q 1894 -91 1617 61 
Q 1341 213 1159 525 
z
M 3116 1747 
Q 3116 2381 2855 2742 
Q 2594 3103 2138 3103 
Q 1681 3103 1420 2742 
Q 1159 2381 1159 1747 
Q 1159 1113 1420 752 
Q 1681 391 2138 391 
Q 2594 391 2855 752 
Q 3116 1113 3116 1747 
z
" transform="scale(0.015625)"/>
        <path id="DejaVuSans-72" d="M 2631 2963 
Q 2534 3019 2420 3045 
Q 2306 3072 2169 3072 
Q 1681 3072 1420 2755 
Q 1159 2438 1159 1844 
L 1159 0 
L 581 0 
L 581 3500 
L 1159 3500 
L 1159 2956 
Q 1341 3275 1631 3429 
Q 1922 3584 2338 3584 
Q 2397 3584 2469 3576 
Q 2541 3569 2628 3553 
L 2631 2963 
z
" transform="scale(0.015625)"/>
        <path id="DejaVuSans-69" d="M 603 3500 
L 1178 3500 
L 1178 0 
L 603 0 
L 603 3500 
z
M 603 4863 
L 1178 4863 
L 1178 4134 
L 603 4134 
L 603 4863 
z
" transform="scale(0.015625)"/>
        <path id="DejaVuSans-6d" d="M 3328 2828 
Q 3544 3216 3844 3400 
Q 4144 3584 4550 3584 
Q 5097 3584 5394 3201 
Q 5691 2819 5691 2113 
L 5691 0 
L 5113 0 
L 5113 2094 
Q 5113 2597 4934 2840 
Q 4756 3084 4391 3084 
Q 3944 3084 3684 2787 
Q 3425 2491 3425 1978 
L 3425 0 
L 2847 0 
L 2847 2094 
Q 2847 2600 2669 2842 
Q 2491 3084 2119 3084 
Q 1678 3084 1418 2786 
Q 1159 2488 1159 1978 
L 1159 0 
L 581 0 
L 581 3500 
L 1159 3500 
L 1159 2956 
Q 1356 3278 1631 3431 
Q 1906 3584 2284 3584 
Q 2666 3584 2933 3390 
Q 3200 3197 3328 2828 
z
" transform="scale(0.015625)"/>
        <path id="DejaVuSans-61" d="M 2194 1759 
Q 1497 1759 1228 1600 
Q 959 1441 959 1056 
Q 959 750 1161 570 
Q 1363 391 1709 391 
Q 2188 391 2477 730 
Q 2766 1069 2766 1631 
L 2766 1759 
L 2194 1759 
z
M 3341 1997 
L 3341 0 
L 2766 0 
L 2766 531 
Q 2569 213 2275 61 
Q 1981 -91 1556 -91 
Q 1019 -91 701 211 
Q 384 513 384 1019 
Q 384 1609 779 1909 
Q 1175 2209 1959 2209 
L 2766 2209 
L 2766 2266 
Q 2766 2663 2505 2880 
Q 2244 3097 1772 3097 
Q 1472 3097 1187 3025 
Q 903 2953 641 2809 
L 641 3341 
Q 956 3463 1253 3523 
Q 1550 3584 1831 3584 
Q 2591 3584 2966 3190 
Q 3341 2797 3341 1997 
z
" transform="scale(0.015625)"/>
        <path id="DejaVuSans-79" d="M 2059 -325 
Q 1816 -950 1584 -1140 
Q 1353 -1331 966 -1331 
L 506 -1331 
L 506 -850 
L 844 -850 
Q 1081 -850 1212 -737 
Q 1344 -625 1503 -206 
L 1606 56 
L 191 3500 
L 800 3500 
L 1894 763 
L 2988 3500 
L 3597 3500 
L 2059 -325 
z
" transform="scale(0.015625)"/>
        <path id="DejaVuSans-5f" d="M 3263 -1063 
L 3263 -1509 
L -63 -1509 
L -63 -1063 
L 3263 -1063 
z
" transform="scale(0.015625)"/>
        <path id="DejaVuSans-67" d="M 2906 1791 
Q 2906 2416 2648 2759 
Q 2391 3103 1925 3103 
Q 1463 3103 1205 2759 
Q 947 2416 947 1791 
Q 947 1169 1205 825 
Q 1463 481 1925 481 
Q 2391 481 2648 825 
Q 2906 1169 2906 1791 
z
M 3481 434 
Q 3481 -459 3084 -895 
Q 2688 -1331 1869 -1331 
Q 1566 -1331 1297 -1286 
Q 1028 -1241 775 -1147 
L 775 -588 
Q 1028 -725 1275 -790 
Q 1522 -856 1778 -856 
Q 2344 -856 2625 -561 
Q 2906 -266 2906 331 
L 2906 616 
Q 2728 306 2450 153 
Q 2172 0 1784 0 
Q 1141 0 747 490 
Q 353 981 353 1791 
Q 353 2603 747 3093 
Q 1141 3584 1784 3584 
Q 2172 3584 2450 3431 
Q 2728 3278 2906 2969 
L 2906 3500 
L 3481 3500 
L 3481 434 
z
" transform="scale(0.015625)"/>
        <path id="DejaVuSans-6f" d="M 1959 3097 
Q 1497 3097 1228 2736 
Q 959 2375 959 1747 
Q 959 1119 1226 758 
Q 1494 397 1959 397 
Q 2419 397 2687 759 
Q 2956 1122 2956 1747 
Q 2956 2369 2687 2733 
Q 2419 3097 1959 3097 
z
M 1959 3584 
Q 2709 3584 3137 3096 
Q 3566 2609 3566 1747 
Q 3566 888 3137 398 
Q 2709 -91 1959 -91 
Q 1206 -91 779 398 
Q 353 888 353 1747 
Q 353 2609 779 3096 
Q 1206 3584 1959 3584 
z
" transform="scale(0.015625)"/>
        <path id="DejaVuSans-77" d="M 269 3500 
L 844 3500 
L 1563 769 
L 2278 3500 
L 2956 3500 
L 3675 769 
L 4391 3500 
L 4966 3500 
L 4050 0 
L 3372 0 
L 2619 2869 
L 1863 0 
L 1184 0 
L 269 3500 
z
" transform="scale(0.015625)"/>
        <path id="DejaVuSans-74" d="M 1172 4494 
L 1172 3500 
L 2356 3500 
L 2356 3053 
L 1172 3053 
L 1172 1153 
Q 1172 725 1289 603 
Q 1406 481 1766 481 
L 2356 481 
L 2356 0 
L 1766 0 
Q 1100 0 847 248 
Q 594 497 594 1153 
L 594 3053 
L 172 3053 
L 172 3500 
L 594 3500 
L 594 4494 
L 1172 4494 
z
" transform="scale(0.015625)"/>
        <path id="DejaVuSans-68" d="M 3513 2113 
L 3513 0 
L 2938 0 
L 2938 2094 
Q 2938 2591 2744 2837 
Q 2550 3084 2163 3084 
Q 1697 3084 1428 2787 
Q 1159 2491 1159 1978 
L 1159 0 
L 581 0 
L 581 4863 
L 1159 4863 
L 1159 2956 
Q 1366 3272 1645 3428 
Q 1925 3584 2291 3584 
Q 2894 3584 3203 3211 
Q 3513 2838 3513 2113 
z
" transform="scale(0.015625)"/>
       </defs>
       <use xlink:href="#DejaVuSans-70"/>
       <use xlink:href="#DejaVuSans-72" transform="translate(63.476562 0)"/>
       <use xlink:href="#DejaVuSans-69" transform="translate(104.589844 0)"/>
       <use xlink:href="#DejaVuSans-6d" transform="translate(132.373047 0)"/>
       <use xlink:href="#DejaVuSans-61" transform="translate(229.785156 0)"/>
       <use xlink:href="#DejaVuSans-72" transform="translate(291.064453 0)"/>
       <use xlink:href="#DejaVuSans-79" transform="translate(332.177734 0)"/>
       <use xlink:href="#DejaVuSans-5f" transform="translate(391.357422 0)"/>
       <use xlink:href="#DejaVuSans-67" transform="translate(441.357422 0)"/>
       <use xlink:href="#DejaVuSans-72" transform="translate(504.833984 0)"/>
       <use xlink:href="#DejaVuSans-6f" transform="translate(543.697266 0)"/>
       <use xlink:href="#DejaVuSans-77" transform="translate(604.878906 0)"/>
       <use xlink:href="#DejaVuSans-74" transform="translate(686.666016 0)"/>
       <use xlink:href="#DejaVuSans-68" transform="translate(725.875 0)"/>
      </g>
     </g>
    </g>
    <g id="xtick_2">
     <g id="line2d_2">
      <g>
       <use xlink:href="#m36675b5ffd" x="169.381563" y="291.016167" style="stroke: #000000; stroke-width: 0.8"/>
      </g>
     </g>
     <g id="text_2">
      <!-- local_invasion -->
      <g transform="translate(118.282049 352.821361) rotate(-45) scale(0.1 -0.1)">
       <defs>
        <path id="DejaVuSans-6c" d="M 603 4863 
L 1178 4863 
L 1178 0 
L 603 0 
L 603 4863 
z
" transform="scale(0.015625)"/>
        <path id="DejaVuSans-63" d="M 3122 3366 
L 3122 2828 
Q 2878 2963 2633 3030 
Q 2388 3097 2138 3097 
Q 1578 3097 1268 2742 
Q 959 2388 959 1747 
Q 959 1106 1268 751 
Q 1578 397 2138 397 
Q 2388 397 2633 464 
Q 2878 531 3122 666 
L 3122 134 
Q 2881 22 2623 -34 
Q 2366 -91 2075 -91 
Q 1284 -91 818 406 
Q 353 903 353 1747 
Q 353 2603 823 3093 
Q 1294 3584 2113 3584 
Q 2378 3584 2631 3529 
Q 2884 3475 3122 3366 
z
" transform="scale(0.015625)"/>
        <path id="DejaVuSans-6e" d="M 3513 2113 
L 3513 0 
L 2938 0 
L 2938 2094 
Q 2938 2591 2744 2837 
Q 2550 3084 2163 3084 
Q 1697 3084 1428 2787 
Q 1159 2491 1159 1978 
L 1159 0 
L 581 0 
L 581 3500 
L 1159 3500 
L 1159 2956 
Q 1366 3272 1645 3428 
Q 1925 3584 2291 3584 
Q 2894 3584 3203 3211 
Q 3513 2838 3513 2113 
z
" transform="scale(0.015625)"/>
        <path id="DejaVuSans-76" d="M 191 3500 
L 800 3500 
L 1894 563 
L 2988 3500 
L 3597 3500 
L 2284 0 
L 1503 0 
L 191 3500 
z
" transform="scale(0.015625)"/>
        <path id="DejaVuSans-73" d="M 2834 3397 
L 2834 2853 
Q 2591 2978 2328 3040 
Q 2066 3103 1784 3103 
Q 1356 3103 1142 2972 
Q 928 2841 928 2578 
Q 928 2378 1081 2264 
Q 1234 2150 1697 2047 
L 1894 2003 
Q 2506 1872 2764 1633 
Q 3022 1394 3022 966 
Q 3022 478 2636 193 
Q 2250 -91 1575 -91 
Q 1294 -91 989 -36 
Q 684 19 347 128 
L 347 722 
Q 666 556 975 473 
Q 1284 391 1588 391 
Q 1994 391 2212 530 
Q 2431 669 2431 922 
Q 2431 1156 2273 1281 
Q 2116 1406 1581 1522 
L 1381 1569 
Q 847 1681 609 1914 
Q 372 2147 372 2553 
Q 372 3047 722 3315 
Q 1072 3584 1716 3584 
Q 2034 3584 2315 3537 
Q 2597 3491 2834 3397 
z
" transform="scale(0.015625)"/>
       </defs>
       <use xlink:href="#DejaVuSans-6c"/>
       <use xlink:href="#DejaVuSans-6f" transform="translate(27.783203 0)"/>
       <use xlink:href="#DejaVuSans-63" transform="translate(88.964844 0)"/>
       <use xlink:href="#DejaVuSans-61" transform="translate(143.945312 0)"/>
       <use xlink:href="#DejaVuSans-6c" transform="translate(205.224609 0)"/>
       <use xlink:href="#DejaVuSans-5f" transform="translate(233.007812 0)"/>
       <use xlink:href="#DejaVuSans-69" transform="translate(283.007812 0)"/>
       <use xlink:href="#DejaVuSans-6e" transform="translate(310.791016 0)"/>
       <use xlink:href="#DejaVuSans-76" transform="translate(374.169922 0)"/>
       <use xlink:href="#DejaVuSans-61" transform="translate(433.349609 0)"/>
       <use xlink:href="#DejaVuSans-73" transform="translate(494.628906 0)"/>
       <use xlink:href="#DejaVuSans-69" transform="translate(546.728516 0)"/>
       <use xlink:href="#DejaVuSans-6f" transform="translate(574.511719 0)"/>
       <use xlink:href="#DejaVuSans-6e" transform="translate(635.693359 0)"/>
      </g>
     </g>
    </g>
    <g id="xtick_3">
     <g id="line2d_3">
      <g>
       <use xlink:href="#m36675b5ffd" x="251.824688" y="291.016167" style="stroke: #000000; stroke-width: 0.8"/>
      </g>
     </g>
     <g id="text_3">
      <!-- intravasation -->
      <g transform="translate(203.816556 349.926643) rotate(-45) scale(0.1 -0.1)">
       <use xlink:href="#DejaVuSans-69"/>
       <use xlink:href="#DejaVuSans-6e" transform="translate(27.783203 0)"/>
       <use xlink:href="#DejaVuSans-74" transform="translate(91.162109 0)"/>
       <use xlink:href="#DejaVuSans-72" transform="translate(130.371094 0)"/>
       <use xlink:href="#DejaVuSans-61" transform="translate(171.484375 0)"/>
       <use xlink:href="#DejaVuSans-76" transform="translate(232.763672 0)"/>
       <use xlink:href="#DejaVuSans-61" transform="translate(291.943359 0)"/>
       <use xlink:href="#DejaVuSans-73" transform="translate(353.222656 0)"/>
       <use xlink:href="#DejaVuSans-61" transform="translate(405.322266 0)"/>
       <use xlink:href="#DejaVuSans-74" transform="translate(466.601562 0)"/>
       <use xlink:href="#DejaVuSans-69" transform="translate(505.810547 0)"/>
       <use xlink:href="#DejaVuSans-6f" transform="translate(533.59375 0)"/>
       <use xlink:href="#DejaVuSans-6e" transform="translate(594.775391 0)"/>
      </g>
     </g>
    </g>
    <g id="xtick_4">
     <g id="line2d_4">
      <g>
       <use xlink:href="#m36675b5ffd" x="334.267813" y="291.016167" style="stroke: #000000; stroke-width: 0.8"/>
      </g>
     </g>
     <g id="text_4">
      <!-- survival_in_circulation -->
      <g transform="translate(254.568039 381.421621) rotate(-45) scale(0.1 -0.1)">
       <defs>
        <path id="DejaVuSans-75" d="M 544 1381 
L 544 3500 
L 1119 3500 
L 1119 1403 
Q 1119 906 1312 657 
Q 1506 409 1894 409 
Q 2359 409 2629 706 
Q 2900 1003 2900 1516 
L 2900 3500 
L 3475 3500 
L 3475 0 
L 2900 0 
L 2900 538 
Q 2691 219 2414 64 
Q 2138 -91 1772 -91 
Q 1169 -91 856 284 
Q 544 659 544 1381 
z
M 1991 3584 
L 1991 3584 
z
" transform="scale(0.015625)"/>
       </defs>
       <use xlink:href="#DejaVuSans-73"/>
       <use xlink:href="#DejaVuSans-75" transform="translate(52.099609 0)"/>
       <use xlink:href="#DejaVuSans-72" transform="translate(115.478516 0)"/>
       <use xlink:href="#DejaVuSans-76" transform="translate(156.591797 0)"/>
       <use xlink:href="#DejaVuSans-69" transform="translate(215.771484 0)"/>
       <use xlink:href="#DejaVuSans-76" transform="translate(243.554688 0)"/>
       <use xlink:href="#DejaVuSans-61" transform="translate(302.734375 0)"/>
       <use xlink:href="#DejaVuSans-6c" transform="translate(364.013672 0)"/>
       <use xlink:href="#DejaVuSans-5f" transform="translate(391.796875 0)"/>
       <use xlink:href="#DejaVuSans-69" transform="translate(441.796875 0)"/>
       <use xlink:href="#DejaVuSans-6e" transform="translate(469.580078 0)"/>
       <use xlink:href="#DejaVuSans-5f" transform="translate(532.958984 0)"/>
       <use xlink:href="#DejaVuSans-63" transform="translate(582.958984 0)"/>
       <use xlink:href="#DejaVuSans-69" transform="translate(637.939453 0)"/>
       <use xlink:href="#DejaVuSans-72" transform="translate(665.722656 0)"/>
       <use xlink:href="#DejaVuSans-63" transform="translate(704.585938 0)"/>
       <use xlink:href="#DejaVuSans-75" transform="translate(759.566406 0)"/>
       <use xlink:href="#DejaVuSans-6c" transform="translate(822.945312 0)"/>
       <use xlink:href="#DejaVuSans-61" transform="translate(850.728516 0)"/>
       <use xlink:href="#DejaVuSans-74" transform="translate(912.007812 0)"/>
       <use xlink:href="#DejaVuSans-69" transform="translate(951.216797 0)"/>
       <use xlink:href="#DejaVuSans-6f" transform="translate(979 0)"/>
       <use xlink:href="#DejaVuSans-6e" transform="translate(1040.181641 0)"/>
      </g>
     </g>
    </g>
    <g id="xtick_5">
     <g id="line2d_5">
      <g>
       <use xlink:href="#m36675b5ffd" x="416.710938" y="291.016167" style="stroke: #000000; stroke-width: 0.8"/>
      </g>
     </g>
     <g id="text_5">
      <!-- extravasation -->
      <g transform="translate(366.736166 351.893284) rotate(-45) scale(0.1 -0.1)">
       <defs>
        <path id="DejaVuSans-65" d="M 3597 1894 
L 3597 1613 
L 953 1613 
Q 991 1019 1311 708 
Q 1631 397 2203 397 
Q 2534 397 2845 478 
Q 3156 559 3463 722 
L 3463 178 
Q 3153 47 2828 -22 
Q 2503 -91 2169 -91 
Q 1331 -91 842 396 
Q 353 884 353 1716 
Q 353 2575 817 3079 
Q 1281 3584 2069 3584 
Q 2775 3584 3186 3129 
Q 3597 2675 3597 1894 
z
M 3022 2063 
Q 3016 2534 2758 2815 
Q 2500 3097 2075 3097 
Q 1594 3097 1305 2825 
Q 1016 2553 972 2059 
L 3022 2063 
z
" transform="scale(0.015625)"/>
        <path id="DejaVuSans-78" d="M 3513 3500 
L 2247 1797 
L 3578 0 
L 2900 0 
L 1881 1375 
L 863 0 
L 184 0 
L 1544 1831 
L 300 3500 
L 978 3500 
L 1906 2253 
L 2834 3500 
L 3513 3500 
z
" transform="scale(0.015625)"/>
       </defs>
       <use xlink:href="#DejaVuSans-65"/>
       <use xlink:href="#DejaVuSans-78" transform="translate(59.773438 0)"/>
       <use xlink:href="#DejaVuSans-74" transform="translate(118.953125 0)"/>
       <use xlink:href="#DejaVuSans-72" transform="translate(158.162109 0)"/>
       <use xlink:href="#DejaVuSans-61" transform="translate(199.275391 0)"/>
       <use xlink:href="#DejaVuSans-76" transform="translate(260.554688 0)"/>
       <use xlink:href="#DejaVuSans-61" transform="translate(319.734375 0)"/>
       <use xlink:href="#DejaVuSans-73" transform="translate(381.013672 0)"/>
       <use xlink:href="#DejaVuSans-61" transform="translate(433.113281 0)"/>
       <use xlink:href="#DejaVuSans-74" transform="translate(494.392578 0)"/>
       <use xlink:href="#DejaVuSans-69" transform="translate(533.601562 0)"/>
       <use xlink:href="#DejaVuSans-6f" transform="translate(561.384766 0)"/>
       <use xlink:href="#DejaVuSans-6e" transform="translate(622.566406 0)"/>
      </g>
     </g>
    </g>
    <g id="xtick_6">
     <g id="line2d_6">
      <g>
       <use xlink:href="#m36675b5ffd" x="499.154063" y="291.016167" style="stroke: #000000; stroke-width: 0.8"/>
      </g>
     </g>
     <g id="text_6">
      <!-- micrometastasis_formation -->
      <g transform="translate(401.308162 399.567749) rotate(-45) scale(0.1 -0.1)">
       <defs>
        <path id="DejaVuSans-66" d="M 2375 4863 
L 2375 4384 
L 1825 4384 
Q 1516 4384 1395 4259 
Q 1275 4134 1275 3809 
L 1275 3500 
L 2222 3500 
L 2222 3053 
L 1275 3053 
L 1275 0 
L 697 0 
L 697 3053 
L 147 3053 
L 147 3500 
L 697 3500 
L 697 3744 
Q 697 4328 969 4595 
Q 1241 4863 1831 4863 
L 2375 4863 
z
" transform="scale(0.015625)"/>
       </defs>
       <use xlink:href="#DejaVuSans-6d"/>
       <use xlink:href="#DejaVuSans-69" transform="translate(97.412109 0)"/>
       <use xlink:href="#DejaVuSans-63" transform="translate(125.195312 0)"/>
       <use xlink:href="#DejaVuSans-72" transform="translate(180.175781 0)"/>
       <use xlink:href="#DejaVuSans-6f" transform="translate(219.039062 0)"/>
       <use xlink:href="#DejaVuSans-6d" transform="translate(280.220703 0)"/>
       <use xlink:href="#DejaVuSans-65" transform="translate(377.632812 0)"/>
       <use xlink:href="#DejaVuSans-74" transform="translate(439.15625 0)"/>
       <use xlink:href="#DejaVuSans-61" transform="translate(478.365234 0)"/>
       <use xlink:href="#DejaVuSans-73" transform="translate(539.644531 0)"/>
       <use xlink:href="#DejaVuSans-74" transform="translate(591.744141 0)"/>
       <use xlink:href="#DejaVuSans-61" transform="translate(630.953125 0)"/>
       <use xlink:href="#DejaVuSans-73" transform="translate(692.232422 0)"/>
       <use xlink:href="#DejaVuSans-69" transform="translate(744.332031 0)"/>
       <use xlink:href="#DejaVuSans-73" transform="translate(772.115234 0)"/>
       <use xlink:href="#DejaVuSans-5f" transform="translate(824.214844 0)"/>
       <use xlink:href="#DejaVuSans-66" transform="translate(874.214844 0)"/>
       <use xlink:href="#DejaVuSans-6f" transform="translate(909.419922 0)"/>
       <use xlink:href="#DejaVuSans-72" transform="translate(970.601562 0)"/>
       <use xlink:href="#DejaVuSans-6d" transform="translate(1009.964844 0)"/>
       <use xlink:href="#DejaVuSans-61" transform="translate(1107.376953 0)"/>
       <use xlink:href="#DejaVuSans-74" transform="translate(1168.65625 0)"/>
       <use xlink:href="#DejaVuSans-69" transform="translate(1207.865234 0)"/>
       <use xlink:href="#DejaVuSans-6f" transform="translate(1235.648438 0)"/>
       <use xlink:href="#DejaVuSans-6e" transform="translate(1296.830078 0)"/>
      </g>
     </g>
    </g>
    <g id="xtick_7">
     <g id="line2d_7">
      <g>
       <use xlink:href="#m36675b5ffd" x="581.597188" y="291.016167" style="stroke: #000000; stroke-width: 0.8"/>
      </g>
     </g>
     <g id="text_7">
      <!-- angiogenesis -->
      <g transform="translate(533.528289 349.98741) rotate(-45) scale(0.1 -0.1)">
       <use xlink:href="#DejaVuSans-61"/>
       <use xlink:href="#DejaVuSans-6e" transform="translate(61.279297 0)"/>
       <use xlink:href="#DejaVuSans-67" transform="translate(124.658203 0)"/>
       <use xlink:href="#DejaVuSans-69" transform="translate(188.134766 0)"/>
       <use xlink:href="#DejaVuSans-6f" transform="translate(215.917969 0)"/>
       <use xlink:href="#DejaVuSans-67" transform="translate(277.099609 0)"/>
       <use xlink:href="#DejaVuSans-65" transform="translate(340.576172 0)"/>
       <use xlink:href="#DejaVuSans-6e" transform="translate(402.099609 0)"/>
       <use xlink:href="#DejaVuSans-65" transform="translate(465.478516 0)"/>
       <use xlink:href="#DejaVuSans-73" transform="translate(527.001953 0)"/>
       <use xlink:href="#DejaVuSans-69" transform="translate(579.101562 0)"/>
       <use xlink:href="#DejaVuSans-73" transform="translate(606.884766 0)"/>
      </g>
     </g>
    </g>
    <g id="xtick_8">
     <g id="line2d_8">
      <g>
       <use xlink:href="#m36675b5ffd" x="664.040313" y="291.016167" style="stroke: #000000; stroke-width: 0.8"/>
      </g>
     </g>
     <g id="text_8">
      <!-- metastatic_colonization -->
      <g transform="translate(578.540054 387.222106) rotate(-45) scale(0.1 -0.1)">
       <defs>
        <path id="DejaVuSans-7a" d="M 353 3500 
L 3084 3500 
L 3084 2975 
L 922 459 
L 3084 459 
L 3084 0 
L 275 0 
L 275 525 
L 2438 3041 
L 353 3041 
L 353 3500 
z
" transform="scale(0.015625)"/>
       </defs>
       <use xlink:href="#DejaVuSans-6d"/>
       <use xlink:href="#DejaVuSans-65" transform="translate(97.412109 0)"/>
       <use xlink:href="#DejaVuSans-74" transform="translate(158.935547 0)"/>
       <use xlink:href="#DejaVuSans-61" transform="translate(198.144531 0)"/>
       <use xlink:href="#DejaVuSans-73" transform="translate(259.423828 0)"/>
       <use xlink:href="#DejaVuSans-74" transform="translate(311.523438 0)"/>
       <use xlink:href="#DejaVuSans-61" transform="translate(350.732422 0)"/>
       <use xlink:href="#DejaVuSans-74" transform="translate(412.011719 0)"/>
       <use xlink:href="#DejaVuSans-69" transform="translate(451.220703 0)"/>
       <use xlink:href="#DejaVuSans-63" transform="translate(479.003906 0)"/>
       <use xlink:href="#DejaVuSans-5f" transform="translate(533.984375 0)"/>
       <use xlink:href="#DejaVuSans-63" transform="translate(583.984375 0)"/>
       <use xlink:href="#DejaVuSans-6f" transform="translate(638.964844 0)"/>
       <use xlink:href="#DejaVuSans-6c" transform="translate(700.146484 0)"/>
       <use xlink:href="#DejaVuSans-6f" transform="translate(727.929688 0)"/>
       <use xlink:href="#DejaVuSans-6e" transform="translate(789.111328 0)"/>
       <use xlink:href="#DejaVuSans-69" transform="translate(852.490234 0)"/>
       <use xlink:href="#DejaVuSans-7a" transform="translate(880.273438 0)"/>
       <use xlink:href="#DejaVuSans-61" transform="translate(932.763672 0)"/>
       <use xlink:href="#DejaVuSans-74" transform="translate(994.042969 0)"/>
       <use xlink:href="#DejaVuSans-69" transform="translate(1033.251953 0)"/>
       <use xlink:href="#DejaVuSans-6f" transform="translate(1061.035156 0)"/>
       <use xlink:href="#DejaVuSans-6e" transform="translate(1122.216797 0)"/>
      </g>
     </g>
    </g>
    <g id="text_9">
     <!-- Mission Step -->
     <g transform="translate(337.684688 414.353099) scale(0.12 -0.12)">
      <defs>
       <path id="DejaVuSans-4d" d="M 628 4666 
L 1569 4666 
L 2759 1491 
L 3956 4666 
L 4897 4666 
L 4897 0 
L 4281 0 
L 4281 4097 
L 3078 897 
L 2444 897 
L 1241 4097 
L 1241 0 
L 628 0 
L 628 4666 
z
" transform="scale(0.015625)"/>
       <path id="DejaVuSans-20" transform="scale(0.015625)"/>
       <path id="DejaVuSans-53" d="M 3425 4513 
L 3425 3897 
Q 3066 4069 2747 4153 
Q 2428 4238 2131 4238 
Q 1616 4238 1336 4038 
Q 1056 3838 1056 3469 
Q 1056 3159 1242 3001 
Q 1428 2844 1947 2747 
L 2328 2669 
Q 3034 2534 3370 2195 
Q 3706 1856 3706 1288 
Q 3706 609 3251 259 
Q 2797 -91 1919 -91 
Q 1588 -91 1214 -16 
Q 841 59 441 206 
L 441 856 
Q 825 641 1194 531 
Q 1563 422 1919 422 
Q 2459 422 2753 634 
Q 3047 847 3047 1241 
Q 3047 1584 2836 1778 
Q 2625 1972 2144 2069 
L 1759 2144 
Q 1053 2284 737 2584 
Q 422 2884 422 3419 
Q 422 4038 858 4394 
Q 1294 4750 2059 4750 
Q 2388 4750 2728 4690 
Q 3069 4631 3425 4513 
z
" transform="scale(0.015625)"/>
      </defs>
      <use xlink:href="#DejaVuSans-4d"/>
      <use xlink:href="#DejaVuSans-69" transform="translate(86.279297 0)"/>
      <use xlink:href="#DejaVuSans-73" transform="translate(114.0625 0)"/>
      <use xlink:href="#DejaVuSans-73" transform="translate(166.162109 0)"/>
      <use xlink:href="#DejaVuSans-69" transform="translate(218.261719 0)"/>
      <use xlink:href="#DejaVuSans-6f" transform="translate(246.044922 0)"/>
      <use xlink:href="#DejaVuSans-6e" transform="translate(307.226562 0)"/>
      <use xlink:href="#DejaVuSans-20" transform="translate(370.605469 0)"/>
      <use xlink:href="#DejaVuSans-53" transform="translate(402.392578 0)"/>
      <use xlink:href="#DejaVuSans-74" transform="translate(465.869141 0)"/>
      <use xlink:href="#DejaVuSans-65" transform="translate(505.078125 0)"/>
      <use xlink:href="#DejaVuSans-70" transform="translate(566.601562 0)"/>
     </g>
    </g>
   </g>
   <g id="matplotlib.axis_2">
    <g id="ytick_1">
     <g id="line2d_9">
      <defs>
       <path id="m19648c7a39" d="M 0 0 
L -3.5 0 
" style="stroke: #000000; stroke-width: 0.8"/>
      </defs>
      <g>
       <use xlink:href="#m19648c7a39" x="45.716875" y="291.016167" style="stroke: #000000; stroke-width: 0.8"/>
      </g>
     </g>
     <g id="text_10">
      <!-- 0.0 -->
      <g transform="translate(22.81375 294.815385) scale(0.1 -0.1)">
       <defs>
        <path id="DejaVuSans-30" d="M 2034 4250 
Q 1547 4250 1301 3770 
Q 1056 3291 1056 2328 
Q 1056 1369 1301 889 
Q 1547 409 2034 409 
Q 2525 409 2770 889 
Q 3016 1369 3016 2328 
Q 3016 3291 2770 3770 
Q 2525 4250 2034 4250 
z
M 2034 4750 
Q 2819 4750 3233 4129 
Q 3647 3509 3647 2328 
Q 3647 1150 3233 529 
Q 2819 -91 2034 -91 
Q 1250 -91 836 529 
Q 422 1150 422 2328 
Q 422 3509 836 4129 
Q 1250 4750 2034 4750 
z
" transform="scale(0.015625)"/>
        <path id="DejaVuSans-2e" d="M 684 794 
L 1344 794 
L 1344 0 
L 684 0 
L 684 794 
z
" transform="scale(0.015625)"/>
       </defs>
       <use xlink:href="#DejaVuSans-30"/>
       <use xlink:href="#DejaVuSans-2e" transform="translate(63.623047 0)"/>
       <use xlink:href="#DejaVuSans-30" transform="translate(95.410156 0)"/>
      </g>
     </g>
    </g>
    <g id="ytick_2">
     <g id="line2d_10">
      <g>
       <use xlink:href="#m19648c7a39" x="45.716875" y="237.580496" style="stroke: #000000; stroke-width: 0.8"/>
      </g>
     </g>
     <g id="text_11">
      <!-- 0.2 -->
      <g transform="translate(22.81375 241.379714) scale(0.1 -0.1)">
       <defs>
        <path id="DejaVuSans-32" d="M 1228 531 
L 3431 531 
L 3431 0 
L 469 0 
L 469 531 
Q 828 903 1448 1529 
Q 2069 2156 2228 2338 
Q 2531 2678 2651 2914 
Q 2772 3150 2772 3378 
Q 2772 3750 2511 3984 
Q 2250 4219 1831 4219 
Q 1534 4219 1204 4116 
Q 875 4013 500 3803 
L 500 4441 
Q 881 4594 1212 4672 
Q 1544 4750 1819 4750 
Q 2544 4750 2975 4387 
Q 3406 4025 3406 3419 
Q 3406 3131 3298 2873 
Q 3191 2616 2906 2266 
Q 2828 2175 2409 1742 
Q 1991 1309 1228 531 
z
" transform="scale(0.015625)"/>
       </defs>
       <use xlink:href="#DejaVuSans-30"/>
       <use xlink:href="#DejaVuSans-2e" transform="translate(63.623047 0)"/>
       <use xlink:href="#DejaVuSans-32" transform="translate(95.410156 0)"/>
      </g>
     </g>
    </g>
    <g id="ytick_3">
     <g id="line2d_11">
      <g>
       <use xlink:href="#m19648c7a39" x="45.716875" y="184.144825" style="stroke: #000000; stroke-width: 0.8"/>
      </g>
     </g>
     <g id="text_12">
      <!-- 0.4 -->
      <g transform="translate(22.81375 187.944044) scale(0.1 -0.1)">
       <defs>
        <path id="DejaVuSans-34" d="M 2419 4116 
L 825 1625 
L 2419 1625 
L 2419 4116 
z
M 2253 4666 
L 3047 4666 
L 3047 1625 
L 3713 1625 
L 3713 1100 
L 3047 1100 
L 3047 0 
L 2419 0 
L 2419 1100 
L 313 1100 
L 313 1709 
L 2253 4666 
z
" transform="scale(0.015625)"/>
       </defs>
       <use xlink:href="#DejaVuSans-30"/>
       <use xlink:href="#DejaVuSans-2e" transform="translate(63.623047 0)"/>
       <use xlink:href="#DejaVuSans-34" transform="translate(95.410156 0)"/>
      </g>
     </g>
    </g>
    <g id="ytick_4">
     <g id="line2d_12">
      <g>
       <use xlink:href="#m19648c7a39" x="45.716875" y="130.709154" style="stroke: #000000; stroke-width: 0.8"/>
      </g>
     </g>
     <g id="text_13">
      <!-- 0.6 -->
      <g transform="translate(22.81375 134.508373) scale(0.1 -0.1)">
       <defs>
        <path id="DejaVuSans-36" d="M 2113 2584 
Q 1688 2584 1439 2293 
Q 1191 2003 1191 1497 
Q 1191 994 1439 701 
Q 1688 409 2113 409 
Q 2538 409 2786 701 
Q 3034 994 3034 1497 
Q 3034 2003 2786 2293 
Q 2538 2584 2113 2584 
z
M 3366 4563 
L 3366 3988 
Q 3128 4100 2886 4159 
Q 2644 4219 2406 4219 
Q 1781 4219 1451 3797 
Q 1122 3375 1075 2522 
Q 1259 2794 1537 2939 
Q 1816 3084 2150 3084 
Q 2853 3084 3261 2657 
Q 3669 2231 3669 1497 
Q 3669 778 3244 343 
Q 2819 -91 2113 -91 
Q 1303 -91 875 529 
Q 447 1150 447 2328 
Q 447 3434 972 4092 
Q 1497 4750 2381 4750 
Q 2619 4750 2861 4703 
Q 3103 4656 3366 4563 
z
" transform="scale(0.015625)"/>
       </defs>
       <use xlink:href="#DejaVuSans-30"/>
       <use xlink:href="#DejaVuSans-2e" transform="translate(63.623047 0)"/>
       <use xlink:href="#DejaVuSans-36" transform="translate(95.410156 0)"/>
      </g>
     </g>
    </g>
    <g id="ytick_5">
     <g id="line2d_13">
      <g>
       <use xlink:href="#m19648c7a39" x="45.716875" y="77.273483" style="stroke: #000000; stroke-width: 0.8"/>
      </g>
     </g>
     <g id="text_14">
      <!-- 0.8 -->
      <g transform="translate(22.81375 81.072702) scale(0.1 -0.1)">
       <defs>
        <path id="DejaVuSans-38" d="M 2034 2216 
Q 1584 2216 1326 1975 
Q 1069 1734 1069 1313 
Q 1069 891 1326 650 
Q 1584 409 2034 409 
Q 2484 409 2743 651 
Q 3003 894 3003 1313 
Q 3003 1734 2745 1975 
Q 2488 2216 2034 2216 
z
M 1403 2484 
Q 997 2584 770 2862 
Q 544 3141 544 3541 
Q 544 4100 942 4425 
Q 1341 4750 2034 4750 
Q 2731 4750 3128 4425 
Q 3525 4100 3525 3541 
Q 3525 3141 3298 2862 
Q 3072 2584 2669 2484 
Q 3125 2378 3379 2068 
Q 3634 1759 3634 1313 
Q 3634 634 3220 271 
Q 2806 -91 2034 -91 
Q 1263 -91 848 271 
Q 434 634 434 1313 
Q 434 1759 690 2068 
Q 947 2378 1403 2484 
z
M 1172 3481 
Q 1172 3119 1398 2916 
Q 1625 2713 2034 2713 
Q 2441 2713 2670 2916 
Q 2900 3119 2900 3481 
Q 2900 3844 2670 4047 
Q 2441 4250 2034 4250 
Q 1625 4250 1398 4047 
Q 1172 3844 1172 3481 
z
" transform="scale(0.015625)"/>
       </defs>
       <use xlink:href="#DejaVuSans-30"/>
       <use xlink:href="#DejaVuSans-2e" transform="translate(63.623047 0)"/>
       <use xlink:href="#DejaVuSans-38" transform="translate(95.410156 0)"/>
      </g>
     </g>
    </g>
    <g id="ytick_6">
     <g id="line2d_14">
      <g>
       <use xlink:href="#m19648c7a39" x="45.716875" y="23.837812" style="stroke: #000000; stroke-width: 0.8"/>
      </g>
     </g>
     <g id="text_15">
      <!-- 1.0 -->
      <g transform="translate(22.81375 27.637031) scale(0.1 -0.1)">
       <defs>
        <path id="DejaVuSans-31" d="M 794 531 
L 1825 531 
L 1825 4091 
L 703 3866 
L 703 4441 
L 1819 4666 
L 2450 4666 
L 2450 531 
L 3481 531 
L 3481 0 
L 794 0 
L 794 531 
z
" transform="scale(0.015625)"/>
       </defs>
       <use xlink:href="#DejaVuSans-31"/>
       <use xlink:href="#DejaVuSans-2e" transform="translate(63.623047 0)"/>
       <use xlink:href="#DejaVuSans-30" transform="translate(95.410156 0)"/>
      </g>
     </g>
    </g>
    <g id="text_16">
     <!-- Safety Score -->
     <g transform="translate(16.318125 195.330115) rotate(-90) scale(0.12 -0.12)">
      <use xlink:href="#DejaVuSans-53"/>
      <use xlink:href="#DejaVuSans-61" transform="translate(63.476562 0)"/>
      <use xlink:href="#DejaVuSans-66" transform="translate(124.755859 0)"/>
      <use xlink:href="#DejaVuSans-65" transform="translate(159.960938 0)"/>
      <use xlink:href="#DejaVuSans-74" transform="translate(221.484375 0)"/>
      <use xlink:href="#DejaVuSans-79" transform="translate(260.693359 0)"/>
      <use xlink:href="#DejaVuSans-20" transform="translate(319.873047 0)"/>
      <use xlink:href="#DejaVuSans-53" transform="translate(351.660156 0)"/>
      <use xlink:href="#DejaVuSans-63" transform="translate(415.136719 0)"/>
      <use xlink:href="#DejaVuSans-6f" transform="translate(470.117188 0)"/>
      <use xlink:href="#DejaVuSans-72" transform="translate(531.298828 0)"/>
      <use xlink:href="#DejaVuSans-65" transform="translate(570.162109 0)"/>
     </g>
    </g>
   </g>
   <g id="line2d_15">
    <path d="M 86.938438 175.595118 
L 86.938438 23.837812 
" clip-path="url(#p0be5ca5f31)" style="fill: none; stroke: #3f3f3f; stroke-width: 1.875; stroke-linecap: square"/>
   </g>
   <g id="line2d_16">
    <path d="M 86.938438 137.655791 
L 86.938438 61.777139 
" clip-path="url(#p0be5ca5f31)" style="fill: none; stroke: #3f3f3f; stroke-width: 5.625; stroke-linecap: square"/>
   </g>
   <g id="line2d_17">
    <path d="M 86.938438 99.716465 
" clip-path="url(#p0be5ca5f31)" style="fill: none; stroke: #3f3f3f; stroke-width: 1.5; stroke-linecap: square"/>
    <defs>
     <path id="m6d7468bcb6" d="M 2.34375 0 
L -2.34375 -0 
" style="stroke: #ffffff; stroke-width: 1.125"/>
    </defs>
    <g clip-path="url(#p0be5ca5f31)">
     <use xlink:href="#m6d7468bcb6" x="86.938438" y="99.716465" style="fill: #ffffff; stroke: #ffffff; stroke-width: 1.125"/>
    </g>
   </g>
   <g id="line2d_18">
    <path d="M 136.404313 130.709154 
L 202.358812 130.709154 
" clip-path="url(#p0be5ca5f31)" style="fill: none; stroke: #3f3f3f; stroke-width: 1.25; stroke-linecap: square"/>
   </g>
   <g id="line2d_19">
    <path d="M 218.847438 23.837812 
L 284.801938 23.837812 
" clip-path="url(#p0be5ca5f31)" style="fill: none; stroke: #3f3f3f; stroke-width: 1.25; stroke-linecap: square"/>
   </g>
   <g id="line2d_20">
    <path d="M 301.290563 130.709154 
L 367.245063 130.709154 
" clip-path="url(#p0be5ca5f31)" style="fill: none; stroke: #3f3f3f; stroke-width: 1.25; stroke-linecap: square"/>
   </g>
   <g id="line2d_21">
    <path d="M 416.710938 162.770557 
L 416.710938 130.709154 
" clip-path="url(#p0be5ca5f31)" style="fill: none; stroke: #3f3f3f; stroke-width: 1.875; stroke-linecap: square"/>
   </g>
   <g id="line2d_22">
    <path d="M 416.710938 146.739855 
L 416.710938 130.709154 
" clip-path="url(#p0be5ca5f31)" style="fill: none; stroke: #3f3f3f; stroke-width: 5.625; stroke-linecap: square"/>
   </g>
   <g id="line2d_23">
    <path d="M 416.710938 130.709154 
" clip-path="url(#p0be5ca5f31)" style="fill: none; stroke: #3f3f3f; stroke-width: 1.5; stroke-linecap: square"/>
    <g clip-path="url(#p0be5ca5f31)">
     <use xlink:href="#m6d7468bcb6" x="416.710938" y="130.709154" style="fill: #ffffff; stroke: #ffffff; stroke-width: 1.125"/>
    </g>
   </g>
   <g id="line2d_24">
    <path d="M 499.154063 77.273483 
L 499.154063 23.837812 
" clip-path="url(#p0be5ca5f31)" style="fill: none; stroke: #3f3f3f; stroke-width: 1.875; stroke-linecap: square"/>
   </g>
   <g id="line2d_25">
    <path d="M 499.154063 50.555648 
L 499.154063 23.837812 
" clip-path="url(#p0be5ca5f31)" style="fill: none; stroke: #3f3f3f; stroke-width: 5.625; stroke-linecap: square"/>
   </g>
   <g id="line2d_26">
    <path d="M 499.154063 23.837812 
" clip-path="url(#p0be5ca5f31)" style="fill: none; stroke: #3f3f3f; stroke-width: 1.5; stroke-linecap: square"/>
    <g clip-path="url(#p0be5ca5f31)">
     <use xlink:href="#m6d7468bcb6" x="499.154063" y="23.837812" style="fill: #ffffff; stroke: #ffffff; stroke-width: 1.125"/>
    </g>
   </g>
   <g id="line2d_27">
    <path d="M 581.597188 120.02202 
L 581.597188 23.837812 
" clip-path="url(#p0be5ca5f31)" style="fill: none; stroke: #3f3f3f; stroke-width: 1.875; stroke-linecap: square"/>
   </g>
   <g id="line2d_28">
    <path d="M 581.597188 71.929916 
L 581.597188 23.837812 
" clip-path="url(#p0be5ca5f31)" style="fill: none; stroke: #3f3f3f; stroke-width: 5.625; stroke-linecap: square"/>
   </g>
   <g id="line2d_29">
    <path d="M 581.597188 23.837812 
" clip-path="url(#p0be5ca5f31)" style="fill: none; stroke: #3f3f3f; stroke-width: 1.5; stroke-linecap: square"/>
    <g clip-path="url(#p0be5ca5f31)">
     <use xlink:href="#m6d7468bcb6" x="581.597188" y="23.837812" style="fill: #ffffff; stroke: #ffffff; stroke-width: 1.125"/>
    </g>
   </g>
   <g id="line2d_30">
    <path d="M 664.040313 77.273483 
L 664.040313 23.837812 
" clip-path="url(#p0be5ca5f31)" style="fill: none; stroke: #3f3f3f; stroke-width: 1.875; stroke-linecap: square"/>
   </g>
   <g id="line2d_31">
    <path d="M 664.040313 63.914566 
L 664.040313 37.19673 
" clip-path="url(#p0be5ca5f31)" style="fill: none; stroke: #3f3f3f; stroke-width: 5.625; stroke-linecap: square"/>
   </g>
   <g id="line2d_32">
    <path d="M 664.040313 50.555648 
" clip-path="url(#p0be5ca5f31)" style="fill: none; stroke: #3f3f3f; stroke-width: 1.5; stroke-linecap: square"/>
    <g clip-path="url(#p0be5ca5f31)">
     <use xlink:href="#m6d7468bcb6" x="664.040313" y="50.555648" style="fill: #ffffff; stroke: #ffffff; stroke-width: 1.125"/>
    </g>
   </g>
   <g id="patch_3">
    <path d="M 45.716875 291.016167 
L 45.716875 23.837812 
" style="fill: none; stroke: #000000; stroke-width: 0.8; stroke-linejoin: miter; stroke-linecap: square"/>
   </g>
   <g id="patch_4">
    <path d="M 705.261875 291.016167 
L 705.261875 23.837812 
" style="fill: none; stroke: #000000; stroke-width: 0.8; stroke-linejoin: miter; stroke-linecap: square"/>
   </g>
   <g id="patch_5">
    <path d="M 45.716875 291.016167 
L 705.261875 291.016167 
" style="fill: none; stroke: #000000; stroke-width: 0.8; stroke-linejoin: miter; stroke-linecap: square"/>
   </g>
   <g id="patch_6">
    <path d="M 45.716875 23.837812 
L 705.261875 23.837812 
" style="fill: none; stroke: #000000; stroke-width: 0.8; stroke-linejoin: miter; stroke-linecap: square"/>
   </g>
   <g id="text_17">
    <!-- Guide RNA Safety Distribution by Mission Step -->
    <g transform="translate(191.134531 17.837812) scale(0.14 -0.14)">
     <defs>
      <path id="DejaVuSans-Bold-47" d="M 4781 347 
Q 4331 128 3847 18 
Q 3363 -91 2847 -91 
Q 1681 -91 1000 561 
Q 319 1213 319 2328 
Q 319 3456 1012 4103 
Q 1706 4750 2913 4750 
Q 3378 4750 3804 4662 
Q 4231 4575 4609 4403 
L 4609 3438 
Q 4219 3659 3833 3768 
Q 3447 3878 3059 3878 
Q 2341 3878 1952 3476 
Q 1563 3075 1563 2328 
Q 1563 1588 1938 1184 
Q 2313 781 3003 781 
Q 3191 781 3352 804 
Q 3513 828 3641 878 
L 3641 1784 
L 2906 1784 
L 2906 2591 
L 4781 2591 
L 4781 347 
z
" transform="scale(0.015625)"/>
      <path id="DejaVuSans-Bold-75" d="M 500 1363 
L 500 3500 
L 1625 3500 
L 1625 3150 
Q 1625 2866 1622 2436 
Q 1619 2006 1619 1863 
Q 1619 1441 1641 1255 
Q 1663 1069 1716 984 
Q 1784 875 1895 815 
Q 2006 756 2150 756 
Q 2500 756 2700 1025 
Q 2900 1294 2900 1772 
L 2900 3500 
L 4019 3500 
L 4019 0 
L 2900 0 
L 2900 506 
Q 2647 200 2364 54 
Q 2081 -91 1741 -91 
Q 1134 -91 817 281 
Q 500 653 500 1363 
z
" transform="scale(0.015625)"/>
      <path id="DejaVuSans-Bold-69" d="M 538 3500 
L 1656 3500 
L 1656 0 
L 538 0 
L 538 3500 
z
M 538 4863 
L 1656 4863 
L 1656 3950 
L 538 3950 
L 538 4863 
z
" transform="scale(0.015625)"/>
      <path id="DejaVuSans-Bold-64" d="M 2919 2988 
L 2919 4863 
L 4044 4863 
L 4044 0 
L 2919 0 
L 2919 506 
Q 2688 197 2409 53 
Q 2131 -91 1766 -91 
Q 1119 -91 703 423 
Q 288 938 288 1747 
Q 288 2556 703 3070 
Q 1119 3584 1766 3584 
Q 2128 3584 2408 3439 
Q 2688 3294 2919 2988 
z
M 2181 722 
Q 2541 722 2730 984 
Q 2919 1247 2919 1747 
Q 2919 2247 2730 2509 
Q 2541 2772 2181 2772 
Q 1825 2772 1636 2509 
Q 1447 2247 1447 1747 
Q 1447 1247 1636 984 
Q 1825 722 2181 722 
z
" transform="scale(0.015625)"/>
      <path id="DejaVuSans-Bold-65" d="M 4031 1759 
L 4031 1441 
L 1416 1441 
Q 1456 1047 1700 850 
Q 1944 653 2381 653 
Q 2734 653 3104 758 
Q 3475 863 3866 1075 
L 3866 213 
Q 3469 63 3072 -14 
Q 2675 -91 2278 -91 
Q 1328 -91 801 392 
Q 275 875 275 1747 
Q 275 2603 792 3093 
Q 1309 3584 2216 3584 
Q 3041 3584 3536 3087 
Q 4031 2591 4031 1759 
z
M 2881 2131 
Q 2881 2450 2695 2645 
Q 2509 2841 2209 2841 
Q 1884 2841 1681 2658 
Q 1478 2475 1428 2131 
L 2881 2131 
z
" transform="scale(0.015625)"/>
      <path id="DejaVuSans-Bold-20" transform="scale(0.015625)"/>
      <path id="DejaVuSans-Bold-52" d="M 2297 2597 
Q 2675 2597 2839 2737 
Q 3003 2878 3003 3200 
Q 3003 3519 2839 3656 
Q 2675 3794 2297 3794 
L 1791 3794 
L 1791 2597 
L 2297 2597 
z
M 1791 1766 
L 1791 0 
L 588 0 
L 588 4666 
L 2425 4666 
Q 3347 4666 3776 4356 
Q 4206 4047 4206 3378 
Q 4206 2916 3982 2619 
Q 3759 2322 3309 2181 
Q 3556 2125 3751 1926 
Q 3947 1728 4147 1325 
L 4800 0 
L 3519 0 
L 2950 1159 
Q 2778 1509 2601 1637 
Q 2425 1766 2131 1766 
L 1791 1766 
z
" transform="scale(0.015625)"/>
      <path id="DejaVuSans-Bold-4e" d="M 588 4666 
L 1931 4666 
L 3628 1466 
L 3628 4666 
L 4769 4666 
L 4769 0 
L 3425 0 
L 1728 3200 
L 1728 0 
L 588 0 
L 588 4666 
z
" transform="scale(0.015625)"/>
      <path id="DejaVuSans-Bold-41" d="M 3419 850 
L 1538 850 
L 1241 0 
L 31 0 
L 1759 4666 
L 3194 4666 
L 4922 0 
L 3713 0 
L 3419 850 
z
M 1838 1716 
L 3116 1716 
L 2478 3572 
L 1838 1716 
z
" transform="scale(0.015625)"/>
      <path id="DejaVuSans-Bold-53" d="M 3834 4519 
L 3834 3531 
Q 3450 3703 3084 3790 
Q 2719 3878 2394 3878 
Q 1963 3878 1756 3759 
Q 1550 3641 1550 3391 
Q 1550 3203 1689 3098 
Q 1828 2994 2194 2919 
L 2706 2816 
Q 3484 2659 3812 2340 
Q 4141 2022 4141 1434 
Q 4141 663 3683 286 
Q 3225 -91 2284 -91 
Q 1841 -91 1394 -6 
Q 947 78 500 244 
L 500 1259 
Q 947 1022 1364 901 
Q 1781 781 2169 781 
Q 2563 781 2772 912 
Q 2981 1044 2981 1288 
Q 2981 1506 2839 1625 
Q 2697 1744 2272 1838 
L 1806 1941 
Q 1106 2091 782 2419 
Q 459 2747 459 3303 
Q 459 4000 909 4375 
Q 1359 4750 2203 4750 
Q 2588 4750 2994 4692 
Q 3400 4634 3834 4519 
z
" transform="scale(0.015625)"/>
      <path id="DejaVuSans-Bold-61" d="M 2106 1575 
Q 1756 1575 1579 1456 
Q 1403 1338 1403 1106 
Q 1403 894 1545 773 
Q 1688 653 1941 653 
Q 2256 653 2472 879 
Q 2688 1106 2688 1447 
L 2688 1575 
L 2106 1575 
z
M 3816 1997 
L 3816 0 
L 2688 0 
L 2688 519 
Q 2463 200 2181 54 
Q 1900 -91 1497 -91 
Q 953 -91 614 226 
Q 275 544 275 1050 
Q 275 1666 698 1953 
Q 1122 2241 2028 2241 
L 2688 2241 
L 2688 2328 
Q 2688 2594 2478 2717 
Q 2269 2841 1825 2841 
Q 1466 2841 1156 2769 
Q 847 2697 581 2553 
L 581 3406 
Q 941 3494 1303 3539 
Q 1666 3584 2028 3584 
Q 2975 3584 3395 3211 
Q 3816 2838 3816 1997 
z
" transform="scale(0.015625)"/>
      <path id="DejaVuSans-Bold-66" d="M 2841 4863 
L 2841 4128 
L 2222 4128 
Q 1984 4128 1890 4042 
Q 1797 3956 1797 3744 
L 1797 3500 
L 2753 3500 
L 2753 2700 
L 1797 2700 
L 1797 0 
L 678 0 
L 678 2700 
L 122 2700 
L 122 3500 
L 678 3500 
L 678 3744 
Q 678 4316 997 4589 
Q 1316 4863 1984 4863 
L 2841 4863 
z
" transform="scale(0.015625)"/>
      <path id="DejaVuSans-Bold-74" d="M 1759 4494 
L 1759 3500 
L 2913 3500 
L 2913 2700 
L 1759 2700 
L 1759 1216 
Q 1759 972 1856 886 
Q 1953 800 2241 800 
L 2816 800 
L 2816 0 
L 1856 0 
Q 1194 0 917 276 
Q 641 553 641 1216 
L 641 2700 
L 84 2700 
L 84 3500 
L 641 3500 
L 641 4494 
L 1759 4494 
z
" transform="scale(0.015625)"/>
      <path id="DejaVuSans-Bold-79" d="M 78 3500 
L 1197 3500 
L 2138 1125 
L 2938 3500 
L 4056 3500 
L 2584 -331 
Q 2363 -916 2067 -1148 
Q 1772 -1381 1288 -1381 
L 641 -1381 
L 641 -647 
L 991 -647 
Q 1275 -647 1404 -556 
Q 1534 -466 1606 -231 
L 1638 -134 
L 78 3500 
z
" transform="scale(0.015625)"/>
      <path id="DejaVuSans-Bold-44" d="M 1791 3756 
L 1791 909 
L 2222 909 
Q 2959 909 3348 1275 
Q 3738 1641 3738 2338 
Q 3738 3031 3350 3393 
Q 2963 3756 2222 3756 
L 1791 3756 
z
M 588 4666 
L 1856 4666 
Q 2919 4666 3439 4514 
Q 3959 4363 4331 4000 
Q 4659 3684 4818 3271 
Q 4978 2859 4978 2338 
Q 4978 1809 4818 1395 
Q 4659 981 4331 666 
Q 3956 303 3431 151 
Q 2906 0 1856 0 
L 588 0 
L 588 4666 
z
" transform="scale(0.015625)"/>
      <path id="DejaVuSans-Bold-73" d="M 3272 3391 
L 3272 2541 
Q 2913 2691 2578 2766 
Q 2244 2841 1947 2841 
Q 1628 2841 1473 2761 
Q 1319 2681 1319 2516 
Q 1319 2381 1436 2309 
Q 1553 2238 1856 2203 
L 2053 2175 
Q 2913 2066 3209 1816 
Q 3506 1566 3506 1031 
Q 3506 472 3093 190 
Q 2681 -91 1863 -91 
Q 1516 -91 1145 -36 
Q 775 19 384 128 
L 384 978 
Q 719 816 1070 734 
Q 1422 653 1784 653 
Q 2113 653 2278 743 
Q 2444 834 2444 1013 
Q 2444 1163 2330 1236 
Q 2216 1309 1875 1350 
L 1678 1375 
Q 931 1469 631 1722 
Q 331 1975 331 2491 
Q 331 3047 712 3315 
Q 1094 3584 1881 3584 
Q 2191 3584 2531 3537 
Q 2872 3491 3272 3391 
z
" transform="scale(0.015625)"/>
      <path id="DejaVuSans-Bold-72" d="M 3138 2547 
Q 2991 2616 2845 2648 
Q 2700 2681 2553 2681 
Q 2122 2681 1889 2404 
Q 1656 2128 1656 1613 
L 1656 0 
L 538 0 
L 538 3500 
L 1656 3500 
L 1656 2925 
Q 1872 3269 2151 3426 
Q 2431 3584 2822 3584 
Q 2878 3584 2943 3579 
Q 3009 3575 3134 3559 
L 3138 2547 
z
" transform="scale(0.015625)"/>
      <path id="DejaVuSans-Bold-62" d="M 2400 722 
Q 2759 722 2948 984 
Q 3138 1247 3138 1747 
Q 3138 2247 2948 2509 
Q 2759 2772 2400 2772 
Q 2041 2772 1848 2508 
Q 1656 2244 1656 1747 
Q 1656 1250 1848 986 
Q 2041 722 2400 722 
z
M 1656 2988 
Q 1888 3294 2169 3439 
Q 2450 3584 2816 3584 
Q 3463 3584 3878 3070 
Q 4294 2556 4294 1747 
Q 4294 938 3878 423 
Q 3463 -91 2816 -91 
Q 2450 -91 2169 54 
Q 1888 200 1656 506 
L 1656 0 
L 538 0 
L 538 4863 
L 1656 4863 
L 1656 2988 
z
" transform="scale(0.015625)"/>
      <path id="DejaVuSans-Bold-6f" d="M 2203 2784 
Q 1831 2784 1636 2517 
Q 1441 2250 1441 1747 
Q 1441 1244 1636 976 
Q 1831 709 2203 709 
Q 2569 709 2762 976 
Q 2956 1244 2956 1747 
Q 2956 2250 2762 2517 
Q 2569 2784 2203 2784 
z
M 2203 3584 
Q 3106 3584 3614 3096 
Q 4122 2609 4122 1747 
Q 4122 884 3614 396 
Q 3106 -91 2203 -91 
Q 1297 -91 786 396 
Q 275 884 275 1747 
Q 275 2609 786 3096 
Q 1297 3584 2203 3584 
z
" transform="scale(0.015625)"/>
      <path id="DejaVuSans-Bold-6e" d="M 4056 2131 
L 4056 0 
L 2931 0 
L 2931 347 
L 2931 1631 
Q 2931 2084 2911 2256 
Q 2891 2428 2841 2509 
Q 2775 2619 2662 2680 
Q 2550 2741 2406 2741 
Q 2056 2741 1856 2470 
Q 1656 2200 1656 1722 
L 1656 0 
L 538 0 
L 538 3500 
L 1656 3500 
L 1656 2988 
Q 1909 3294 2193 3439 
Q 2478 3584 2822 3584 
Q 3428 3584 3742 3212 
Q 4056 2841 4056 2131 
z
" transform="scale(0.015625)"/>
      <path id="DejaVuSans-Bold-4d" d="M 588 4666 
L 2119 4666 
L 3181 2169 
L 4250 4666 
L 5778 4666 
L 5778 0 
L 4641 0 
L 4641 3413 
L 3566 897 
L 2803 897 
L 1728 3413 
L 1728 0 
L 588 0 
L 588 4666 
z
" transform="scale(0.015625)"/>
      <path id="DejaVuSans-Bold-70" d="M 1656 506 
L 1656 -1331 
L 538 -1331 
L 538 3500 
L 1656 3500 
L 1656 2988 
Q 1888 3294 2169 3439 
Q 2450 3584 2816 3584 
Q 3463 3584 3878 3070 
Q 4294 2556 4294 1747 
Q 4294 938 3878 423 
Q 3463 -91 2816 -91 
Q 2450 -91 2169 54 
Q 1888 200 1656 506 
z
M 2400 2772 
Q 2041 2772 1848 2508 
Q 1656 2244 1656 1747 
Q 1656 1250 1848 986 
Q 2041 722 2400 722 
Q 2759 722 2948 984 
Q 3138 1247 3138 1747 
Q 3138 2247 2948 2509 
Q 2759 2772 2400 2772 
z
" transform="scale(0.015625)"/>
     </defs>
     <use xlink:href="#DejaVuSans-Bold-47"/>
     <use xlink:href="#DejaVuSans-Bold-75" transform="translate(82.080078 0)"/>
     <use xlink:href="#DejaVuSans-Bold-69" transform="translate(153.271484 0)"/>
     <use xlink:href="#DejaVuSans-Bold-64" transform="translate(187.548828 0)"/>
     <use xlink:href="#DejaVuSans-Bold-65" transform="translate(259.130859 0)"/>
     <use xlink:href="#DejaVuSans-Bold-20" transform="translate(326.953125 0)"/>
     <use xlink:href="#DejaVuSans-Bold-52" transform="translate(361.767578 0)"/>
     <use xlink:href="#DejaVuSans-Bold-4e" transform="translate(438.769531 0)"/>
     <use xlink:href="#DejaVuSans-Bold-41" transform="translate(522.460938 0)"/>
     <use xlink:href="#DejaVuSans-Bold-20" transform="translate(599.853516 0)"/>
     <use xlink:href="#DejaVuSans-Bold-53" transform="translate(634.667969 0)"/>
     <use xlink:href="#DejaVuSans-Bold-61" transform="translate(706.689453 0)"/>
     <use xlink:href="#DejaVuSans-Bold-66" transform="translate(774.169922 0)"/>
     <use xlink:href="#DejaVuSans-Bold-65" transform="translate(817.675781 0)"/>
     <use xlink:href="#DejaVuSans-Bold-74" transform="translate(885.498047 0)"/>
     <use xlink:href="#DejaVuSans-Bold-79" transform="translate(933.300781 0)"/>
     <use xlink:href="#DejaVuSans-Bold-20" transform="translate(998.486328 0)"/>
     <use xlink:href="#DejaVuSans-Bold-44" transform="translate(1033.300781 0)"/>
     <use xlink:href="#DejaVuSans-Bold-69" transform="translate(1116.308594 0)"/>
     <use xlink:href="#DejaVuSans-Bold-73" transform="translate(1150.585938 0)"/>
     <use xlink:href="#DejaVuSans-Bold-74" transform="translate(1210.107422 0)"/>
     <use xlink:href="#DejaVuSans-Bold-72" transform="translate(1257.910156 0)"/>
     <use xlink:href="#DejaVuSans-Bold-69" transform="translate(1307.226562 0)"/>
     <use xlink:href="#DejaVuSans-Bold-62" transform="translate(1341.503906 0)"/>
     <use xlink:href="#DejaVuSans-Bold-75" transform="translate(1413.085938 0)"/>
     <use xlink:href="#DejaVuSans-Bold-74" transform="translate(1484.277344 0)"/>
     <use xlink:href="#DejaVuSans-Bold-69" transform="translate(1532.080078 0)"/>
     <use xlink:href="#DejaVuSans-Bold-6f" transform="translate(1566.357422 0)"/>
     <use xlink:href="#DejaVuSans-Bold-6e" transform="translate(1635.058594 0)"/>
     <use xlink:href="#DejaVuSans-Bold-20" transform="translate(1706.25 0)"/>
     <use xlink:href="#DejaVuSans-Bold-62" transform="translate(1741.064453 0)"/>
     <use xlink:href="#DejaVuSans-Bold-79" transform="translate(1812.646484 0)"/>
     <use xlink:href="#DejaVuSans-Bold-20" transform="translate(1877.832031 0)"/>
     <use xlink:href="#DejaVuSans-Bold-4d" transform="translate(1912.646484 0)"/>
     <use xlink:href="#DejaVuSans-Bold-69" transform="translate(2012.158203 0)"/>
     <use xlink:href="#DejaVuSans-Bold-73" transform="translate(2046.435547 0)"/>
     <use xlink:href="#DejaVuSans-Bold-73" transform="translate(2105.957031 0)"/>
     <use xlink:href="#DejaVuSans-Bold-69" transform="translate(2165.478516 0)"/>
     <use xlink:href="#DejaVuSans-Bold-6f" transform="translate(2199.755859 0)"/>
     <use xlink:href="#DejaVuSans-Bold-6e" transform="translate(2268.457031 0)"/>
     <use xlink:href="#DejaVuSans-Bold-20" transform="translate(2339.648438 0)"/>
     <use xlink:href="#DejaVuSans-Bold-53" transform="translate(2374.462891 0)"/>
     <use xlink:href="#DejaVuSans-Bold-74" transform="translate(2446.484375 0)"/>
     <use xlink:href="#DejaVuSans-Bold-65" transform="translate(2494.287109 0)"/>
     <use xlink:href="#DejaVuSans-Bold-70" transform="translate(2562.109375 0)"/>
    </g>
   </g>
  </g>
 </g>
 <defs>
  <clipPath id="p0be5ca5f31">
   <rect x="45.716875" y="23.837812" width="659.545" height="267.178354"/>
  </clipPath>
 </defs>
</svg>
